SplineFontDB: 3.0
FontName: Numans-Regular
FullName: Numans
FamilyName: Numans
Weight: Book
Copyright: Copyright (c) 2011 by Jovanny Lemonad. All rights reserved.
Version: 001.001
ItalicAngle: 0
UnderlinePosition: -103
UnderlineWidth: 102
Ascent: 1638
Descent: 410
sfntRevision: 0x00010000
LayerCount: 2
Layer: 0 1 "Back"  1
Layer: 1 1 "Fore"  0
XUID: [1021 288 713564382 12887972]
FSType: 0
OS2Version: 3
OS2_WeightWidthSlopeOnly: 0
OS2_UseTypoMetrics: 1
CreationTime: 1312028614
ModificationTime: 1313170375
PfmFamily: 17
TTFWeight: 400
TTFWidth: 5
LineGap: 0
VLineGap: 0
Panose: 2 0 5 3 0 0 0 2 0 4
OS2TypoAscent: 215
OS2TypoAOffset: 1
OS2TypoDescent: -143
OS2TypoDOffset: 1
OS2TypoLinegap: 0
OS2WinAscent: 0
OS2WinAOffset: 1
OS2WinDescent: 0
OS2WinDOffset: 1
HheadAscent: 0
HheadAOffset: 1
HheadDescent: 0
HheadDOffset: 1
OS2SubXSize: 1434
OS2SubYSize: 1331
OS2SubXOff: 0
OS2SubYOff: 287
OS2SupXSize: 1434
OS2SupYSize: 1331
OS2SupXOff: 0
OS2SupYOff: 977
OS2StrikeYSize: 102
OS2StrikeYPos: 512
OS2Vendor: 'PYRS'
OS2CodePages: 00000001.00000000
OS2UnicodeRanges: 800000af.1000000a.00000000.00000000
Lookup: 258 0 0 "'kern' Horizontal Kerning in Latin lookup 0"  {"'kern' Horizontal Kerning in Latin lookup 0 subtable"  } ['kern' ('DFLT' <'dflt' > 'latn' <'dflt' > ) ]
DEI: 91125
TtTable: prep
PUSHW_1
 511
SCANCTRL
PUSHB_1
 4
SCANTYPE
EndTTInstrs
ShortTable: maxp 16
  1
  0
  247
  88
  19
  0
  0
  2
  0
  1
  1
  0
  64
  0
  0
  0
EndShort

StartChar: exclam
Encoding: 33 33 4
Width: 635
GlyphClass: 2
Flags: W
LayerCount: 2
Fore
SplineSet
205 1413 m 2,0,1
 205 1434 205 1434 225 1434 c 2,2,-1
 410 1434 l 2,3,4
 430 1434 430 1434 430 1413 c 2,5,-1
 389 379 l 2,6,7
 389 358 389 358 369 358 c 2,8,-1
 266 358 l 2,9,10
 246 358 246 358 246 379 c 2,11,-1
 205 1413 l 2,0,1
211 31 m 2,12,-1
 211 164 l 2,13,14
 211 186 211 186 220 195.5 c 128,-1,15
 229 205 229 205 252 205 c 2,16,-1
 385 205 l 2,17,18
 408 205 408 205 417 195.5 c 128,-1,19
 426 186 426 186 426 164 c 2,20,-1
 426 31 l 2,21,22
 426 8 426 8 417 -1 c 128,-1,23
 408 -10 408 -10 385 -10 c 2,24,-1
 252 -10 l 2,25,26
 229 -10 229 -10 220 -1 c 128,-1,27
 211 8 211 8 211 31 c 2,12,-1
EndSplineSet
EndChar

StartChar: quotedbl
Encoding: 34 34 5
Width: 696
GlyphClass: 2
Flags: W
LayerCount: 2
Fore
SplineSet
102 1413 m 1,0,1
 102 1433 102 1433 123 1434 c 1,2,-1
 266 1434 l 2,3,4
 286 1434 286 1434 287 1413 c 1,5,-1
 256 952 l 1,6,7
 256 932 256 932 236 932 c 2,8,-1
 156 932 l 2,9,10
 136 932 136 932 135 952 c 2,11,-1
 102 1413 l 1,0,1
410 1413 m 1,12,13
 410 1433 410 1433 430 1434 c 1,14,-1
 573 1434 l 2,15,16
 593 1434 593 1434 594 1413 c 1,17,-1
 563 952 l 1,18,19
 563 932 563 932 543 932 c 2,20,-1
 461 932 l 2,21,22
 441 932 441 932 440 952 c 2,23,-1
 410 1413 l 1,12,13
EndSplineSet
EndChar

StartChar: numbersign
Encoding: 35 35 6
Width: 1587
GlyphClass: 2
Flags: W
LayerCount: 2
Fore
SplineSet
61 389 m 2,0,-1
 61 492 l 2,1,2
 61 512 61 512 82 512 c 2,3,-1
 362 512 l 1,4,-1
 469 922 l 1,5,-1
 225 922 l 2,6,7
 205 922 205 922 205 942 c 2,8,-1
 205 1044 l 2,9,10
 205 1064 205 1064 225 1065 c 1,11,-1
 506 1065 l 1,12,-1
 594 1413 l 2,13,14
 600 1433 600 1433 625 1434 c 1,15,-1
 748 1434 l 2,16,17
 764 1434 764 1434 758 1413 c 2,18,-1
 670 1065 l 1,19,-1
 1098 1065 l 1,20,-1
 1188 1413 l 2,21,22
 1194 1433 1194 1433 1219 1434 c 1,23,-1
 1341 1434 l 2,24,25
 1357 1434 1357 1434 1352 1413 c 2,26,-1
 1262 1065 l 1,27,-1
 1505 1065 l 2,28,29
 1525 1065 1525 1065 1526 1044 c 1,30,-1
 1526 942 l 2,31,32
 1526 922 1526 922 1505 922 c 2,33,-1
 1225 922 l 1,34,-1
 1118 512 l 1,35,-1
 1362 512 l 2,36,37
 1382 512 1382 512 1382 492 c 2,38,-1
 1382 389 l 2,39,40
 1382 369 1382 369 1362 369 c 2,41,-1
 1081 369 l 1,42,-1
 993 20 l 2,43,44
 987 0 987 0 963 0 c 2,45,-1
 840 0 l 2,46,47
 824 0 824 0 829 20 c 2,48,-1
 918 369 l 1,49,-1
 489 369 l 1,50,-1
 399 20 l 2,51,52
 393 0 393 0 369 0 c 2,53,-1
 246 0 l 2,54,55
 230 0 230 0 236 20 c 2,56,-1
 326 369 l 1,57,-1
 82 369 l 2,58,59
 61 369 61 369 61 389 c 2,0,-1
526 512 m 1,60,-1
 954 512 l 1,61,-1
 1061 922 l 1,62,-1
 633 922 l 1,63,-1
 526 512 l 1,60,-1
EndSplineSet
EndChar

StartChar: dollar
Encoding: 36 36 7
Width: 1382
GlyphClass: 2
Flags: W
LayerCount: 2
Fore
SplineSet
104 365 m 1,0,1
 100 390 100 390 125 389 c 1,2,-1
 254 389 l 2,3,4
 272 389 272 389 279 369 c 0,5,6
 365 113 365 113 717 113 c 0,7,8
 901 113 901 113 998.5 178.5 c 128,-1,9
 1096 244 1096 244 1096 341 c 128,-1,10
 1096 438 1096 438 1034.5 497.5 c 128,-1,11
 973 557 973 557 842 594 c 2,12,-1
 483 696 l 1,13,14
 135 796 135 796 135 1075 c 0,15,16
 135 1235 135 1235 261 1340.5 c 128,-1,17
 387 1446 387 1446 606 1460 c 1,18,-1
 606 1618 l 2,19,20
 606 1638 606 1638 627 1638 c 2,21,-1
 770 1638 l 2,22,23
 790 1638 790 1638 791 1618 c 1,24,-1
 791 1458 l 1,25,26
 986 1433 986 1433 1106.5 1332 c 128,-1,27
 1227 1231 1227 1231 1262 1069 c 1,28,29
 1266 1044 1266 1044 1241 1044 c 2,30,-1
 1112 1044 l 2,31,32
 1094 1044 1094 1044 1087 1065 c 0,33,34
 1001 1321 1001 1321 678 1321 c 0,35,36
 508 1321 508 1321 413.5 1255.5 c 128,-1,37
 319 1190 319 1190 319 1091.5 c 128,-1,38
 319 993 319 993 380.5 936 c 128,-1,39
 442 879 442 879 575 840 c 2,40,-1
 934 737 l 1,41,42
 1280 639 1280 639 1280 358 c 0,43,44
 1280 198 1280 198 1150 93 c 128,-1,45
 1020 -12 1020 -12 791 -27 c 1,46,-1
 791 -184 l 2,47,48
 791 -204 791 -204 770 -205 c 1,49,-1
 627 -205 l 2,50,51
 607 -205 607 -205 606 -184 c 1,52,-1
 606 -25 l 1,53,54
 393 -5 393 -5 266 97 c 128,-1,55
 139 199 139 199 104 365 c 1,0,1
EndSplineSet
EndChar

StartChar: percent
Encoding: 37 37 8
Width: 1833
GlyphClass: 2
Flags: W
LayerCount: 2
Fore
SplineSet
180 807 m 1,0,1
 82 909 82 909 82 1085.5 c 128,-1,2
 82 1262 82 1262 180.5 1363 c 128,-1,3
 279 1464 279 1464 440.5 1464 c 128,-1,4
 602 1464 602 1464 700.5 1363 c 128,-1,5
 799 1262 799 1262 799 1085.5 c 128,-1,6
 799 909 799 909 700.5 808 c 128,-1,7
 602 707 602 707 440.5 707 c 128,-1,8
 279 707 279 707 180 807 c 1,0,1
440 1341 m 128,-1,10
 352 1341 352 1341 299 1276.5 c 128,-1,11
 246 1212 246 1212 246 1085 c 128,-1,12
 246 958 246 958 299 893.5 c 128,-1,13
 352 829 352 829 440 829 c 128,-1,14
 528 829 528 829 581.5 893.5 c 128,-1,15
 635 958 635 958 635 1085 c 128,-1,16
 635 1212 635 1212 581.5 1276.5 c 128,-1,9
 528 1341 528 1341 440 1341 c 128,-1,10
471 20 m 2,17,-1
 1178 1413 l 2,18,19
 1188 1434 1188 1434 1208 1434 c 2,20,-1
 1352 1434 l 2,21,22
 1372 1434 1372 1434 1362 1413 c 2,23,-1
 655 20 l 2,24,25
 645 0 645 0 625 0 c 2,26,-1
 481 0 l 2,27,28
 461 0 461 0 471 20 c 2,17,-1
1392.5 -31 m 128,-1,30
 1231 -31 1231 -31 1132.5 70.5 c 128,-1,31
 1034 172 1034 172 1034 348 c 128,-1,32
 1034 524 1034 524 1132.5 625.5 c 128,-1,33
 1231 727 1231 727 1392.5 727 c 128,-1,34
 1554 727 1554 727 1652.5 625.5 c 128,-1,35
 1751 524 1751 524 1751 348 c 128,-1,36
 1751 172 1751 172 1652.5 70.5 c 128,-1,29
 1554 -31 1554 -31 1392.5 -31 c 128,-1,30
1393 604 m 128,-1,38
 1305 604 1305 604 1251.5 539.5 c 128,-1,39
 1198 475 1198 475 1198 348 c 128,-1,40
 1198 221 1198 221 1251.5 156.5 c 128,-1,41
 1305 92 1305 92 1393 92 c 128,-1,42
 1481 92 1481 92 1534 156.5 c 128,-1,43
 1587 221 1587 221 1587 348 c 128,-1,44
 1587 475 1587 475 1534 539.5 c 128,-1,37
 1481 604 1481 604 1393 604 c 128,-1,38
EndSplineSet
EndChar

StartChar: ampersand
Encoding: 38 38 9
Width: 1511
GlyphClass: 2
Flags: W
LayerCount: 2
Fore
SplineSet
102 358 m 0,0,1
 102 598 102 598 332 754 c 1,2,3
 375 785 375 785 410 799 c 1,4,5
 404 805 404 805 392.5 814 c 128,-1,6
 381 823 381 823 352.5 855 c 128,-1,7
 324 887 324 887 302 920 c 1,8,9
 246 1009 246 1009 246 1096 c 0,10,11
 246 1268 246 1268 371 1366 c 128,-1,12
 496 1464 496 1464 717 1464 c 128,-1,13
 938 1464 938 1464 1079.5 1356.5 c 128,-1,14
 1221 1249 1221 1249 1260 1069 c 1,15,16
 1264 1044 1264 1044 1239 1044 c 2,17,-1
 1110 1044 l 2,18,19
 1092 1044 1092 1044 1085 1065 c 0,20,21
 1046 1182 1046 1182 952 1251.5 c 128,-1,22
 858 1321 858 1321 737 1321 c 0,23,24
 430 1321 430 1321 430 1116 c 0,25,26
 430 1057 430 1057 479 983 c 128,-1,27
 528 909 528 909 578 864 c 1,28,-1
 1044 410 l 1,29,-1
 1270 655 l 2,30,31
 1284 671 1284 671 1300 655 c 1,32,-1
 1384 582 l 2,33,34
 1398 570 1398 570 1386 553 c 1,35,-1
 1157 297 l 1,36,-1
 1442 20 l 2,37,38
 1450 12 1450 12 1448 6 c 128,-1,39
 1446 0 1446 0 1438 0 c 2,40,-1
 1247 0 l 2,41,42
 1222 0 1222 0 1198 20 c 1,43,-1
 1044 174 l 1,44,45
 858 -31 858 -31 553 -31 c 0,46,47
 358 -31 358 -31 230 76.5 c 128,-1,48
 102 184 102 184 102 358 c 0,0,1
287 358 m 0,49,50
 287 243 287 243 364.5 178 c 128,-1,51
 442 113 442 113 573 113 c 0,52,53
 774 113 774 113 932 287 c 1,54,-1
 522 686 l 1,55,56
 492 674 492 674 445.5 640 c 128,-1,57
 399 606 399 606 368.5 571.5 c 128,-1,58
 338 537 338 537 312.5 479 c 128,-1,59
 287 421 287 421 287 358 c 0,49,50
EndSplineSet
EndChar

StartChar: quotesingle
Encoding: 39 39 10
Width: 389
GlyphClass: 2
Flags: W
LayerCount: 2
Fore
SplineSet
102 1413 m 1,0,1
 102 1433 102 1433 123 1434 c 1,2,-1
 266 1434 l 2,3,4
 286 1434 286 1434 287 1413 c 1,5,-1
 256 952 l 1,6,7
 256 932 256 932 236 932 c 2,8,-1
 154 932 l 2,9,10
 134 932 134 932 133 952 c 2,11,-1
 102 1413 l 1,0,1
EndSplineSet
EndChar

StartChar: parenleft
Encoding: 40 40 11
Width: 545
GlyphClass: 2
Flags: W
LayerCount: 2
Fore
SplineSet
360 1446 m 1,0,-1
 391 1485 l 2,1,2
 408 1505 408 1505 430 1505 c 2,3,-1
 524 1505 l 2,4,5
 553 1505 553 1505 541 1485 c 2,6,-1
 512 1440 l 1,7,8
 428 1277 428 1277 385 1147.5 c 128,-1,9
 342 1018 342 1018 314.5 871.5 c 128,-1,10
 287 725 287 725 287 583.5 c 128,-1,11
 287 442 287 442 313.5 298 c 128,-1,12
 340 154 340 154 377 48 c 0,13,14
 456 -178 456 -178 514 -274 c 1,15,-1
 541 -317 l 1,16,17
 552 -338 552 -338 524 -338 c 2,18,-1
 430 -338 l 2,19,20
 408 -338 408 -338 393.5 -320.5 c 128,-1,21
 379 -303 379 -303 359.5 -275.5 c 128,-1,22
 340 -248 340 -248 291 -157 c 128,-1,23
 242 -66 242 -66 203 32.5 c 128,-1,24
 164 131 164 131 133 281.5 c 128,-1,25
 102 432 102 432 102 583.5 c 128,-1,26
 102 735 102 735 132 883.5 c 128,-1,27
 162 1032 162 1032 204 1136 c 0,28,29
 283 1334 283 1334 360 1446 c 1,0,-1
EndSplineSet
EndChar

StartChar: parenright
Encoding: 41 41 12
Width: 545
GlyphClass: 2
Flags: W
LayerCount: 2
Fore
SplineSet
4 -317 m 1,0,-1
 33 -270 l 1,1,2
 49 -242 49 -242 93 -145.5 c 128,-1,3
 137 -49 137 -49 170 50.5 c 128,-1,4
 203 150 203 150 230.5 296 c 128,-1,5
 258 442 258 442 258 583.5 c 128,-1,6
 258 725 258 725 231.5 869.5 c 128,-1,7
 205 1014 205 1014 168 1120 c 0,8,9
 92 1337 92 1337 31 1442 c 1,10,-1
 4 1485 l 2,11,12
 -8 1505 -8 1505 20 1505 c 2,13,-1
 115 1505 l 2,14,15
 137 1505 137 1505 151.5 1487.5 c 128,-1,16
 166 1470 166 1470 185.5 1442.5 c 128,-1,17
 205 1415 205 1415 254 1324 c 128,-1,18
 303 1233 303 1233 342 1134.5 c 128,-1,19
 381 1036 381 1036 411.5 885.5 c 128,-1,20
 442 735 442 735 442 583.5 c 128,-1,21
 442 432 442 432 412.5 283.5 c 128,-1,22
 383 135 383 135 341 30 c 0,23,24
 260 -172 260 -172 184 -279 c 1,25,-1
 154 -317 l 2,26,27
 137 -338 137 -338 115 -338 c 2,28,-1
 20 -338 l 2,29,30
 -7 -338 -7 -338 4 -317 c 1,0,-1
EndSplineSet
EndChar

StartChar: asterisk
Encoding: 42 42 13
Width: 930
GlyphClass: 2
Flags: W
LayerCount: 2
Fore
SplineSet
88 887 m 2,0,1
 76 907 76 907 96 915 c 1,2,-1
 301 1034 l 1,3,-1
 96 1153 l 1,4,5
 80 1161 80 1161 88 1182 c 1,6,-1
 150 1286 l 2,7,8
 162 1307 162 1307 178 1294 c 1,9,-1
 383 1176 l 1,10,-1
 383 1413 l 2,11,12
 383 1434 383 1434 403 1434 c 2,13,-1
 526 1434 l 2,14,15
 547 1434 547 1434 547 1413 c 2,16,-1
 547 1176 l 1,17,-1
 752 1294 l 1,18,19
 768 1307 768 1307 780 1286 c 2,20,-1
 842 1182 l 1,21,22
 850 1161 850 1161 834 1153 c 1,23,-1
 627 1034 l 1,24,-1
 834 915 l 1,25,26
 854 907 854 907 842 887 c 2,27,-1
 780 780 l 1,28,29
 772 762 772 762 752 774 c 2,30,-1
 547 893 l 1,31,-1
 547 655 l 2,32,33
 547 635 547 635 526 635 c 2,34,-1
 403 635 l 2,35,36
 383 635 383 635 383 655 c 2,37,-1
 383 893 l 1,38,-1
 178 774 l 2,39,40
 158 762 158 762 150 780 c 1,41,-1
 88 887 l 2,0,1
EndSplineSet
EndChar

StartChar: plus
Encoding: 43 43 14
Width: 1196
GlyphClass: 2
Flags: W
LayerCount: 2
Fore
SplineSet
82 645 m 2,0,-1
 82 748 l 2,1,2
 82 768 82 768 102 768 c 2,3,-1
 526 768 l 1,4,-1
 526 1192 l 2,5,6
 526 1212 526 1212 547 1212 c 2,7,-1
 649 1212 l 2,8,9
 669 1212 669 1212 670 1192 c 1,10,-1
 670 768 l 1,11,-1
 1094 768 l 2,12,13
 1114 768 1114 768 1114 748 c 2,14,-1
 1114 645 l 2,15,16
 1114 625 1114 625 1094 625 c 2,17,-1
 670 625 l 1,18,-1
 670 201 l 2,19,20
 670 181 670 181 649 180 c 1,21,-1
 547 180 l 2,22,23
 527 180 527 180 526 201 c 1,24,-1
 526 625 l 1,25,-1
 102 625 l 2,26,27
 82 625 82 625 82 645 c 2,0,-1
EndSplineSet
EndChar

StartChar: comma
Encoding: 44 44 15
Width: 502
GlyphClass: 2
Flags: W
LayerCount: 2
Fore
SplineSet
143 164 m 2,0,1
 143 205 143 205 184 205 c 2,2,-1
 317 205 l 2,3,4
 340 205 340 205 349 195.5 c 128,-1,5
 358 186 358 186 358 164 c 2,6,-1
 358 41 l 2,7,8
 358 4 358 4 338 -31 c 2,9,-1
 225 -225 l 1,10,-1
 143 -225 l 1,11,-1
 238 -10 l 1,12,-1
 184 -10 l 2,13,14
 162 -10 162 -10 152.5 -1 c 128,-1,15
 143 8 143 8 143 31 c 2,16,-1
 143 164 l 2,0,1
EndSplineSet
EndChar

StartChar: hyphen
Encoding: 45 45 16
Width: 1032
GlyphClass: 2
Flags: W
LayerCount: 2
Fore
SplineSet
82 604 m 2,0,-1
 82 707 l 2,1,2
 82 727 82 727 102 727 c 2,3,-1
 930 727 l 2,4,5
 950 727 950 727 950 707 c 2,6,-1
 950 604 l 2,7,8
 950 584 950 584 930 584 c 2,9,-1
 102 584 l 2,10,11
 82 584 82 584 82 604 c 2,0,-1
EndSplineSet
EndChar

StartChar: period
Encoding: 46 46 17
Width: 502
GlyphClass: 2
Flags: W
LayerCount: 2
Fore
SplineSet
143 164 m 2,0,1
 143 205 143 205 184 205 c 2,2,-1
 317 205 l 2,3,4
 340 205 340 205 349 195.5 c 128,-1,5
 358 186 358 186 358 164 c 2,6,-1
 358 31 l 2,7,8
 358 8 358 8 349 -1 c 128,-1,9
 340 -10 340 -10 317 -10 c 2,10,-1
 184 -10 l 2,11,12
 162 -10 162 -10 152.5 -1 c 128,-1,13
 143 8 143 8 143 31 c 2,14,-1
 143 164 l 2,0,1
EndSplineSet
EndChar

StartChar: slash
Encoding: 47 47 18
Width: 879
GlyphClass: 2
Flags: W
LayerCount: 2
Fore
SplineSet
45 20 m 1,0,-1
 649 1413 l 2,1,2
 659 1434 659 1434 680 1434 c 2,3,-1
 823 1434 l 2,4,5
 844 1434 844 1434 834 1413 c 2,6,-1
 229 20 l 1,7,8
 219 0 219 0 199 0 c 2,9,-1
 55 0 l 2,10,11
 35 0 35 0 45 20 c 1,0,-1
EndSplineSet
EndChar

StartChar: zero
Encoding: 48 48 19
Width: 1434
GlyphClass: 2
Flags: W
LayerCount: 2
Fore
SplineSet
717 -31 m 128,-1,1
 449 -31 449 -31 286 165.5 c 128,-1,2
 123 362 123 362 123 716.5 c 128,-1,3
 123 1071 123 1071 286 1267.5 c 128,-1,4
 449 1464 449 1464 717 1464 c 128,-1,5
 985 1464 985 1464 1148 1267.5 c 128,-1,6
 1311 1071 1311 1071 1311 716.5 c 128,-1,7
 1311 362 1311 362 1148 165.5 c 128,-1,0
 985 -31 985 -31 717 -31 c 128,-1,1
717 1321 m 128,-1,9
 537 1321 537 1321 422 1168.5 c 128,-1,10
 307 1016 307 1016 307 717 c 128,-1,11
 307 418 307 418 422 265.5 c 128,-1,12
 537 113 537 113 717 113 c 128,-1,13
 897 113 897 113 1011.5 265.5 c 128,-1,14
 1126 418 1126 418 1126 717 c 128,-1,15
 1126 1016 1126 1016 1011.5 1168.5 c 128,-1,8
 897 1321 897 1321 717 1321 c 128,-1,9
EndSplineSet
EndChar

StartChar: one
Encoding: 49 49 20
Width: 766
GlyphClass: 2
Flags: W
LayerCount: 2
Fore
SplineSet
27 1108 m 2,0,1
 16 1124 16 1124 31 1137 c 1,2,-1
 336 1372 l 2,3,4
 340 1374 340 1374 358.5 1389.5 c 128,-1,5
 377 1405 377 1405 383 1409 c 2,6,-1
 403 1419 l 2,7,8
 435 1434 435 1434 459 1434 c 2,9,-1
 541 1434 l 2,10,11
 561 1434 561 1434 561 1413 c 2,12,-1
 561 20 l 2,13,14
 561 0 561 0 541 0 c 2,15,-1
 397 0 l 2,16,17
 377 0 377 0 377 20 c 2,18,-1
 377 1198 l 1,19,-1
 119 1020 l 2,20,21
 100 1008 100 1008 90 1024 c 1,22,-1
 27 1108 l 2,0,1
EndSplineSet
EndChar

StartChar: two
Encoding: 50 50 21
Width: 1290
GlyphClass: 2
Flags: W
LayerCount: 2
Fore
SplineSet
84 1069 m 1,0,1
 123 1253 123 1253 271.5 1358.5 c 128,-1,2
 420 1464 420 1464 660.5 1464 c 128,-1,3
 901 1464 901 1464 1040.5 1352.5 c 128,-1,4
 1180 1241 1180 1241 1180 1034 c 0,5,6
 1180 895 1180 895 1090.5 786.5 c 128,-1,7
 1001 678 1001 678 874 608 c 1,8,-1
 618 474 l 1,9,10
 309 319 309 319 299 143 c 1,11,-1
 1167 143 l 2,12,13
 1187 143 1187 143 1188 123 c 1,14,-1
 1188 20 l 2,15,16
 1188 0 1188 0 1167 0 c 2,17,-1
 135 0 l 2,18,19
 115 0 115 0 115 20 c 2,20,-1
 115 113 l 2,21,22
 115 219 115 219 163 307 c 128,-1,23
 211 395 211 395 289 456.5 c 128,-1,24
 367 518 367 518 461 572 c 1,25,-1
 649 676 l 1,26,27
 743 725 743 725 821 776 c 128,-1,28
 899 827 899 827 947 896 c 128,-1,29
 995 965 995 965 995 1044 c 0,30,31
 995 1179 995 1179 903 1250 c 128,-1,32
 811 1321 811 1321 654 1321 c 128,-1,33
 497 1321 497 1321 397 1252.5 c 128,-1,34
 297 1184 297 1184 258 1065 c 0,35,36
 252 1045 252 1045 233 1044 c 1,37,-1
 104 1044 l 2,38,39
 80 1044 80 1044 84 1069 c 1,0,1
EndSplineSet
EndChar

StartChar: three
Encoding: 51 51 22
Width: 1335
GlyphClass: 2
Flags: W
LayerCount: 2
Fore
SplineSet
104 365 m 1,0,1
 100 390 100 390 125 389 c 1,2,-1
 254 389 l 2,3,4
 272 389 272 389 279 369 c 0,5,6
 318 250 318 250 418 181.5 c 128,-1,7
 518 113 518 113 678 113 c 128,-1,8
 838 113 838 113 933 181.5 c 128,-1,9
 1028 250 1028 250 1028 380 c 128,-1,10
 1028 510 1028 510 938 582.5 c 128,-1,11
 848 655 848 655 680 655 c 2,12,-1
 496 655 l 2,13,14
 476 655 476 655 475 676 c 1,15,-1
 475 778 l 2,16,17
 475 798 475 798 496 799 c 1,18,-1
 670 799 l 2,19,20
 817 799 817 799 902 866.5 c 128,-1,21
 987 934 987 934 987 1059 c 128,-1,22
 987 1184 987 1184 896 1252.5 c 128,-1,23
 805 1321 805 1321 659.5 1321 c 128,-1,24
 514 1321 514 1321 416.5 1251.5 c 128,-1,25
 319 1182 319 1182 281 1065 c 0,26,27
 275 1045 275 1045 256 1044 c 1,28,-1
 127 1044 l 2,29,30
 102 1044 102 1044 106 1069 c 1,31,32
 145 1251 145 1251 290.5 1357.5 c 128,-1,33
 436 1464 436 1464 665.5 1464 c 128,-1,34
 895 1464 895 1464 1033 1355.5 c 128,-1,35
 1171 1247 1171 1247 1171 1055 c 0,36,37
 1171 938 1171 938 1107.5 852 c 128,-1,38
 1044 766 1044 766 913 737 c 1,39,40
 1060 708 1060 708 1136 612 c 128,-1,41
 1212 516 1212 516 1212 379 c 0,42,43
 1212 186 1212 186 1070 77.5 c 128,-1,44
 928 -31 928 -31 684.5 -31 c 128,-1,45
 441 -31 441 -31 292 75 c 128,-1,46
 143 181 143 181 104 365 c 1,0,1
EndSplineSet
EndChar

StartChar: four
Encoding: 52 52 23
Width: 1319
GlyphClass: 2
Flags: W
LayerCount: 2
Fore
SplineSet
41 328 m 2,0,-1
 41 430 l 2,1,2
 41 475 41 475 102 553 c 1,3,-1
 768 1372 l 1,4,5
 817 1434 817 1434 870 1434 c 2,6,-1
 1014 1434 l 2,7,8
 1034 1434 1034 1434 1034 1413 c 2,9,-1
 1034 451 l 1,10,-1
 1237 451 l 2,11,12
 1257 451 1257 451 1257 430 c 2,13,-1
 1257 328 l 2,14,15
 1257 307 1257 307 1237 307 c 2,16,-1
 1034 307 l 1,17,-1
 1034 20 l 2,18,19
 1034 0 1034 0 1014 0 c 2,20,-1
 870 0 l 2,21,22
 850 0 850 0 850 20 c 2,23,-1
 850 307 l 1,24,-1
 61 307 l 2,25,26
 41 307 41 307 41 328 c 2,0,-1
225 451 m 1,27,-1
 850 451 l 1,28,-1
 850 1219 l 1,29,-1
 225 451 l 1,27,-1
EndSplineSet
EndChar

StartChar: five
Encoding: 53 53 24
Width: 1384
GlyphClass: 2
Flags: W
LayerCount: 2
Fore
SplineSet
166 365 m 1,0,1
 162 390 162 390 186 389 c 1,2,-1
 315 389 l 2,3,4
 333 389 333 389 340 369 c 0,5,6
 379 252 379 252 476 182.5 c 128,-1,7
 573 113 573 113 730 113 c 128,-1,8
 887 113 887 113 982 197 c 128,-1,9
 1077 281 1077 281 1077 441.5 c 128,-1,10
 1077 602 1077 602 980 685 c 128,-1,11
 883 768 883 768 698 768 c 0,12,13
 583 768 583 768 442 705 c 1,14,15
 370 676 370 676 330 676 c 2,16,-1
 227 676 l 2,17,18
 207 676 207 676 207 696 c 2,19,-1
 207 1413 l 2,20,21
 207 1433 207 1433 227 1434 c 1,22,-1
 1167 1434 l 2,23,24
 1187 1434 1187 1434 1188 1413 c 1,25,-1
 1188 1311 l 2,26,27
 1188 1291 1188 1291 1167 1290 c 1,28,-1
 391 1290 l 1,29,-1
 391 840 l 1,30,31
 534 912 534 912 709 911 c 1,32,33
 975 911 975 911 1118.5 788.5 c 128,-1,34
 1262 666 1262 666 1262 440.5 c 128,-1,35
 1262 215 1262 215 1118.5 92 c 128,-1,36
 975 -31 975 -31 709 -31 c 0,37,38
 496 -31 496 -31 350.5 76 c 128,-1,39
 205 183 205 183 166 365 c 1,0,1
EndSplineSet
EndChar

StartChar: six
Encoding: 54 54 25
Width: 1331
GlyphClass: 2
Flags: W
LayerCount: 2
Fore
SplineSet
123 502 m 2,0,-1
 123 952 l 2,1,2
 123 1190 123 1190 270.5 1327 c 128,-1,3
 418 1464 418 1464 666 1464 c 0,4,5
 869 1464 869 1464 1010 1366 c 128,-1,6
 1151 1268 1151 1268 1188 1090 c 1,7,8
 1192 1065 1192 1065 1167 1065 c 2,9,-1
 1038 1065 l 2,10,11
 1020 1065 1020 1065 1014 1085 c 0,12,13
 977 1198 977 1198 884 1259.5 c 128,-1,14
 791 1321 791 1321 649.5 1321 c 128,-1,15
 508 1321 508 1321 407.5 1222.5 c 128,-1,16
 307 1124 307 1124 307 952 c 2,17,-1
 307 788 l 1,18,19
 321 804 321 804 348 828 c 128,-1,20
 375 852 375 852 471 892 c 128,-1,21
 567 932 567 932 676 932 c 0,22,23
 918 932 918 932 1063 805 c 128,-1,24
 1208 678 1208 678 1208 450.5 c 128,-1,25
 1208 223 1208 223 1063 96 c 128,-1,26
 918 -31 918 -31 675 -31 c 128,-1,27
 432 -31 432 -31 277.5 111.5 c 128,-1,28
 123 254 123 254 123 502 c 2,0,-1
411.5 700 m 128,-1,30
 307 612 307 612 307 459.5 c 128,-1,31
 307 307 307 307 410.5 210 c 128,-1,32
 514 113 514 113 670 113 c 128,-1,33
 826 113 826 113 925 200 c 128,-1,34
 1024 287 1024 287 1024 450.5 c 128,-1,35
 1024 614 1024 614 924.5 701 c 128,-1,36
 825 788 825 788 670.5 788 c 128,-1,29
 516 788 516 788 411.5 700 c 128,-1,30
EndSplineSet
EndChar

StartChar: seven
Encoding: 55 55 26
Width: 1094
GlyphClass: 2
Flags: W
LayerCount: 2
Fore
SplineSet
20 1311 m 2,0,-1
 20 1413 l 2,1,2
 20 1434 20 1434 41 1434 c 2,3,-1
 1032 1434 l 2,4,5
 1053 1434 1053 1434 1053 1413 c 2,6,-1
 1053 1321 l 2,7,8
 1053 1280 1053 1280 1024 1208 c 1,9,-1
 481 20 l 2,10,11
 471 0 471 0 451 0 c 2,12,-1
 307 0 l 2,13,14
 287 0 287 0 297 20 c 2,15,-1
 877 1290 l 1,16,-1
 41 1290 l 2,17,18
 20 1290 20 1290 20 1311 c 2,0,-1
EndSplineSet
EndChar

StartChar: eight
Encoding: 56 56 27
Width: 1372
GlyphClass: 2
Flags: W
LayerCount: 2
Fore
SplineSet
123 379 m 0,0,1
 123 510 123 510 203 608.5 c 128,-1,2
 283 707 283 707 420 737 c 1,3,4
 289 766 289 766 226.5 852 c 128,-1,5
 164 938 164 938 164 1055 c 0,6,7
 164 1250 164 1250 299 1357 c 128,-1,8
 434 1464 434 1464 686 1464 c 128,-1,9
 938 1464 938 1464 1073 1356.5 c 128,-1,10
 1208 1249 1208 1249 1208 1055 c 0,11,12
 1208 938 1208 938 1145.5 852 c 128,-1,13
 1083 766 1083 766 952 737 c 1,14,15
 1089 706 1089 706 1169 608 c 128,-1,16
 1249 510 1249 510 1249 379 c 0,17,18
 1249 184 1249 184 1105 76.5 c 128,-1,19
 961 -31 961 -31 686.5 -31 c 128,-1,20
 412 -31 412 -31 267.5 76.5 c 128,-1,21
 123 184 123 184 123 379 c 0,0,1
402.5 583.5 m 128,-1,23
 307 512 307 512 307 380 c 128,-1,24
 307 248 307 248 404.5 180.5 c 128,-1,25
 502 113 502 113 686 113 c 128,-1,26
 870 113 870 113 967.5 180.5 c 128,-1,27
 1065 248 1065 248 1065 380 c 128,-1,28
 1065 512 1065 512 969.5 583.5 c 128,-1,29
 874 655 874 655 686 655 c 128,-1,22
 498 655 498 655 402.5 583.5 c 128,-1,23
436 1252.5 m 128,-1,31
 348 1184 348 1184 348 1058 c 128,-1,32
 348 932 348 932 436 865.5 c 128,-1,33
 524 799 524 799 686 799 c 128,-1,34
 848 799 848 799 936 865.5 c 128,-1,35
 1024 932 1024 932 1024 1058 c 128,-1,36
 1024 1184 1024 1184 936 1252.5 c 128,-1,37
 848 1321 848 1321 686 1321 c 128,-1,30
 524 1321 524 1321 436 1252.5 c 128,-1,31
EndSplineSet
EndChar

StartChar: nine
Encoding: 57 57 28
Width: 1331
GlyphClass: 2
Flags: W
LayerCount: 2
Fore
SplineSet
123 983 m 128,-1,1
 123 1210 123 1210 268.5 1337 c 128,-1,2
 414 1464 414 1464 656.5 1464 c 128,-1,3
 899 1464 899 1464 1053.5 1322 c 128,-1,4
 1208 1180 1208 1180 1208 932 c 2,5,-1
 1208 481 l 2,6,7
 1208 243 1208 243 1060.5 106 c 128,-1,8
 913 -31 913 -31 666 -31 c 0,9,10
 463 -31 463 -31 321.5 67.5 c 128,-1,11
 180 166 180 166 143 344 c 1,12,13
 139 369 139 369 164 369 c 2,14,-1
 293 369 l 2,15,16
 311 369 311 369 317 348 c 0,17,18
 354 235 354 235 447.5 174 c 128,-1,19
 541 113 541 113 682.5 113 c 128,-1,20
 824 113 824 113 924 211 c 128,-1,21
 1024 309 1024 309 1024 481 c 2,22,-1
 1024 645 l 1,23,24
 1010 629 1010 629 983 605.5 c 128,-1,25
 956 582 956 582 860 542 c 128,-1,26
 764 502 764 502 655 502 c 0,27,28
 413 502 413 502 268 629 c 128,-1,0
 123 756 123 756 123 983 c 128,-1,1
307 983 m 128,-1,30
 307 819 307 819 406.5 732 c 128,-1,31
 506 645 506 645 661 645 c 128,-1,32
 816 645 816 645 920 733 c 128,-1,33
 1024 821 1024 821 1024 974 c 128,-1,34
 1024 1127 1024 1127 920.5 1224 c 128,-1,35
 817 1321 817 1321 661.5 1321 c 128,-1,36
 506 1321 506 1321 406.5 1234 c 128,-1,29
 307 1147 307 1147 307 983 c 128,-1,30
EndSplineSet
EndChar

StartChar: colon
Encoding: 58 58 29
Width: 502
GlyphClass: 2
Flags: W
LayerCount: 2
Fore
SplineSet
143 164 m 2,0,1
 143 205 143 205 184 205 c 2,2,-1
 317 205 l 2,3,4
 340 205 340 205 349 195.5 c 128,-1,5
 358 186 358 186 358 164 c 2,6,-1
 358 31 l 2,7,8
 358 8 358 8 349 -1 c 128,-1,9
 340 -10 340 -10 317 -10 c 2,10,-1
 184 -10 l 2,11,12
 162 -10 162 -10 152.5 -1 c 128,-1,13
 143 8 143 8 143 31 c 2,14,-1
 143 164 l 2,0,1
143 1065 m 2,15,16
 143 1106 143 1106 184 1106 c 2,17,-1
 317 1106 l 2,18,19
 340 1106 340 1106 349 1096.5 c 128,-1,20
 358 1087 358 1087 358 1065 c 2,21,-1
 358 932 l 2,22,23
 358 909 358 909 349 900 c 128,-1,24
 340 891 340 891 317 891 c 2,25,-1
 184 891 l 2,26,27
 162 891 162 891 152.5 900 c 128,-1,28
 143 909 143 909 143 932 c 2,29,-1
 143 1065 l 2,15,16
EndSplineSet
EndChar

StartChar: semicolon
Encoding: 59 59 30
Width: 502
GlyphClass: 2
Flags: W
LayerCount: 2
Fore
SplineSet
143 164 m 2,0,1
 143 205 143 205 184 205 c 2,2,-1
 317 205 l 2,3,4
 340 205 340 205 349 195.5 c 128,-1,5
 358 186 358 186 358 164 c 2,6,-1
 358 41 l 2,7,8
 358 4 358 4 338 -31 c 2,9,-1
 225 -225 l 1,10,-1
 143 -225 l 1,11,-1
 238 -10 l 1,12,-1
 184 -10 l 2,13,14
 162 -10 162 -10 152.5 -1 c 128,-1,15
 143 8 143 8 143 31 c 2,16,-1
 143 164 l 2,0,1
143 1065 m 2,17,18
 143 1106 143 1106 184 1106 c 2,19,-1
 317 1106 l 2,20,21
 340 1106 340 1106 349 1096.5 c 128,-1,22
 358 1087 358 1087 358 1065 c 2,23,-1
 358 932 l 2,24,25
 358 909 358 909 349 900 c 128,-1,26
 340 891 340 891 317 891 c 2,27,-1
 184 891 l 2,28,29
 162 891 162 891 152.5 900 c 128,-1,30
 143 909 143 909 143 932 c 2,31,-1
 143 1065 l 2,17,18
EndSplineSet
EndChar

StartChar: less
Encoding: 60 60 31
Width: 1075
GlyphClass: 2
Flags: W
LayerCount: 2
Fore
SplineSet
41 502 m 2,0,-1
 41 563 l 2,1,2
 41 631 41 631 102 655 c 1,3,-1
 952 1014 l 1,4,5
 972 1020 972 1020 973 1004 c 1,6,-1
 973 870 l 2,7,8
 973 845 973 845 952 840 c 1,9,-1
 225 532 l 1,10,-1
 952 225 l 1,11,12
 972 219 972 219 973 195 c 1,13,-1
 973 61 l 2,14,15
 973 45 973 45 952 51 c 1,16,-1
 102 410 l 2,17,18
 41 436 41 436 41 502 c 2,0,-1
EndSplineSet
EndChar

StartChar: equal
Encoding: 61 61 32
Width: 1032
GlyphClass: 2
Flags: W
LayerCount: 2
Fore
SplineSet
82 420 m 2,0,-1
 82 522 l 2,1,2
 82 542 82 542 102 543 c 1,3,-1
 930 543 l 2,4,5
 950 543 950 543 950 522 c 2,6,-1
 950 420 l 2,7,8
 950 400 950 400 930 399 c 1,9,-1
 102 399 l 1,10,11
 82 400 82 400 82 420 c 2,0,-1
82 788 m 2,12,-1
 82 891 l 2,13,14
 82 911 82 911 102 911 c 2,15,-1
 930 911 l 2,16,17
 950 911 950 911 950 891 c 2,18,-1
 950 788 l 2,19,20
 950 768 950 768 930 768 c 2,21,-1
 102 768 l 2,22,23
 82 768 82 768 82 788 c 2,12,-1
EndSplineSet
EndChar

StartChar: greater
Encoding: 62 62 33
Width: 1075
GlyphClass: 2
Flags: W
LayerCount: 2
Fore
SplineSet
102 61 m 2,0,-1
 102 195 l 2,1,2
 102 220 102 220 123 225 c 1,3,-1
 850 532 l 1,4,-1
 123 840 l 1,5,6
 103 846 103 846 102 870 c 1,7,-1
 102 1004 l 2,8,9
 102 1020 102 1020 123 1014 c 1,10,-1
 973 655 l 2,11,12
 1034 630 1034 630 1034 563 c 2,13,-1
 1034 502 l 2,14,15
 1034 436 1034 436 973 410 c 2,16,-1
 123 51 l 1,17,18
 102 45 102 45 102 61 c 2,0,-1
EndSplineSet
EndChar

StartChar: question
Encoding: 63 63 34
Width: 1221
GlyphClass: 2
Flags: W
LayerCount: 2
Fore
SplineSet
43 1069 m 1,0,1
 82 1253 82 1253 230.5 1358.5 c 128,-1,2
 379 1464 379 1464 619.5 1464 c 128,-1,3
 860 1464 860 1464 999.5 1352.5 c 128,-1,4
 1139 1241 1139 1241 1139 1034 c 0,5,6
 1139 946 1139 946 1104 872.5 c 128,-1,7
 1069 799 1069 799 1017 754 c 128,-1,8
 965 709 965 709 903.5 663.5 c 128,-1,9
 842 618 842 618 790 584 c 0,10,11
 668 507 668 507 668 399 c 2,12,-1
 668 379 l 2,13,14
 668 358 668 358 647 358 c 2,15,-1
 504 358 l 2,16,17
 483 358 483 358 483 379 c 2,18,-1
 483 399 l 2,19,20
 483 492 483 492 531.5 564.5 c 128,-1,21
 580 637 580 637 649 684 c 2,22,-1
 788 780 l 1,23,24
 858 827 858 827 906 894 c 128,-1,25
 954 961 954 961 954 1044 c 0,26,27
 954 1180 954 1180 862 1250.5 c 128,-1,28
 770 1321 770 1321 613.5 1321 c 128,-1,29
 457 1321 457 1321 356.5 1252.5 c 128,-1,30
 256 1184 256 1184 217 1065 c 0,31,32
 211 1044 211 1044 193 1044 c 2,33,-1
 63 1044 l 2,34,35
 39 1044 39 1044 43 1069 c 1,0,1
467 31 m 2,36,-1
 467 164 l 2,37,38
 467 186 467 186 476 195.5 c 128,-1,39
 485 205 485 205 508 205 c 2,40,-1
 641 205 l 2,41,42
 664 205 664 205 673 195.5 c 128,-1,43
 682 186 682 186 682 164 c 2,44,-1
 682 31 l 2,45,46
 682 8 682 8 673 -1 c 128,-1,47
 664 -10 664 -10 641 -10 c 2,48,-1
 508 -10 l 2,49,50
 485 -10 485 -10 476 -1 c 128,-1,51
 467 8 467 8 467 31 c 2,36,-1
EndSplineSet
EndChar

StartChar: at
Encoding: 64 64 35
Width: 1720
GlyphClass: 2
Flags: W
LayerCount: 2
Fore
SplineSet
102 716.5 m 128,-1,1
 102 1044 102 1044 318.5 1254 c 128,-1,2
 535 1464 535 1464 861.5 1464 c 128,-1,3
 1188 1464 1188 1464 1403 1247 c 128,-1,4
 1618 1030 1618 1030 1618 676 c 0,5,6
 1618 465 1618 465 1543 360.5 c 128,-1,7
 1468 256 1468 256 1352 256 c 0,8,9
 1186 256 1186 256 1124 379 c 1,10,-1
 1116 399 l 1,11,12
 1056 309 1056 309 929 272 c 0,13,14
 877 256 877 256 819 256 c 0,15,16
 647 256 647 256 554 331 c 128,-1,17
 461 406 461 406 461 532.5 c 128,-1,18
 461 659 461 659 554 734 c 128,-1,19
 647 809 647 809 819 809 c 2,20,-1
 1085 809 l 1,21,22
 1085 928 1085 928 1020.5 996.5 c 128,-1,23
 956 1065 956 1065 860 1065 c 0,24,25
 710 1065 710 1065 635 932 c 1,26,27
 625 912 625 912 610 911 c 1,28,-1
 502 911 l 2,29,30
 475 911 475 911 481 936 c 1,31,32
 565 1198 565 1198 860 1198 c 0,33,34
 1030 1198 1030 1198 1139.5 1090.5 c 128,-1,35
 1249 983 1249 983 1249 809 c 2,36,-1
 1249 553 l 2,37,38
 1249 389 1249 389 1352 389 c 0,39,40
 1399 389 1399 389 1431.5 455.5 c 128,-1,41
 1464 522 1464 522 1464 676 c 0,42,43
 1464 979 1464 979 1298.5 1155 c 128,-1,44
 1133 1331 1133 1331 861.5 1331 c 128,-1,45
 590 1331 590 1331 423 1162 c 128,-1,46
 256 993 256 993 256 716.5 c 128,-1,47
 256 440 256 440 423 271 c 128,-1,48
 590 102 590 102 860 102 c 0,49,50
 983 102 983 102 1085 143 c 1,51,52
 1106 147 1106 147 1106 123 c 2,53,-1
 1106 31 l 2,54,55
 1106 6 1106 6 1085 0 c 1,56,57
 993 -31 993 -31 860 -31 c 0,58,59
 534 -31 534 -31 318 179 c 128,-1,0
 102 389 102 389 102 716.5 c 128,-1,1
625 532.5 m 128,-1,61
 625 467 625 467 674 428 c 128,-1,62
 723 389 723 389 798.5 389 c 128,-1,63
 874 389 874 389 921.5 405.5 c 128,-1,64
 969 422 969 422 997.5 445.5 c 128,-1,65
 1026 469 1026 469 1048 494 c 1,66,67
 1085 539 1085 539 1085 553 c 2,68,-1
 1085 676 l 1,69,-1
 819 676 l 2,70,71
 723 676 723 676 674 637 c 128,-1,60
 625 598 625 598 625 532.5 c 128,-1,61
EndSplineSet
EndChar

StartChar: A
Encoding: 65 65 36
Width: 1458
GlyphClass: 2
Flags: W
LayerCount: 2
Fore
SplineSet
63 20 m 2,0,-1
 606 1372 l 2,1,2
 631 1433 631 1433 698 1434 c 1,3,-1
 760 1434 l 2,4,5
 828 1434 828 1434 852 1372 c 2,6,-1
 1395 20 l 2,7,8
 1398 14 1398 14 1398 11 c 0,9,10
 1398 0 1398 0 1378 0 c 2,11,-1
 1231 0 l 2,12,13
 1211 0 1211 0 1200 20 c 1,14,-1
 1057 369 l 1,15,-1
 401 369 l 1,16,-1
 258 20 l 1,17,18
 248 0 248 0 227 0 c 2,19,-1
 80 0 l 2,20,21
 61 0 61 0 61 11 c 1,22,23
 60 14 60 14 63 20 c 2,0,-1
453 512 m 1,24,-1
 1006 512 l 1,25,-1
 729 1198 l 1,26,-1
 453 512 l 1,24,-1
EndSplineSet
EndChar

StartChar: B
Encoding: 66 66 37
Width: 1485
GlyphClass: 2
Flags: W
LayerCount: 2
Fore
SplineSet
205 20 m 2,0,-1
 205 1413 l 2,1,2
 205 1434 205 1434 225 1434 c 2,3,-1
 768 1434 l 2,4,5
 1018 1434 1018 1434 1149 1332.5 c 128,-1,6
 1280 1231 1280 1231 1280 1044 c 0,7,8
 1280 936 1280 936 1218.5 851 c 128,-1,9
 1157 766 1157 766 1034 737 c 1,10,11
 1202 709 1202 709 1282 616.5 c 128,-1,12
 1362 524 1362 524 1362 399 c 0,13,14
 1362 207 1362 207 1232 103.5 c 128,-1,15
 1102 0 1102 0 850 0 c 2,16,-1
 225 0 l 2,17,18
 205 0 205 0 205 20 c 2,0,-1
1178 399 m 128,-1,20
 1178 655 1178 655 850 655 c 2,21,-1
 389 655 l 1,22,-1
 389 143 l 1,23,-1
 850 143 l 2,24,19
 1178 143 1178 143 1178 399 c 128,-1,20
389 799 m 1,25,-1
 788 799 l 2,26,27
 930 799 930 799 1013 861.5 c 128,-1,28
 1096 924 1096 924 1096 1044.5 c 128,-1,29
 1096 1165 1096 1165 1010 1227.5 c 128,-1,30
 924 1290 924 1290 768 1290 c 2,31,-1
 389 1290 l 1,32,-1
 389 799 l 1,25,-1
EndSplineSet
EndChar

StartChar: C
Encoding: 67 67 38
Width: 1507
GlyphClass: 2
Flags: W
LayerCount: 2
Fore
SplineSet
310.5 167 m 128,-1,1
 123 365 123 365 123 716 c 128,-1,2
 123 1067 123 1067 309.5 1265.5 c 128,-1,3
 496 1464 496 1464 788 1464 c 0,4,5
 1040 1464 1040 1464 1197 1355.5 c 128,-1,6
 1354 1247 1354 1247 1393 1049 c 0,7,8
 1397 1024 1397 1024 1372 1024 c 2,9,-1
 1243 1024 l 2,10,11
 1225 1024 1225 1024 1219 1044 c 0,12,13
 1133 1320 1133 1320 788 1321 c 0,14,15
 581 1321 581 1321 444 1168.5 c 128,-1,16
 307 1016 307 1016 307 717 c 128,-1,17
 307 418 307 418 445.5 265.5 c 128,-1,18
 584 113 584 113 799 113 c 0,19,20
 1143 113 1143 113 1229 389 c 0,21,22
 1235 409 1235 409 1253 410 c 1,23,-1
 1382 410 l 2,24,25
 1403 410 1403 410 1403 392 c 0,26,27
 1403 303 1403 303 1344 218 c 0,28,29
 1173 -31 1173 -31 799 -31 c 0,30,0
 498 -31 498 -31 310.5 167 c 128,-1,1
EndSplineSet
EndChar

StartChar: D
Encoding: 68 68 39
Width: 1505
GlyphClass: 2
Flags: W
LayerCount: 2
Fore
SplineSet
205 20 m 2,0,-1
 205 1413 l 2,1,2
 205 1433 205 1433 225 1434 c 1,3,-1
 696 1434 l 2,4,5
 1015 1434 1015 1434 1209 1242.5 c 128,-1,6
 1403 1051 1403 1051 1403 717 c 128,-1,7
 1403 383 1403 383 1209.5 191.5 c 128,-1,8
 1016 0 1016 0 696 0 c 2,9,-1
 225 0 l 2,10,11
 205 0 205 0 205 20 c 2,0,-1
389 143 m 1,12,-1
 696 143 l 2,13,14
 929 143 929 143 1074 289.5 c 128,-1,15
 1219 436 1219 436 1219 716.5 c 128,-1,16
 1219 997 1219 997 1074.5 1143.5 c 128,-1,17
 930 1290 930 1290 696 1290 c 2,18,-1
 389 1290 l 1,19,-1
 389 143 l 1,12,-1
EndSplineSet
EndChar

StartChar: E
Encoding: 69 69 40
Width: 1319
GlyphClass: 2
Flags: W
LayerCount: 2
Fore
SplineSet
205 20 m 2,0,-1
 205 1413 l 2,1,2
 205 1434 205 1434 225 1434 c 2,3,-1
 1217 1434 l 2,4,5
 1237 1434 1237 1434 1237 1413 c 2,6,-1
 1237 1311 l 2,7,8
 1237 1290 1237 1290 1217 1290 c 2,9,-1
 389 1290 l 1,10,-1
 389 799 l 1,11,-1
 1073 799 l 2,12,13
 1094 799 1094 799 1094 778 c 2,14,-1
 1094 676 l 2,15,16
 1094 655 1094 655 1073 655 c 2,17,-1
 389 655 l 1,18,-1
 389 143 l 1,19,-1
 1217 143 l 2,20,21
 1237 143 1237 143 1237 123 c 2,22,-1
 1237 20 l 2,23,24
 1237 0 1237 0 1217 0 c 2,25,-1
 225 0 l 2,26,27
 205 0 205 0 205 20 c 2,0,-1
EndSplineSet
EndChar

StartChar: F
Encoding: 70 70 41
Width: 1298
GlyphClass: 2
Flags: W
LayerCount: 2
Fore
SplineSet
205 20 m 2,0,-1
 205 1413 l 2,1,2
 205 1433 205 1433 225 1434 c 1,3,-1
 1217 1434 l 2,4,5
 1237 1434 1237 1434 1237 1413 c 2,6,-1
 1237 1311 l 2,7,8
 1237 1291 1237 1291 1217 1290 c 1,9,-1
 389 1290 l 1,10,-1
 389 758 l 1,11,-1
 1073 758 l 2,12,13
 1093 758 1093 758 1094 737 c 1,14,-1
 1094 635 l 2,15,16
 1094 615 1094 615 1073 614 c 1,17,-1
 389 614 l 1,18,-1
 389 20 l 2,19,20
 389 0 389 0 369 0 c 2,21,-1
 225 0 l 2,22,23
 205 0 205 0 205 20 c 2,0,-1
EndSplineSet
EndChar

StartChar: G
Encoding: 71 71 42
Width: 1577
GlyphClass: 2
Flags: W
LayerCount: 2
Fore
SplineSet
788 1464 m 0,0,1
 1040 1464 1040 1464 1197 1355.5 c 128,-1,2
 1354 1247 1354 1247 1393 1049 c 0,3,4
 1397 1024 1397 1024 1372 1024 c 2,5,-1
 1243 1024 l 2,6,7
 1225 1024 1225 1024 1219 1044 c 0,8,9
 1133 1321 1133 1321 788 1321 c 0,10,11
 582 1321 582 1321 444.5 1168.5 c 128,-1,12
 307 1016 307 1016 307 718 c 128,-1,13
 307 420 307 420 442.5 266.5 c 128,-1,14
 578 113 578 113 776.5 113 c 128,-1,15
 975 113 975 113 1102 241 c 128,-1,16
 1229 369 1229 369 1229 573 c 2,17,-1
 1229 594 l 1,18,-1
 811 594 l 2,19,20
 791 594 791 594 791 614 c 2,21,-1
 791 717 l 2,22,23
 791 737 791 737 811 737 c 2,24,-1
 1393 737 l 2,25,26
 1413 737 1413 737 1413 717 c 2,27,-1
 1413 20 l 2,28,29
 1413 0 1413 0 1393 0 c 2,30,-1
 1280 0 l 2,31,32
 1262 0 1262 0 1260 20 c 2,33,-1
 1239 205 l 1,34,35
 1218 170 1218 170 1174 126 c 128,-1,36
 1130 82 1130 82 1082 51 c 128,-1,37
 1034 20 1034 20 952 -5.5 c 128,-1,38
 870 -31 870 -31 778 -31 c 0,39,40
 492 -31 492 -31 307.5 168 c 128,-1,41
 123 367 123 367 123 717 c 128,-1,42
 123 1067 123 1067 309.5 1265.5 c 128,-1,43
 496 1464 496 1464 788 1464 c 0,0,1
EndSplineSet
EndChar

StartChar: H
Encoding: 72 72 43
Width: 1577
GlyphClass: 2
Flags: W
LayerCount: 2
Fore
SplineSet
205 20 m 2,0,-1
 205 1413 l 2,1,2
 205 1434 205 1434 225 1434 c 2,3,-1
 369 1434 l 2,4,5
 389 1434 389 1434 389 1413 c 2,6,-1
 389 778 l 1,7,-1
 1188 778 l 1,8,-1
 1188 1413 l 2,9,10
 1188 1434 1188 1434 1208 1434 c 2,11,-1
 1352 1434 l 2,12,13
 1372 1434 1372 1434 1372 1413 c 2,14,-1
 1372 20 l 2,15,16
 1372 0 1372 0 1352 0 c 2,17,-1
 1208 0 l 2,18,19
 1188 0 1188 0 1188 20 c 2,20,-1
 1188 635 l 1,21,-1
 389 635 l 1,22,-1
 389 20 l 2,23,24
 389 0 389 0 369 0 c 2,25,-1
 225 0 l 2,26,27
 205 0 205 0 205 20 c 2,0,-1
EndSplineSet
EndChar

StartChar: I
Encoding: 73 73 44
Width: 594
GlyphClass: 2
Flags: W
LayerCount: 2
Fore
SplineSet
205 20 m 2,0,-1
 205 1413 l 2,1,2
 205 1434 205 1434 225 1434 c 2,3,-1
 369 1434 l 2,4,5
 389 1434 389 1434 389 1413 c 2,6,-1
 389 20 l 2,7,8
 389 0 389 0 369 0 c 2,9,-1
 225 0 l 2,10,11
 205 0 205 0 205 20 c 2,0,-1
EndSplineSet
EndChar

StartChar: J
Encoding: 74 74 45
Width: 1024
GlyphClass: 2
Flags: W
LayerCount: 2
Fore
SplineSet
41 45 m 2,0,-1
 41 145 l 2,1,2
 41 170 41 170 61 162 c 0,3,4
 184 113 184 113 340 113 c 128,-1,5
 496 113 496 113 575.5 191.5 c 128,-1,6
 655 270 655 270 655 440 c 2,7,-1
 655 1290 l 1,8,-1
 184 1290 l 2,9,10
 164 1290 164 1290 164 1311 c 2,11,-1
 164 1413 l 2,12,13
 164 1433 164 1433 184 1434 c 1,14,-1
 819 1434 l 2,15,16
 839 1434 839 1434 840 1413 c 1,17,-1
 840 440 l 2,18,19
 840 221 840 221 715 95 c 128,-1,20
 590 -31 590 -31 348 -31 c 0,21,22
 184 -31 184 -31 61 18 c 1,23,24
 41 29 41 29 41 45 c 2,0,-1
EndSplineSet
EndChar

StartChar: K
Encoding: 75 75 46
Width: 1419
GlyphClass: 2
Flags: W
LayerCount: 2
Fore
SplineSet
205 20 m 2,0,-1
 205 1413 l 2,1,2
 205 1433 205 1433 225 1434 c 1,3,-1
 369 1434 l 2,4,5
 389 1434 389 1434 389 1413 c 2,6,-1
 389 788 l 1,7,-1
 543 788 l 2,8,9
 727 788 727 788 829 942 c 1,10,-1
 1137 1413 l 2,11,12
 1151 1433 1151 1433 1167 1434 c 1,13,-1
 1335 1434 l 2,14,15
 1368 1434 1368 1434 1352 1409 c 2,16,-1
 1034 922 l 2,17,18
 915 740 915 740 788 717 c 1,19,20
 935 694 935 694 1055 512 c 1,21,-1
 1372 25 l 2,22,23
 1377 17 1377 17 1377.5 8.5 c 128,-1,24
 1378 0 1378 0 1356 0 c 2,25,-1
 1188 0 l 2,26,27
 1172 0 1172 0 1157 20 c 1,28,-1
 850 492 l 1,29,30
 748 646 748 646 563 645 c 1,31,-1
 389 645 l 1,32,-1
 389 20 l 2,33,34
 389 0 389 0 369 0 c 2,35,-1
 225 0 l 2,36,37
 205 0 205 0 205 20 c 2,0,-1
EndSplineSet
EndChar

StartChar: L
Encoding: 76 76 47
Width: 1237
GlyphClass: 2
Flags: W
LayerCount: 2
Fore
SplineSet
205 20 m 2,0,-1
 205 1413 l 2,1,2
 205 1434 205 1434 225 1434 c 2,3,-1
 369 1434 l 2,4,5
 389 1434 389 1434 389 1413 c 2,6,-1
 389 143 l 1,7,-1
 1196 143 l 2,8,9
 1217 143 1217 143 1217 123 c 2,10,-1
 1217 20 l 2,11,12
 1217 0 1217 0 1196 0 c 2,13,-1
 225 0 l 2,14,15
 205 0 205 0 205 20 c 2,0,-1
EndSplineSet
EndChar

StartChar: M
Encoding: 77 77 48
Width: 1976
GlyphClass: 2
Flags: W
LayerCount: 2
Fore
SplineSet
205 20 m 2,0,-1
 205 1413 l 2,1,2
 205 1433 205 1433 225 1434 c 1,3,-1
 369 1434 l 2,4,5
 428 1434 428 1434 461 1372 c 2,6,-1
 989 367 l 1,7,-1
 1516 1372 l 2,8,9
 1549 1433 1549 1433 1608 1434 c 1,10,-1
 1751 1434 l 2,11,12
 1771 1434 1771 1434 1772 1413 c 1,13,-1
 1772 20 l 2,14,15
 1772 0 1772 0 1751 0 c 2,16,-1
 1608 0 l 2,17,18
 1588 0 1588 0 1587 20 c 1,19,-1
 1587 1126 l 1,20,-1
 1116 236 l 2,21,22
 1083 175 1083 175 1024 174 c 1,23,-1
 952 174 l 2,24,25
 893 174 893 174 860 236 c 2,26,-1
 389 1126 l 1,27,-1
 389 20 l 2,28,29
 389 0 389 0 369 0 c 2,30,-1
 225 0 l 2,31,32
 205 0 205 0 205 20 c 2,0,-1
EndSplineSet
EndChar

StartChar: N
Encoding: 78 78 49
Width: 1618
GlyphClass: 2
Flags: W
LayerCount: 2
Fore
SplineSet
205 20 m 2,0,-1
 205 1413 l 2,1,2
 205 1434 205 1434 225 1434 c 2,3,-1
 369 1434 l 2,4,5
 430 1434 430 1434 471 1372 c 2,6,-1
 1229 246 l 1,7,-1
 1229 1413 l 2,8,9
 1229 1434 1229 1434 1249 1434 c 2,10,-1
 1393 1434 l 2,11,12
 1413 1434 1413 1434 1413 1413 c 2,13,-1
 1413 20 l 2,14,15
 1413 0 1413 0 1393 0 c 2,16,-1
 1249 0 l 2,17,18
 1188 0 1188 0 1147 61 c 2,19,-1
 389 1188 l 1,20,-1
 389 20 l 2,21,22
 389 0 389 0 369 0 c 2,23,-1
 225 0 l 2,24,25
 205 0 205 0 205 20 c 2,0,-1
EndSplineSet
EndChar

StartChar: O
Encoding: 79 79 50
Width: 1577
GlyphClass: 2
Flags: W
LayerCount: 2
Fore
SplineSet
309 168 m 0,0,1
 123 367 123 367 123 717 c 128,-1,2
 123 1067 123 1067 309.5 1265.5 c 128,-1,3
 496 1464 496 1464 788.5 1464 c 128,-1,4
 1081 1464 1081 1464 1267.5 1265.5 c 128,-1,5
 1454 1067 1454 1067 1454 717 c 128,-1,6
 1454 367 1454 367 1267.5 168 c 128,-1,7
 1081 -31 1081 -31 788.5 -31 c 128,-1,8
 496 -31 496 -31 309 168 c 0,0,1
788.5 1321 m 128,-1,10
 582 1321 582 1321 444.5 1168.5 c 128,-1,11
 307 1016 307 1016 307 717 c 128,-1,12
 307 418 307 418 444.5 265.5 c 128,-1,13
 582 113 582 113 788.5 113 c 128,-1,14
 995 113 995 113 1132.5 265.5 c 128,-1,15
 1270 418 1270 418 1270 717 c 128,-1,16
 1270 1016 1270 1016 1132.5 1168.5 c 128,-1,9
 995 1321 995 1321 788.5 1321 c 128,-1,10
EndSplineSet
EndChar

StartChar: P
Encoding: 80 80 51
Width: 1454
GlyphClass: 2
Flags: W
LayerCount: 2
Fore
SplineSet
205 20 m 2,0,-1
 205 1413 l 2,1,2
 205 1433 205 1433 225 1434 c 1,3,-1
 819 1434 l 2,4,5
 1075 1434 1075 1434 1213.5 1311 c 128,-1,6
 1352 1188 1352 1188 1352 952.5 c 128,-1,7
 1352 717 1352 717 1213.5 594 c 128,-1,8
 1075 471 1075 471 819 471 c 2,9,-1
 389 471 l 1,10,-1
 389 20 l 2,11,12
 389 0 389 0 369 0 c 2,13,-1
 225 0 l 2,14,15
 205 0 205 0 205 20 c 2,0,-1
389 614 m 1,16,-1
 819 614 l 2,17,18
 981 614 981 614 1074 698 c 128,-1,19
 1167 782 1167 782 1167 952 c 128,-1,20
 1167 1122 1167 1122 1074 1206 c 128,-1,21
 981 1290 981 1290 819 1290 c 2,22,-1
 389 1290 l 1,23,-1
 389 614 l 1,16,-1
EndSplineSet
EndChar

StartChar: Q
Encoding: 81 81 52
Width: 1577
GlyphClass: 2
Flags: W
LayerCount: 2
Fore
SplineSet
1454 717 m 0,0,1
 1454 309 1454 309 1182 113 c 1,2,-1
 1556 113 l 2,3,4
 1577 113 1577 113 1577 92 c 2,5,-1
 1577 -10 l 2,6,7
 1577 -31 1577 -31 1556 -31 c 2,8,-1
 788 -31 l 2,9,10
 496 -31 496 -31 309.5 168 c 128,-1,11
 123 367 123 367 123 717 c 128,-1,12
 123 1067 123 1067 309.5 1265.5 c 128,-1,13
 496 1464 496 1464 788.5 1464 c 128,-1,14
 1081 1464 1081 1464 1267.5 1265.5 c 128,-1,15
 1454 1067 1454 1067 1454 717 c 0,0,1
788.5 1321 m 128,-1,17
 582 1321 582 1321 444.5 1168.5 c 128,-1,18
 307 1016 307 1016 307 717 c 128,-1,19
 307 418 307 418 444.5 265.5 c 128,-1,20
 582 113 582 113 788.5 113 c 128,-1,21
 995 113 995 113 1132.5 265.5 c 128,-1,22
 1270 418 1270 418 1270 717 c 128,-1,23
 1270 1016 1270 1016 1132.5 1168.5 c 128,-1,16
 995 1321 995 1321 788.5 1321 c 128,-1,17
EndSplineSet
EndChar

StartChar: R
Encoding: 82 82 53
Width: 1460
GlyphClass: 2
Flags: W
LayerCount: 2
Fore
SplineSet
205 20 m 2,0,-1
 205 1413 l 2,1,2
 205 1433 205 1433 225 1434 c 1,3,-1
 799 1434 l 2,4,5
 1051 1434 1051 1434 1191 1318 c 128,-1,6
 1331 1202 1331 1202 1331 993 c 0,7,8
 1331 843 1331 843 1223.5 734 c 128,-1,9
 1116 625 1116 625 922 594 c 1,10,11
 979 580 979 580 1025 544 c 128,-1,12
 1071 508 1071 508 1091.5 481.5 c 128,-1,13
 1112 455 1112 455 1147 399 c 1,14,-1
 1393 25 l 2,15,16
 1398 17 1398 17 1398 8.5 c 128,-1,17
 1398 0 1398 0 1376 0 c 2,18,-1
 1208 0 l 2,19,20
 1192 0 1192 0 1178 20 c 2,21,-1
 932 399 l 1,22,23
 834 553 834 553 645 553 c 2,24,-1
 389 553 l 1,25,-1
 389 20 l 2,26,27
 389 0 389 0 369 0 c 2,28,-1
 225 0 l 2,29,30
 205 0 205 0 205 20 c 2,0,-1
389 696 m 1,31,-1
 799 696 l 2,32,33
 957 696 957 696 1052 773 c 128,-1,34
 1147 850 1147 850 1147 993.5 c 128,-1,35
 1147 1137 1147 1137 1051.5 1213.5 c 128,-1,36
 956 1290 956 1290 799 1290 c 2,37,-1
 389 1290 l 1,38,-1
 389 696 l 1,31,-1
EndSplineSet
EndChar

StartChar: S
Encoding: 83 83 54
Width: 1382
GlyphClass: 2
Flags: W
LayerCount: 2
Fore
SplineSet
104 371 m 0,0,1
 104 389 104 389 125 389 c 2,2,-1
 254 389 l 2,3,4
 272 389 272 389 279 369 c 0,5,6
 365 113 365 113 717 113 c 0,7,8
 901 113 901 113 998.5 178.5 c 128,-1,9
 1096 244 1096 244 1096 341 c 128,-1,10
 1096 438 1096 438 1034.5 497.5 c 128,-1,11
 973 557 973 557 842 594 c 2,12,-1
 483 696 l 1,13,14
 135 796 135 796 135 1075 c 0,15,16
 135 1247 135 1247 281.5 1355.5 c 128,-1,17
 428 1464 428 1464 674 1464 c 128,-1,18
 920 1464 920 1464 1071.5 1358.5 c 128,-1,19
 1223 1253 1223 1253 1262 1069 c 1,20,21
 1266 1044 1266 1044 1241 1044 c 2,22,-1
 1112 1044 l 2,23,24
 1094 1044 1094 1044 1087 1065 c 0,25,26
 1001 1321 1001 1321 678 1321 c 0,27,28
 508 1321 508 1321 413.5 1255.5 c 128,-1,29
 319 1190 319 1190 319 1091.5 c 128,-1,30
 319 993 319 993 380.5 936 c 128,-1,31
 442 879 442 879 575 840 c 2,32,-1
 934 737 l 1,33,34
 1280 639 1280 639 1280 358 c 0,35,36
 1280 184 1280 184 1129.5 76.5 c 128,-1,37
 979 -31 979 -31 717 -31 c 128,-1,38
 455 -31 455 -31 299 74 c 0,39,40
 221 126 221 126 162.5 206.5 c 128,-1,41
 104 287 104 287 104 371 c 0,0,1
EndSplineSet
EndChar

StartChar: T
Encoding: 84 84 55
Width: 1290
GlyphClass: 2
Flags: W
LayerCount: 2
Fore
SplineSet
41 1311 m 2,0,-1
 41 1413 l 2,1,2
 41 1433 41 1433 61 1434 c 1,3,-1
 1229 1434 l 2,4,5
 1249 1434 1249 1434 1249 1413 c 2,6,-1
 1249 1311 l 2,7,8
 1249 1291 1249 1291 1229 1290 c 1,9,-1
 727 1290 l 1,10,-1
 727 20 l 2,11,12
 727 0 727 0 707 0 c 2,13,-1
 563 0 l 2,14,15
 543 0 543 0 543 20 c 2,16,-1
 543 1290 l 1,17,-1
 61 1290 l 1,18,19
 41 1291 41 1291 41 1311 c 2,0,-1
EndSplineSet
EndChar

StartChar: U
Encoding: 85 85 56
Width: 1556
GlyphClass: 2
Flags: W
LayerCount: 2
Fore
SplineSet
184 573 m 2,0,-1
 184 1413 l 2,1,2
 184 1433 184 1433 205 1434 c 1,3,-1
 348 1434 l 2,4,5
 368 1434 368 1434 369 1413 c 1,6,-1
 369 573 l 2,7,8
 369 346 369 346 483.5 229.5 c 128,-1,9
 598 113 598 113 778 113 c 128,-1,10
 958 113 958 113 1073 229.5 c 128,-1,11
 1188 346 1188 346 1188 573 c 2,12,-1
 1188 1413 l 2,13,14
 1188 1433 1188 1433 1208 1434 c 1,15,-1
 1352 1434 l 2,16,17
 1372 1434 1372 1434 1372 1413 c 2,18,-1
 1372 573 l 2,19,20
 1372 292 1372 292 1208 130.5 c 128,-1,21
 1044 -31 1044 -31 778 -31 c 128,-1,22
 512 -31 512 -31 348 130.5 c 128,-1,23
 184 292 184 292 184 573 c 2,0,-1
EndSplineSet
EndChar

StartChar: V
Encoding: 86 86 57
Width: 1458
GlyphClass: 2
Flags: W
LayerCount: 2
Fore
SplineSet
63 1413 m 2,0,1
 60 1419 60 1419 61 1423 c 1,2,3
 61 1434 61 1434 80 1434 c 2,4,-1
 227 1434 l 2,5,6
 247 1434 247 1434 258 1413 c 1,7,-1
 729 236 l 1,8,-1
 1200 1413 l 1,9,10
 1210 1433 1210 1433 1231 1434 c 1,11,-1
 1378 1434 l 2,12,13
 1406 1434 1406 1434 1395 1413 c 1,14,-1
 852 61 l 2,15,16
 827 0 827 0 760 0 c 2,17,-1
 698 0 l 2,18,19
 630 0 630 0 606 61 c 2,20,-1
 63 1413 l 2,0,1
EndSplineSet
EndChar

StartChar: W
Encoding: 87 87 58
Width: 2093
GlyphClass: 2
Flags: W
LayerCount: 2
Fore
SplineSet
63 1413 m 2,0,1
 61 1418 61 1418 61 1422 c 0,2,3
 61 1434 61 1434 80 1434 c 2,4,-1
 219 1434 l 2,5,6
 244 1434 244 1434 250 1413 c 2,7,-1
 612 246 l 1,8,-1
 930 1372 l 1,9,10
 936 1397 936 1397 959.5 1415.5 c 128,-1,11
 983 1434 983 1434 1012 1434 c 2,12,-1
 1083 1434 l 2,13,14
 1112 1434 1112 1434 1135.5 1415.5 c 128,-1,15
 1159 1397 1159 1397 1165 1372 c 2,16,-1
 1481 246 l 1,17,-1
 1843 1413 l 2,18,19
 1849 1433 1849 1433 1874 1434 c 1,20,-1
 2013 1434 l 2,21,22
 2038 1434 2038 1434 2030 1413 c 1,23,-1
 1606 61 l 2,24,25
 1586 0 1586 0 1513 0 c 2,26,-1
 1452 0 l 2,27,28
 1415 0 1415 0 1390.5 18.5 c 128,-1,29
 1366 37 1366 37 1360 61 c 2,30,-1
 1047 1176 l 1,31,-1
 735 61 l 2,32,33
 729 36 729 36 704.5 18 c 128,-1,34
 680 0 680 0 643 0 c 2,35,-1
 582 0 l 2,36,37
 510 0 510 0 489 61 c 1,38,-1
 63 1413 l 2,0,1
EndSplineSet
EndChar

StartChar: X
Encoding: 88 88 59
Width: 1380
GlyphClass: 2
Flags: W
LayerCount: 2
Fore
SplineSet
82 0 m 2,0,1
 58 0 58 0 62 11 c 1,2,3
 62 15 62 15 66 20 c 2,4,-1
 582 717 l 1,5,-1
 66 1413 l 2,6,7
 62 1418 62 1418 62 1422 c 0,8,9
 62 1433 62 1433 82 1434 c 1,10,-1
 240 1434 l 2,11,12
 265 1434 265 1434 281 1413 c 2,13,-1
 690 860 l 1,14,-1
 1100 1413 l 2,15,16
 1116 1433 1116 1433 1141 1434 c 1,17,-1
 1298 1434 l 2,18,19
 1319 1434 1319 1434 1319 1422 c 0,20,21
 1319 1418 1319 1418 1315 1413 c 2,22,-1
 797 717 l 1,23,-1
 1315 20 l 2,24,25
 1319 15 1319 15 1319 11 c 0,26,27
 1319 0 1319 0 1298 0 c 2,28,-1
 1141 0 l 2,29,30
 1116 0 1116 0 1100 20 c 2,31,-1
 690 571 l 1,32,-1
 281 20 l 2,33,34
 265 0 265 0 240 0 c 2,35,-1
 82 0 l 2,0,1
EndSplineSet
EndChar

StartChar: Y
Encoding: 89 89 60
Width: 1393
GlyphClass: 2
Flags: W
LayerCount: 2
Fore
SplineSet
1331 1434 m 2,0,1
 1352 1434 1352 1434 1352 1419 c 0,2,3
 1352 1415 1352 1415 1348 1413 c 1,4,-1
 788 481 l 1,5,-1
 788 20 l 2,6,7
 788 0 788 0 768 0 c 2,8,-1
 625 0 l 2,9,10
 604 0 604 0 604 20 c 2,11,-1
 604 481 l 1,12,-1
 45 1413 l 2,13,14
 43 1415 43 1415 43 1419 c 2,15,-1
 43 1425 l 1,16,17
 49 1434 49 1434 61 1434 c 2,18,-1
 211 1434 l 2,19,20
 238 1434 238 1434 252 1413 c 1,21,-1
 696 674 l 1,22,-1
 1141 1413 l 1,23,24
 1155 1434 1155 1434 1182 1434 c 2,25,-1
 1331 1434 l 2,0,1
EndSplineSet
EndChar

StartChar: Z
Encoding: 90 90 61
Width: 1321
GlyphClass: 2
Flags: W
LayerCount: 2
Fore
SplineSet
102 20 m 2,0,-1
 102 92 l 2,1,2
 102 133 102 133 154 205 c 1,3,-1
 993 1290 l 1,4,-1
 123 1290 l 2,5,6
 102 1290 102 1290 102 1311 c 2,7,-1
 102 1413 l 2,8,9
 102 1434 102 1434 123 1434 c 2,10,-1
 1198 1434 l 2,11,12
 1219 1434 1219 1434 1219 1413 c 2,13,-1
 1219 1341 l 2,14,15
 1219 1300 1219 1300 1167 1229 c 1,16,-1
 326 143 l 1,17,-1
 1198 143 l 2,18,19
 1219 143 1219 143 1219 123 c 2,20,-1
 1219 20 l 2,21,22
 1219 0 1219 0 1198 0 c 2,23,-1
 123 0 l 2,24,25
 102 0 102 0 102 20 c 2,0,-1
EndSplineSet
EndChar

StartChar: bracketleft
Encoding: 91 91 62
Width: 684
GlyphClass: 2
Flags: W
LayerCount: 2
Fore
SplineSet
205 -317 m 2,0,-1
 205 1485 l 2,1,2
 205 1505 205 1505 225 1505 c 2,3,-1
 664 1505 l 2,4,5
 684 1505 684 1505 684 1485 c 2,6,-1
 684 1382 l 2,7,8
 684 1362 684 1362 664 1362 c 2,9,-1
 389 1362 l 1,10,-1
 389 -195 l 1,11,-1
 664 -195 l 2,12,13
 684 -195 684 -195 684 -215 c 2,14,-1
 684 -317 l 2,15,16
 684 -337 684 -337 664 -338 c 1,17,-1
 225 -338 l 1,18,19
 205 -337 205 -337 205 -317 c 2,0,-1
EndSplineSet
EndChar

StartChar: backslash
Encoding: 92 92 63
Width: 879
GlyphClass: 2
Flags: W
LayerCount: 2
Fore
SplineSet
45 1413 m 2,0,1
 35 1434 35 1434 55 1434 c 2,2,-1
 199 1434 l 2,3,4
 219 1434 219 1434 229 1413 c 2,5,-1
 834 20 l 1,6,7
 844 0 844 0 823 0 c 2,8,-1
 680 0 l 2,9,10
 659 0 659 0 649 20 c 1,11,-1
 45 1413 l 2,0,1
EndSplineSet
EndChar

StartChar: bracketright
Encoding: 93 93 64
Width: 725
GlyphClass: 2
Flags: W
LayerCount: 2
Fore
SplineSet
0 -215 m 2,0,1
 0 -195 0 -195 20 -195 c 2,2,-1
 336 -195 l 1,3,-1
 336 1362 l 1,4,-1
 20 1362 l 2,5,6
 0 1362 0 1362 0 1382 c 2,7,-1
 0 1485 l 2,8,9
 0 1505 0 1505 20 1505 c 2,10,-1
 500 1505 l 2,11,12
 520 1505 520 1505 520 1485 c 2,13,-1
 520 -317 l 2,14,15
 520 -338 520 -338 500 -338 c 2,16,-1
 20 -338 l 2,17,18
 0 -338 0 -338 0 -317 c 2,19,-1
 0 -215 l 2,0,1
EndSplineSet
EndChar

StartChar: asciicircum
Encoding: 94 94 65
Width: 1135
GlyphClass: 2
Flags: W
LayerCount: 2
Fore
SplineSet
86 758 m 1,0,-1
 465 1413 l 1,1,2
 475 1434 475 1434 496 1434 c 2,3,-1
 639 1434 l 2,4,5
 659 1434 659 1434 670 1413 c 2,6,-1
 1049 758 l 1,7,8
 1063 737 1063 737 1038 737 c 2,9,-1
 895 737 l 2,10,11
 879 737 879 737 864 758 c 1,12,-1
 567 1272 l 1,13,-1
 270 758 l 1,14,15
 256 737 256 737 240 737 c 2,16,-1
 96 737 l 2,17,18
 72 737 72 737 86 758 c 1,0,-1
EndSplineSet
EndChar

StartChar: underscore
Encoding: 95 95 66
Width: 819
GlyphClass: 2
Flags: W
LayerCount: 2
Fore
SplineSet
0 -123 m 2,0,1
 0 -103 0 -103 20 -102 c 1,2,-1
 799 -102 l 2,3,4
 819 -102 819 -102 819 -123 c 2,5,-1
 819 -225 l 2,6,7
 819 -245 819 -245 799 -246 c 1,8,-1
 20 -246 l 2,9,10
 0 -246 0 -246 0 -225 c 2,11,-1
 0 -123 l 2,0,1
EndSplineSet
EndChar

StartChar: grave
Encoding: 96 96 67
Width: 367
GlyphClass: 2
Flags: W
LayerCount: 2
Fore
SplineSet
4 1413 m 1,0,1
 -10 1434 -10 1434 14 1434 c 2,2,-1
 199 1434 l 2,3,4
 219 1434 219 1434 229 1413 c 2,5,-1
 362 1147 l 2,6,7
 373 1126 373 1126 352 1126 c 2,8,-1
 250 1126 l 2,9,10
 236 1126 236 1126 219 1147 c 2,11,-1
 4 1413 l 1,0,1
EndSplineSet
EndChar

StartChar: a
Encoding: 97 97 68
Width: 1290
GlyphClass: 2
Flags: W
LayerCount: 2
Fore
SplineSet
123 317.5 m 128,-1,1
 123 479 123 479 241.5 572.5 c 128,-1,2
 360 666 360 666 573 666 c 2,3,-1
 922 666 l 1,4,-1
 922 676 l 2,5,6
 922 983 922 983 614 983 c 0,7,8
 518 983 518 983 450.5 937 c 128,-1,9
 383 891 383 891 358 819 c 0,10,11
 352 799 352 799 334 799 c 2,12,-1
 205 799 l 2,13,14
 182 799 182 799 184 819 c 0,15,16
 200 958 200 958 316 1042 c 128,-1,17
 432 1126 432 1126 614 1126 c 0,18,19
 852 1126 852 1126 979 1008.5 c 128,-1,20
 1106 891 1106 891 1106 676 c 2,21,-1
 1106 20 l 2,22,23
 1106 0 1106 0 1085 0 c 2,24,-1
 973 0 l 2,25,26
 953 0 953 0 950 20 c 2,27,-1
 932 133 l 1,28,29
 920 114 920 114 879 80.5 c 128,-1,30
 838 47 838 47 797 26 c 0,31,32
 689 -31 689 -31 553 -31 c 0,33,34
 354 -31 354 -31 238.5 62.5 c 128,-1,0
 123 156 123 156 123 317.5 c 128,-1,1
307 317 m 0,35,36
 307 217 307 217 373.5 165 c 128,-1,37
 440 113 440 113 563 113 c 0,38,39
 629 113 629 113 690.5 135.5 c 128,-1,40
 752 158 752 158 791.5 188.5 c 128,-1,41
 831 219 831 219 862 251 c 128,-1,42
 893 283 893 283 907.5 304.5 c 128,-1,43
 922 326 922 326 922 328 c 2,44,-1
 922 522 l 1,45,-1
 573 522 l 2,46,47
 307 522 307 522 307 317 c 0,35,36
EndSplineSet
EndChar

StartChar: b
Encoding: 98 98 69
Width: 1341
GlyphClass: 2
Flags: W
LayerCount: 2
Fore
SplineSet
205 92 m 1,0,-1
 205 1413 l 2,1,2
 205 1433 205 1433 225 1434 c 1,3,-1
 369 1434 l 2,4,5
 389 1434 389 1434 389 1413 c 2,6,-1
 389 1065 l 1,7,8
 522 1126 522 1126 696 1126 c 0,9,10
 927 1126 927 1126 1073 976.5 c 128,-1,11
 1219 827 1219 827 1219 548.5 c 128,-1,12
 1219 270 1219 270 1072.5 119.5 c 128,-1,13
 926 -31 926 -31 686 -31 c 0,14,15
 555 -31 555 -31 434 0 c 128,-1,16
 313 31 313 31 258 61 c 1,17,-1
 205 92 l 1,0,-1
389 174 m 2,18,19
 389 172 389 172 424 157.5 c 128,-1,20
 459 143 459 143 528.5 128 c 128,-1,21
 598 113 598 113 666 113 c 0,22,23
 836 113 836 113 935 222.5 c 128,-1,24
 1034 332 1034 332 1034 549 c 128,-1,25
 1034 766 1034 766 936 874.5 c 128,-1,26
 838 983 838 983 680 983 c 128,-1,27
 522 983 522 983 389 922 c 1,28,-1
 389 174 l 2,18,19
EndSplineSet
EndChar

StartChar: c
Encoding: 99 99 70
Width: 1282
GlyphClass: 2
Flags: W
LayerCount: 2
Fore
SplineSet
269 119.5 m 128,-1,1
 123 270 123 270 123 549.5 c 128,-1,2
 123 829 123 829 269.5 977.5 c 128,-1,3
 416 1126 416 1126 637 1126 c 128,-1,4
 858 1126 858 1126 983 1035 c 128,-1,5
 1108 944 1108 944 1147 782 c 0,6,7
 1153 757 1153 757 1126 758 c 1,8,-1
 997 758 l 2,9,10
 983 758 983 758 973 778 c 0,11,12
 879 983 879 983 655 983 c 0,13,14
 499 983 499 983 403 874.5 c 128,-1,15
 307 766 307 766 307 550 c 128,-1,16
 307 334 307 334 403.5 223.5 c 128,-1,17
 500 113 500 113 640 113 c 128,-1,18
 780 113 780 113 857 164 c 128,-1,19
 934 215 934 215 983 317 c 0,20,21
 993 337 993 337 1008 338 c 1,22,-1
 1137 338 l 2,23,24
 1159 338 1159 338 1158 322 c 0,25,26
 1158 318 1158 318 1157 313 c 0,27,28
 1118 149 1118 149 991 59 c 128,-1,29
 864 -31 864 -31 639.5 -31 c 128,-1,0
 415 -31 415 -31 269 119.5 c 128,-1,1
EndSplineSet
EndChar

StartChar: d
Encoding: 100 100 71
Width: 1341
GlyphClass: 2
Flags: W
LayerCount: 2
Fore
SplineSet
264.5 117.5 m 128,-1,1
 123 266 123 266 123 546.5 c 128,-1,2
 123 827 123 827 268.5 976.5 c 128,-1,3
 414 1126 414 1126 645 1126 c 0,4,5
 723 1126 723 1126 800 1111 c 128,-1,6
 877 1096 877 1096 913 1081 c 2,7,-1
 952 1065 l 1,8,-1
 952 1413 l 2,9,10
 952 1433 952 1433 973 1434 c 1,11,-1
 1116 1434 l 2,12,13
 1136 1434 1136 1434 1137 1413 c 1,14,-1
 1137 20 l 2,15,16
 1137 0 1137 0 1116 0 c 2,17,-1
 1004 0 l 2,18,19
 984 0 984 0 981 20 c 2,20,-1
 963 133 l 1,21,22
 951 116 951 116 911.5 81.5 c 128,-1,23
 872 47 872 47 836 26 c 0,24,25
 743 -31 743 -31 625 -31 c 0,26,0
 406 -31 406 -31 264.5 117.5 c 128,-1,1
405.5 874.5 m 128,-1,28
 307 766 307 766 307 550 c 128,-1,29
 307 334 307 334 397 223.5 c 128,-1,30
 487 113 487 113 635 113 c 0,31,32
 775 113 775 113 896 251 c 0,33,34
 952 315 952 315 952 328 c 2,35,-1
 952 922 l 1,36,37
 819 983 819 983 661.5 983 c 128,-1,27
 504 983 504 983 405.5 874.5 c 128,-1,28
EndSplineSet
EndChar

StartChar: e
Encoding: 101 101 72
Width: 1311
GlyphClass: 2
Flags: W
LayerCount: 2
Fore
SplineSet
269.5 118.5 m 128,-1,1
 123 270 123 270 123 549.5 c 128,-1,2
 123 829 123 829 269.5 977.5 c 128,-1,3
 416 1126 416 1126 652.5 1126 c 128,-1,4
 889 1126 889 1126 1038.5 974.5 c 128,-1,5
 1188 823 1188 823 1188 573 c 2,6,-1
 1188 522 l 2,7,8
 1188 481 1188 481 1147 481 c 2,9,-1
 309 481 l 1,10,11
 326 295 326 295 419 203 c 128,-1,12
 512 111 512 111 655 111 c 0,13,14
 881 111 881 111 983 295 c 0,15,16
 995 315 995 315 1008 315 c 2,17,-1
 1137 315 l 2,18,19
 1163 315 1163 315 1157 291 c 0,20,21
 1116 143 1116 143 989 55 c 128,-1,22
 862 -33 862 -33 639 -33 c 128,-1,0
 416 -33 416 -33 269.5 118.5 c 128,-1,1
309 625 m 1,23,-1
 1004 625 l 1,24,25
 995 786 995 786 894 884.5 c 128,-1,26
 793 983 793 983 653.5 983 c 128,-1,27
 514 983 514 983 420 892 c 128,-1,28
 326 801 326 801 309 625 c 1,23,-1
EndSplineSet
EndChar

StartChar: f
Encoding: 102 102 73
Width: 942
GlyphClass: 2
Flags: W
LayerCount: 2
Fore
SplineSet
184 20 m 2,0,-1
 184 1014 l 2,1,2
 184 1219 184 1219 307 1341.5 c 128,-1,3
 430 1464 430 1464 655 1464 c 0,4,5
 819 1464 819 1464 922 1415 c 0,6,7
 942 1405 942 1405 942 1389 c 2,8,-1
 942 1288 l 2,9,10
 942 1263 942 1263 922 1272 c 0,11,12
 820 1321 820 1321 676 1321 c 0,13,14
 369 1321 369 1321 369 1014 c 2,15,-1
 369 942 l 1,16,-1
 786 942 l 2,17,18
 806 942 806 942 807 922 c 1,19,-1
 807 819 l 2,20,21
 807 799 807 799 786 799 c 2,22,-1
 369 799 l 1,23,-1
 369 20 l 2,24,25
 369 0 369 0 348 0 c 2,26,-1
 205 0 l 2,27,28
 184 0 184 0 184 20 c 2,0,-1
EndSplineSet
EndChar

StartChar: g
Encoding: 103 103 74
Width: 1321
GlyphClass: 2
Flags: W
LayerCount: 2
Fore
SplineSet
270.5 213 m 128,-1,1
 123 354 123 354 123 598 c 128,-1,2
 123 842 123 842 271.5 984 c 128,-1,3
 420 1126 420 1126 655 1126 c 0,4,5
 786 1126 786 1126 907 1095.5 c 128,-1,6
 1028 1065 1028 1065 1081 1034 c 1,7,-1
 1137 1004 l 1,8,-1
 1137 123 l 2,9,10
 1137 -369 1137 -369 625 -369 c 0,11,12
 428 -369 428 -369 309 -286 c 128,-1,13
 190 -203 190 -203 174 -61 c 0,14,15
 172 -41 172 -41 195 -41 c 2,16,-1
 324 -41 l 2,17,18
 342 -41 342 -41 348 -61 c 0,19,20
 373 -135 373 -135 443.5 -180 c 128,-1,21
 514 -225 514 -225 625 -225 c 0,22,23
 795 -225 795 -225 873.5 -142 c 128,-1,24
 952 -59 952 -59 952 123 c 2,25,-1
 952 133 l 1,26,27
 819 72 819 72 645 72 c 0,28,0
 418 72 418 72 270.5 213 c 128,-1,1
408.5 881.5 m 128,-1,30
 307 780 307 780 307 597 c 128,-1,31
 307 414 307 414 407.5 314.5 c 128,-1,32
 508 215 508 215 663.5 215 c 128,-1,33
 819 215 819 215 952 276 c 1,34,-1
 952 922 l 2,35,36
 952 924 952 924 917.5 938 c 128,-1,37
 883 952 883 952 813 967.5 c 128,-1,38
 743 983 743 983 676 983 c 0,39,29
 510 983 510 983 408.5 881.5 c 128,-1,30
EndSplineSet
EndChar

StartChar: h
Encoding: 104 104 75
Width: 1393
GlyphClass: 2
Flags: W
LayerCount: 2
Fore
SplineSet
205 20 m 2,0,-1
 205 1413 l 2,1,2
 205 1434 205 1434 225 1434 c 2,3,-1
 369 1434 l 2,4,5
 389 1434 389 1434 389 1413 c 2,6,-1
 389 973 l 1,7,8
 397 985 397 985 438 1019 c 128,-1,9
 479 1053 479 1053 517 1074 c 0,10,11
 614 1126 614 1126 737 1126 c 0,12,13
 944 1126 944 1126 1076 998 c 128,-1,14
 1208 870 1208 870 1208 645 c 2,15,-1
 1208 20 l 2,16,17
 1208 0 1208 0 1188 0 c 2,18,-1
 1044 0 l 2,19,20
 1024 0 1024 0 1024 20 c 2,21,-1
 1024 645 l 2,22,23
 1024 807 1024 807 940 895 c 128,-1,24
 856 983 856 983 727 983 c 0,25,26
 637 983 637 983 552 933 c 128,-1,27
 467 883 467 883 428 839 c 128,-1,28
 389 795 389 795 389 788 c 2,29,-1
 389 20 l 2,30,31
 389 0 389 0 369 0 c 2,32,-1
 225 0 l 2,33,34
 205 0 205 0 205 20 c 2,0,-1
EndSplineSet
EndChar

StartChar: i
Encoding: 105 105 76
Width: 584
GlyphClass: 2
Flags: W
LayerCount: 2
Fore
SplineSet
184 1393 m 2,0,1
 184 1434 184 1434 225 1434 c 2,2,-1
 358 1434 l 2,3,4
 381 1434 381 1434 390 1424.5 c 128,-1,5
 399 1415 399 1415 399 1393 c 2,6,-1
 399 1260 l 2,7,8
 399 1237 399 1237 390 1228 c 128,-1,9
 381 1219 381 1219 358 1219 c 2,10,-1
 225 1219 l 2,11,12
 203 1219 203 1219 193.5 1228 c 128,-1,13
 184 1237 184 1237 184 1260 c 2,14,-1
 184 1393 l 2,0,1
199 20 m 2,15,-1
 199 1075 l 2,16,17
 199 1096 199 1096 219 1096 c 2,18,-1
 362 1096 l 2,19,20
 383 1096 383 1096 383 1075 c 2,21,-1
 383 20 l 2,22,23
 383 0 383 0 362 0 c 2,24,-1
 219 0 l 2,25,26
 199 0 199 0 199 20 c 2,15,-1
EndSplineSet
EndChar

StartChar: j
Encoding: 106 106 77
Width: 651
GlyphClass: 2
Flags: W
LayerCount: 2
Fore
SplineSet
-184 -201 m 2,0,1
 -184 -176 -184 -176 -164 -184 c 0,2,3
 -62 -225 -62 -225 41 -225 c 0,4,5
 266 -225 266 -225 266 82 c 2,6,-1
 266 1075 l 2,7,8
 266 1095 266 1095 287 1096 c 1,9,-1
 430 1096 l 2,10,11
 450 1096 450 1096 451 1075 c 1,12,-1
 451 82 l 2,13,14
 451 -131 451 -131 345.5 -250 c 128,-1,15
 240 -369 240 -369 61 -369 c 0,16,17
 -45 -369 -45 -369 -135 -338 c 2,18,-1
 -164 -328 l 1,19,20
 -184 -318 -184 -318 -184 -301 c 2,21,-1
 -184 -201 l 2,0,1
252 1260 m 2,22,-1
 252 1393 l 2,23,24
 252 1416 252 1416 261 1425 c 128,-1,25
 270 1434 270 1434 293 1434 c 2,26,-1
 426 1434 l 2,27,28
 449 1434 449 1434 458 1424.5 c 128,-1,29
 467 1415 467 1415 467 1393 c 2,30,-1
 467 1260 l 2,31,32
 467 1237 467 1237 458 1228 c 128,-1,33
 449 1219 449 1219 426 1219 c 2,34,-1
 293 1219 l 2,35,36
 270 1219 270 1219 261 1228 c 128,-1,37
 252 1237 252 1237 252 1260 c 2,22,-1
EndSplineSet
EndChar

StartChar: k
Encoding: 107 107 78
Width: 1243
GlyphClass: 2
Flags: W
LayerCount: 2
Fore
SplineSet
205 20 m 2,0,-1
 205 1413 l 2,1,2
 205 1433 205 1433 225 1434 c 1,3,-1
 369 1434 l 2,4,5
 389 1434 389 1434 389 1413 c 2,6,-1
 389 625 l 1,7,-1
 492 625 l 2,8,9
 660 625 660 625 758 778 c 1,10,-1
 944 1075 l 1,11,12
 958 1095 958 1095 975 1096 c 1,13,-1
 1133 1096 l 2,14,15
 1164 1096 1164 1096 1147 1071 c 1,16,-1
 952 758 l 2,17,18
 846 588 846 588 696 563 c 1,19,20
 852 540 852 540 973 348 c 2,21,-1
 1176 25 l 2,22,23
 1182 16 1182 16 1181.5 8 c 128,-1,24
 1181 0 1181 0 1161 0 c 2,25,-1
 1004 0 l 2,26,27
 988 0 988 0 973 20 c 1,28,-1
 778 328 l 2,29,30
 680 482 680 482 512 481 c 1,31,-1
 389 481 l 1,32,-1
 389 20 l 2,33,34
 389 0 389 0 369 0 c 2,35,-1
 225 0 l 2,36,37
 205 0 205 0 205 20 c 2,0,-1
EndSplineSet
EndChar

StartChar: l
Encoding: 108 108 79
Width: 594
GlyphClass: 2
Flags: W
LayerCount: 2
Fore
SplineSet
205 20 m 2,0,-1
 205 1413 l 2,1,2
 205 1434 205 1434 225 1434 c 2,3,-1
 369 1434 l 2,4,5
 389 1434 389 1434 389 1413 c 2,6,-1
 389 20 l 2,7,8
 389 0 389 0 369 0 c 2,9,-1
 225 0 l 2,10,11
 205 0 205 0 205 20 c 2,0,-1
EndSplineSet
EndChar

StartChar: m
Encoding: 109 109 80
Width: 2028
GlyphClass: 2
Flags: W
LayerCount: 2
Fore
SplineSet
205 20 m 2,0,-1
 205 1075 l 2,1,2
 205 1096 205 1096 225 1096 c 2,3,-1
 338 1096 l 2,4,5
 358 1096 358 1096 360 1075 c 1,6,-1
 379 963 l 1,7,8
 385 969 385 969 395.5 980 c 128,-1,9
 406 991 406 991 439.5 1020 c 128,-1,10
 473 1049 473 1049 510 1070 c 0,11,12
 606 1126 606 1126 722 1126 c 128,-1,13
 838 1126 838 1126 928 1070 c 128,-1,14
 1018 1014 1018 1014 1065 911 c 1,15,16
 1094 954 1094 954 1136 996 c 128,-1,17
 1178 1038 1178 1038 1264 1082 c 128,-1,18
 1350 1126 1350 1126 1444 1126 c 0,19,20
 1626 1126 1626 1126 1734.5 1003.5 c 128,-1,21
 1843 881 1843 881 1843 655 c 2,22,-1
 1843 20 l 2,23,24
 1843 0 1843 0 1823 0 c 2,25,-1
 1679 0 l 2,26,27
 1659 0 1659 0 1659 20 c 2,28,-1
 1659 655 l 2,29,30
 1659 817 1659 817 1595.5 900 c 128,-1,31
 1532 983 1532 983 1442 983 c 128,-1,32
 1352 983 1352 983 1273 927.5 c 128,-1,33
 1194 872 1194 872 1155 823 c 128,-1,34
 1116 774 1116 774 1116 768 c 2,35,-1
 1116 20 l 2,36,37
 1116 0 1116 0 1096 0 c 2,38,-1
 952 0 l 2,39,40
 932 0 932 0 932 20 c 2,41,-1
 932 655 l 2,42,43
 932 817 932 817 868.5 900 c 128,-1,44
 805 983 805 983 715 983 c 128,-1,45
 625 983 625 983 546 927.5 c 128,-1,46
 467 872 467 872 428 823 c 128,-1,47
 389 774 389 774 389 768 c 2,48,-1
 389 20 l 2,49,50
 389 0 389 0 369 0 c 2,51,-1
 225 0 l 2,52,53
 205 0 205 0 205 20 c 2,0,-1
EndSplineSet
EndChar

StartChar: n
Encoding: 110 110 81
Width: 1393
GlyphClass: 2
Flags: W
LayerCount: 2
Fore
SplineSet
205 20 m 2,0,-1
 205 1075 l 2,1,2
 205 1096 205 1096 225 1096 c 2,3,-1
 338 1096 l 2,4,5
 358 1096 358 1096 360 1075 c 1,6,-1
 379 963 l 1,7,8
 391 980 391 980 431 1014.5 c 128,-1,9
 471 1049 471 1049 509 1070 c 0,10,11
 607 1126 607 1126 737 1126 c 0,12,13
 944 1126 944 1126 1076 998 c 128,-1,14
 1208 870 1208 870 1208 645 c 2,15,-1
 1208 20 l 2,16,17
 1208 0 1208 0 1188 0 c 2,18,-1
 1044 0 l 2,19,20
 1024 0 1024 0 1024 20 c 2,21,-1
 1024 645 l 2,22,23
 1024 807 1024 807 940 895 c 128,-1,24
 856 983 856 983 727 983 c 0,25,26
 668 983 668 983 610.5 960.5 c 128,-1,27
 553 938 553 938 515 907.5 c 128,-1,28
 477 877 477 877 448 845 c 0,29,30
 389 782 389 782 389 768 c 2,31,-1
 389 20 l 2,32,33
 389 0 389 0 369 0 c 2,34,-1
 225 0 l 2,35,36
 205 0 205 0 205 20 c 2,0,-1
EndSplineSet
EndChar

StartChar: o
Encoding: 111 111 82
Width: 1311
GlyphClass: 2
Flags: W
LayerCount: 2
Fore
SplineSet
269.5 119.5 m 128,-1,1
 123 270 123 270 123 549.5 c 128,-1,2
 123 829 123 829 269.5 977.5 c 128,-1,3
 416 1126 416 1126 655.5 1126 c 128,-1,4
 895 1126 895 1126 1041.5 977.5 c 128,-1,5
 1188 829 1188 829 1188 549.5 c 128,-1,6
 1188 270 1188 270 1041.5 119.5 c 128,-1,7
 895 -31 895 -31 655.5 -31 c 128,-1,0
 416 -31 416 -31 269.5 119.5 c 128,-1,1
403.5 874.5 m 128,-1,9
 307 766 307 766 307 550 c 128,-1,10
 307 334 307 334 403.5 223.5 c 128,-1,11
 500 113 500 113 655.5 113 c 128,-1,12
 811 113 811 113 907.5 223.5 c 128,-1,13
 1004 334 1004 334 1004 550 c 128,-1,14
 1004 766 1004 766 907.5 874.5 c 128,-1,15
 811 983 811 983 655.5 983 c 128,-1,8
 500 983 500 983 403.5 874.5 c 128,-1,9
EndSplineSet
EndChar

StartChar: p
Encoding: 112 112 83
Width: 1341
GlyphClass: 2
Flags: W
LayerCount: 2
Fore
SplineSet
205 -317 m 2,0,-1
 205 1075 l 2,1,2
 205 1095 205 1095 225 1096 c 1,3,-1
 338 1096 l 2,4,5
 358 1096 358 1096 360 1075 c 1,6,-1
 379 963 l 1,7,8
 390 980 390 980 429.5 1014.5 c 128,-1,9
 469 1049 469 1049 505 1070 c 0,10,11
 598 1126 598 1126 717 1126 c 0,12,13
 936 1126 936 1126 1077.5 977.5 c 128,-1,14
 1219 829 1219 829 1219 549 c 128,-1,15
 1219 269 1219 269 1073.5 119 c 128,-1,16
 928 -31 928 -31 696 -31 c 0,17,18
 618 -31 618 -31 541.5 -15.5 c 128,-1,19
 465 0 465 0 426 16 c 2,20,-1
 389 31 l 1,21,-1
 389 -317 l 2,22,23
 389 -337 389 -337 369 -338 c 1,24,-1
 225 -338 l 1,25,26
 205 -337 205 -337 205 -317 c 2,0,-1
389 174 m 1,27,28
 522 113 522 113 680 113 c 128,-1,29
 838 113 838 113 936 221.5 c 128,-1,30
 1034 330 1034 330 1034 546 c 128,-1,31
 1034 762 1034 762 944 872.5 c 128,-1,32
 854 983 854 983 707 983 c 0,33,34
 564 983 564 983 446 845 c 0,35,36
 389 779 389 779 389 768 c 2,37,-1
 389 174 l 1,27,28
EndSplineSet
EndChar

StartChar: q
Encoding: 113 113 84
Width: 1341
GlyphClass: 2
Flags: W
LayerCount: 2
Fore
SplineSet
268.5 119 m 128,-1,1
 123 269 123 269 123 547.5 c 128,-1,2
 123 826 123 826 269.5 976 c 128,-1,3
 416 1126 416 1126 655 1126 c 0,4,5
 786 1126 786 1126 907 1095.5 c 128,-1,6
 1028 1065 1028 1065 1081 1034 c 1,7,-1
 1137 1004 l 1,8,-1
 1137 -317 l 2,9,10
 1137 -337 1137 -337 1116 -338 c 1,11,-1
 973 -338 l 2,12,13
 953 -338 953 -338 952 -317 c 1,14,-1
 952 31 l 1,15,16
 819 -30 819 -30 645 -31 c 1,17,0
 414 -31 414 -31 268.5 119 c 128,-1,1
406.5 873.5 m 128,-1,19
 307 764 307 764 307 547 c 128,-1,20
 307 330 307 330 405.5 221.5 c 128,-1,21
 504 113 504 113 662 113 c 128,-1,22
 820 113 820 113 952 174 c 1,23,-1
 952 922 l 2,24,25
 952 924 952 924 917.5 938 c 128,-1,26
 883 952 883 952 813 967.5 c 128,-1,27
 743 983 743 983 676 983 c 0,28,18
 506 983 506 983 406.5 873.5 c 128,-1,19
EndSplineSet
EndChar

StartChar: r
Encoding: 114 114 85
Width: 963
GlyphClass: 2
Flags: W
LayerCount: 2
Fore
SplineSet
205 20 m 2,0,-1
 205 1075 l 2,1,2
 205 1096 205 1096 225 1096 c 2,3,-1
 338 1096 l 2,4,5
 358 1096 358 1096 360 1075 c 2,6,-1
 379 901 l 1,7,-1
 395 924 l 1,8,9
 406 938 406 938 445.5 976 c 128,-1,10
 485 1014 485 1014 533.5 1041.5 c 128,-1,11
 582 1069 582 1069 661.5 1092.5 c 128,-1,12
 741 1116 741 1116 829 1116 c 2,13,-1
 911 1116 l 2,14,15
 932 1116 932 1116 932 1096 c 2,16,-1
 932 973 l 2,17,18
 932 952 932 952 911 952 c 2,19,-1
 850 952 l 2,20,21
 750 952 750 952 666 926.5 c 128,-1,22
 582 901 582 901 532 865 c 0,23,24
 431 791 431 791 401 733 c 1,25,-1
 389 707 l 1,26,-1
 389 20 l 2,27,28
 389 0 389 0 369 0 c 2,29,-1
 225 0 l 2,30,31
 205 0 205 0 205 20 c 2,0,-1
EndSplineSet
EndChar

StartChar: s
Encoding: 115 115 86
Width: 1210
GlyphClass: 2
Flags: W
LayerCount: 2
Fore
SplineSet
104 293 m 0,0,1
 103 298 103 298 103 301 c 0,2,3
 103 317 103 317 125 317 c 2,4,-1
 254 317 l 2,5,6
 266 317 266 317 279 297 c 1,7,8
 381 113 381 113 637 113 c 0,9,10
 782 113 782 113 853 156 c 128,-1,11
 924 199 924 199 924 264 c 128,-1,12
 924 329 924 329 875.5 370.5 c 128,-1,13
 827 412 827 412 709 440 c 2,14,-1
 453 502 l 2,15,16
 125 582 125 582 125 819 c 0,17,18
 125 954 125 954 247 1040 c 128,-1,19
 369 1126 369 1126 582 1126 c 128,-1,20
 795 1126 795 1126 926 1038 c 128,-1,21
 1057 950 1057 950 1098 803 c 0,22,23
 1104 778 1104 778 1077 778 c 2,24,-1
 948 778 l 2,25,26
 936 778 936 778 924 799 c 0,27,28
 822 983 822 983 586 983 c 0,29,30
 449 983 449 983 379 939 c 128,-1,31
 309 895 309 895 309 830.5 c 128,-1,32
 309 766 309 766 357.5 725 c 128,-1,33
 406 684 406 684 524 655 c 2,34,-1
 780 594 l 2,35,36
 1108 516 1108 516 1108 276 c 0,37,38
 1108 141 1108 141 984 55 c 128,-1,39
 860 -31 860 -31 637 -31 c 128,-1,40
 414 -31 414 -31 279.5 56 c 128,-1,41
 145 143 145 143 104 293 c 0,0,1
EndSplineSet
EndChar

StartChar: t
Encoding: 116 116 87
Width: 963
GlyphClass: 2
Flags: W
LayerCount: 2
Fore
SplineSet
205 420 m 2,0,-1
 205 1413 l 2,1,2
 205 1434 205 1434 225 1434 c 2,3,-1
 369 1434 l 2,4,5
 389 1434 389 1434 389 1413 c 2,6,-1
 389 1096 l 1,7,-1
 807 1096 l 2,8,9
 827 1096 827 1096 827 1075 c 2,10,-1
 827 973 l 2,11,12
 827 952 827 952 807 952 c 2,13,-1
 389 952 l 1,14,-1
 389 420 l 2,15,16
 389 268 389 268 459.5 190.5 c 128,-1,17
 530 113 530 113 655 113 c 0,18,19
 765 113 765 113 852 143 c 1,20,-1
 881 154 l 2,21,22
 901 162 901 162 901 137 c 2,23,-1
 901 37 l 2,24,25
 901 20 901 20 881 10 c 1,26,27
 778 -31 778 -31 635 -31 c 0,28,29
 438 -31 438 -31 321.5 93 c 128,-1,30
 205 217 205 217 205 420 c 2,0,-1
EndSplineSet
EndChar

StartChar: u
Encoding: 117 117 88
Width: 1413
GlyphClass: 2
Flags: W
LayerCount: 2
Fore
SplineSet
205 451 m 2,0,-1
 205 1075 l 2,1,2
 205 1095 205 1095 225 1096 c 1,3,-1
 369 1096 l 2,4,5
 389 1096 389 1096 389 1075 c 2,6,-1
 389 451 l 2,7,8
 389 289 389 289 473 201 c 128,-1,9
 557 113 557 113 686 113 c 0,10,11
 745 113 745 113 802.5 135.5 c 128,-1,12
 860 158 860 158 898 188.5 c 128,-1,13
 936 219 936 219 966 251 c 0,14,15
 1024 314 1024 314 1024 328 c 2,16,-1
 1024 1075 l 2,17,18
 1024 1095 1024 1095 1044 1096 c 1,19,-1
 1188 1096 l 2,20,21
 1208 1096 1208 1096 1208 1075 c 2,22,-1
 1208 20 l 2,23,24
 1208 0 1208 0 1188 0 c 2,25,-1
 1075 0 l 2,26,27
 1055 0 1055 0 1053 20 c 1,28,-1
 1034 133 l 1,29,30
 1021 113 1021 113 981.5 80 c 128,-1,31
 942 47 942 47 904 26 c 0,32,33
 804 -31 804 -31 676 -31 c 0,34,35
 469 -31 469 -31 337 97.5 c 128,-1,36
 205 226 205 226 205 451 c 2,0,-1
EndSplineSet
EndChar

StartChar: v
Encoding: 118 118 89
Width: 1253
GlyphClass: 2
Flags: W
LayerCount: 2
Fore
SplineSet
63 1075 m 2,0,1
 60 1081 60 1081 61 1085 c 1,2,3
 61 1096 61 1096 80 1096 c 2,4,-1
 217 1096 l 2,5,6
 237 1096 237 1096 248 1075 c 1,7,-1
 627 205 l 1,8,-1
 1006 1075 l 1,9,10
 1016 1095 1016 1095 1036 1096 c 1,11,-1
 1174 1096 l 2,12,13
 1193 1096 1193 1096 1193 1085 c 0,14,15
 1193 1081 1193 1081 1190 1075 c 2,16,-1
 750 61 l 1,17,18
 721 0 721 0 668 0 c 2,19,-1
 586 0 l 2,20,21
 533 0 533 0 504 61 c 1,22,-1
 63 1075 l 2,0,1
EndSplineSet
EndChar

StartChar: w
Encoding: 119 119 90
Width: 1790
GlyphClass: 2
Flags: W
LayerCount: 2
Fore
SplineSet
63 1075 m 2,0,1
 61 1079 61 1079 61 1083 c 0,2,3
 61 1096 61 1096 80 1096 c 2,4,-1
 219 1096 l 2,5,6
 244 1096 244 1096 250 1075 c 2,7,-1
 526 246 l 1,8,-1
 782 1034 l 2,9,10
 803 1096 803 1096 864 1096 c 2,11,-1
 926 1096 l 2,12,13
 987 1096 987 1096 1008 1034 c 2,14,-1
 1264 246 l 1,15,-1
 1540 1075 l 2,16,17
 1546 1096 1546 1096 1571 1096 c 2,18,-1
 1710 1096 l 2,19,20
 1729 1096 1729 1096 1729 1083 c 0,21,22
 1729 1079 1729 1079 1726 1075 c 1,23,-1
 1386 61 l 1,24,25
 1374 29 1374 29 1357.5 14.5 c 128,-1,26
 1341 0 1341 0 1305 0 c 2,27,-1
 1233 0 l 2,28,29
 1169 0 1169 0 1151 61 c 1,30,-1
 895 850 l 1,31,-1
 639 61 l 1,32,33
 621 0 621 0 557 0 c 2,34,-1
 485 0 l 2,35,36
 449 0 449 0 432.5 14.5 c 128,-1,37
 416 29 416 29 403 61 c 1,38,-1
 63 1075 l 2,0,1
EndSplineSet
EndChar

StartChar: x
Encoding: 120 120 91
Width: 1161
GlyphClass: 2
Flags: W
LayerCount: 2
Fore
SplineSet
82 0 m 2,0,1
 66 0 66 0 64 8.5 c 128,-1,2
 62 17 62 17 66 20 c 1,3,-1
 477 547 l 1,4,-1
 66 1075 l 2,5,6
 63 1078 63 1078 62 1082 c 1,7,8
 62 1096 62 1096 82 1096 c 2,9,-1
 229 1096 l 2,10,11
 254 1096 254 1096 270 1075 c 2,12,-1
 580 678 l 1,13,-1
 891 1075 l 2,14,15
 907 1095 907 1095 932 1096 c 1,16,-1
 1079 1096 l 2,17,18
 1099 1096 1099 1096 1099 1082 c 0,19,20
 1099 1078 1099 1078 1096 1075 c 2,21,-1
 682 547 l 1,22,-1
 1096 20 l 2,23,24
 1099 17 1099 17 1099 13 c 0,25,26
 1099 0 1099 0 1079 0 c 2,27,-1
 932 0 l 2,28,29
 907 0 907 0 891 20 c 2,30,-1
 580 416 l 1,31,-1
 270 20 l 2,32,33
 254 0 254 0 229 0 c 2,34,-1
 82 0 l 2,0,1
EndSplineSet
EndChar

StartChar: y
Encoding: 121 121 92
Width: 1180
GlyphClass: 2
Flags: W
LayerCount: 2
Fore
SplineSet
43 1075 m 2,0,1
 41 1079 41 1079 41 1083 c 0,2,3
 41 1096 41 1096 59 1096 c 2,4,-1
 197 1096 l 2,5,6
 221 1096 221 1096 227 1075 c 1,7,-1
 455 420 l 2,8,9
 500 293 500 293 558 238.5 c 128,-1,10
 616 184 616 184 717 184 c 1,11,-1
 952 1075 l 2,12,13
 958 1096 958 1096 983 1096 c 2,14,-1
 1120 1096 l 2,15,16
 1139 1096 1139 1096 1139 1083 c 0,17,18
 1139 1079 1139 1079 1137 1075 c 2,19,-1
 864 41 l 2,20,21
 807 -174 807 -174 712.5 -271.5 c 128,-1,22
 618 -369 618 -369 465 -369 c 0,23,24
 358 -369 358 -369 268 -338 c 1,25,-1
 240 -328 l 1,26,27
 219 -317 219 -317 219 -301 c 2,28,-1
 219 -201 l 2,29,30
 219 -176 219 -176 240 -184 c 0,31,32
 342 -225 342 -225 440.5 -225 c 128,-1,33
 539 -225 539 -225 591 -168 c 128,-1,34
 643 -111 643 -111 680 41 c 1,35,36
 520 41 520 41 432 125 c 128,-1,37
 344 209 344 209 270 422 c 2,38,-1
 43 1075 l 2,0,1
EndSplineSet
EndChar

StartChar: z
Encoding: 122 122 93
Width: 1143
GlyphClass: 2
Flags: W
LayerCount: 2
Fore
SplineSet
102 20 m 2,0,-1
 102 113 l 2,1,2
 102 135 102 135 115 147 c 1,3,-1
 805 952 l 1,4,-1
 123 952 l 2,5,6
 102 952 102 952 102 973 c 2,7,-1
 102 1075 l 2,8,9
 102 1096 102 1096 123 1096 c 2,10,-1
 1020 1096 l 2,11,12
 1040 1096 1040 1096 1040 1075 c 2,13,-1
 1040 983 l 2,14,15
 1040 961 1040 961 1028 948 c 2,16,-1
 334 143 l 1,17,-1
 1020 143 l 2,18,19
 1040 143 1040 143 1040 123 c 2,20,-1
 1040 20 l 2,21,22
 1040 0 1040 0 1020 0 c 2,23,-1
 123 0 l 2,24,25
 102 0 102 0 102 20 c 2,0,-1
EndSplineSet
EndChar

StartChar: braceleft
Encoding: 123 123 94
Width: 725
GlyphClass: 2
Flags: W
LayerCount: 2
Fore
SplineSet
41 532 m 2,0,-1
 41 635 l 2,1,2
 41 655 41 655 61 655 c 0,3,4
 152 655 152 655 209 714.5 c 128,-1,5
 266 774 266 774 266 891 c 2,6,-1
 266 1126 l 2,7,8
 266 1307 266 1307 376.5 1406 c 128,-1,9
 487 1505 487 1505 676 1505 c 2,10,-1
 705 1505 l 2,11,12
 725 1505 725 1505 725 1485 c 2,13,-1
 725 1382 l 2,14,15
 725 1362 725 1362 705 1362 c 2,16,-1
 676 1362 l 2,17,18
 571 1362 571 1362 511 1303.5 c 128,-1,19
 451 1245 451 1245 451 1126 c 2,20,-1
 451 891 l 2,21,22
 451 776 451 776 396.5 691 c 128,-1,23
 342 606 342 606 256 584 c 1,24,25
 342 561 342 561 396.5 476 c 128,-1,26
 451 391 451 391 451 276 c 2,27,-1
 451 41 l 2,28,29
 451 -78 451 -78 511 -136.5 c 128,-1,30
 571 -195 571 -195 676 -195 c 2,31,-1
 705 -195 l 2,32,33
 725 -195 725 -195 725 -215 c 2,34,-1
 725 -317 l 2,35,36
 725 -338 725 -338 705 -338 c 2,37,-1
 676 -338 l 2,38,39
 487 -338 487 -338 376.5 -238.5 c 128,-1,40
 266 -139 266 -139 266 41 c 2,41,-1
 266 276 l 2,42,43
 266 393 266 393 209 452.5 c 128,-1,44
 152 512 152 512 61 512 c 0,45,46
 41 512 41 512 41 532 c 2,0,-1
EndSplineSet
EndChar

StartChar: bar
Encoding: 124 124 95
Width: 594
GlyphClass: 2
Flags: W
LayerCount: 2
Fore
SplineSet
205 -317 m 2,0,-1
 205 1413 l 2,1,2
 205 1434 205 1434 225 1434 c 2,3,-1
 369 1434 l 2,4,5
 389 1434 389 1434 389 1413 c 2,6,-1
 389 -317 l 2,7,8
 389 -338 389 -338 369 -338 c 2,9,-1
 225 -338 l 2,10,11
 205 -338 205 -338 205 -317 c 2,0,-1
EndSplineSet
EndChar

StartChar: braceright
Encoding: 125 125 96
Width: 725
GlyphClass: 2
Flags: W
LayerCount: 2
Fore
SplineSet
0 -215 m 2,0,1
 0 -195 0 -195 20 -195 c 2,2,-1
 49 -195 l 2,3,4
 154 -195 154 -195 214 -136.5 c 128,-1,5
 274 -78 274 -78 274 41 c 2,6,-1
 274 276 l 2,7,8
 274 391 274 391 328.5 476 c 128,-1,9
 383 561 383 561 469 584 c 1,10,11
 383 606 383 606 328.5 691 c 128,-1,12
 274 776 274 776 274 891 c 2,13,-1
 274 1126 l 2,14,15
 274 1245 274 1245 214 1303.5 c 128,-1,16
 154 1362 154 1362 49 1362 c 2,17,-1
 20 1362 l 2,18,19
 0 1362 0 1362 0 1382 c 2,20,-1
 0 1485 l 2,21,22
 0 1505 0 1505 20 1505 c 2,23,-1
 49 1505 l 2,24,25
 238 1505 238 1505 348.5 1406 c 128,-1,26
 459 1307 459 1307 459 1126 c 2,27,-1
 459 891 l 2,28,29
 459 774 459 774 516 714.5 c 128,-1,30
 573 655 573 655 664 655 c 0,31,32
 684 655 684 655 684 635 c 2,33,-1
 684 532 l 2,34,35
 684 512 684 512 664 512 c 0,36,37
 573 512 573 512 516 452.5 c 128,-1,38
 459 393 459 393 459 276 c 2,39,-1
 459 41 l 2,40,41
 459 -139 459 -139 348.5 -238.5 c 128,-1,42
 238 -338 238 -338 49 -338 c 2,43,-1
 20 -338 l 2,44,45
 0 -338 0 -338 0 -317 c 2,46,-1
 0 -215 l 2,0,1
EndSplineSet
EndChar

StartChar: asciitilde
Encoding: 126 126 97
Width: 1126
GlyphClass: 2
Flags: W
LayerCount: 2
Fore
SplineSet
82 547 m 1,0,1
 90 686 90 686 170 763 c 128,-1,2
 250 840 250 840 369 840 c 0,3,4
 443 840 443 840 514.5 799 c 128,-1,5
 586 758 586 758 647.5 717 c 128,-1,6
 709 676 709 676 756 676 c 128,-1,7
 803 676 803 676 838.5 715 c 128,-1,8
 874 754 874 754 887 809 c 1,9,10
 893 829 893 829 911 829 c 2,11,-1
 1024 829 l 2,12,13
 1044 829 1044 829 1044 805 c 1,14,15
 1036 666 1036 666 956.5 589 c 128,-1,16
 877 512 877 512 758 512 c 0,17,18
 684 512 684 512 612.5 553 c 128,-1,19
 541 594 541 594 479.5 635 c 128,-1,20
 418 676 418 676 371 676 c 128,-1,21
 324 676 324 676 288 637 c 128,-1,22
 252 598 252 598 240 543 c 1,23,24
 234 523 234 523 215 522 c 1,25,-1
 102 522 l 2,26,27
 82 522 82 522 82 547 c 1,0,1
EndSplineSet
EndChar

StartChar: exclamdown
Encoding: 161 161 99
Width: 512
GlyphClass: 2
Flags: W
LayerCount: 2
Fore
SplineSet
143 -317 m 2,0,-1
 184 717 l 2,1,2
 184 737 184 737 205 737 c 2,3,-1
 307 737 l 2,4,5
 327 737 327 737 328 717 c 2,6,-1
 369 -317 l 2,7,8
 369 -337 369 -337 348 -338 c 1,9,-1
 164 -338 l 1,10,11
 143 -337 143 -337 143 -317 c 2,0,-1
150 932 m 2,12,-1
 150 1065 l 2,13,14
 150 1088 150 1088 159 1097 c 128,-1,15
 168 1106 168 1106 190 1106 c 2,16,-1
 324 1106 l 2,17,18
 347 1106 347 1106 356 1096.5 c 128,-1,19
 365 1087 365 1087 365 1065 c 2,20,-1
 365 932 l 2,21,22
 365 909 365 909 355.5 900 c 128,-1,23
 346 891 346 891 324 891 c 2,24,-1
 190 891 l 2,25,26
 167 891 167 891 158.5 900 c 128,-1,27
 150 909 150 909 150 932 c 2,12,-1
EndSplineSet
EndChar

StartChar: cent
Encoding: 162 162 100
Width: 1282
GlyphClass: 2
Flags: W
LayerCount: 2
Fore
SplineSet
241.5 150.5 m 128,-1,1
 123 299 123 299 123 550 c 128,-1,2
 123 801 123 801 241.5 946.5 c 128,-1,3
 360 1092 360 1092 563 1120 c 1,4,-1
 563 1280 l 2,5,6
 563 1300 563 1300 584 1300 c 2,7,-1
 727 1300 l 2,8,9
 747 1300 747 1300 748 1280 c 1,10,-1
 748 1120 l 1,11,12
 910 1100 910 1100 1011 1013 c 128,-1,13
 1112 926 1112 926 1147 782 c 0,14,15
 1153 757 1153 757 1126 758 c 1,16,-1
 997 758 l 2,17,18
 983 758 983 758 973 778 c 0,19,20
 879 983 879 983 655 983 c 0,21,22
 499 983 499 983 403 874.5 c 128,-1,23
 307 766 307 766 307 550 c 128,-1,24
 307 334 307 334 403.5 223.5 c 128,-1,25
 500 113 500 113 640 113 c 128,-1,26
 780 113 780 113 857 164 c 128,-1,27
 934 215 934 215 983 317 c 0,28,29
 993 337 993 337 1008 338 c 1,30,-1
 1137 338 l 2,31,32
 1164 338 1164 338 1157 313 c 0,33,34
 1085 12 1085 12 748 -25 c 1,35,-1
 748 -184 l 2,36,37
 748 -204 748 -204 727 -205 c 1,38,-1
 584 -205 l 2,39,40
 564 -205 564 -205 563 -184 c 1,41,-1
 563 -25 l 1,42,0
 360 2 360 2 241.5 150.5 c 128,-1,1
EndSplineSet
EndChar

StartChar: sterling
Encoding: 163 163 101
Width: 1217
GlyphClass: 2
Flags: W
LayerCount: 2
Fore
SplineSet
82 20 m 2,0,-1
 82 123 l 2,1,2
 82 143 82 143 102 143 c 0,3,4
 287 143 287 143 287 410 c 2,5,-1
 287 676 l 1,6,-1
 143 676 l 2,7,8
 123 676 123 676 123 696 c 2,9,-1
 123 799 l 2,10,11
 123 819 123 819 143 819 c 2,12,-1
 287 819 l 1,13,-1
 287 1014 l 2,14,15
 287 1219 287 1219 409.5 1341.5 c 128,-1,16
 532 1464 532 1464 758 1464 c 0,17,18
 922 1464 922 1464 1024 1415 c 0,19,20
 1044 1405 1044 1405 1044 1389 c 2,21,-1
 1044 1288 l 2,22,23
 1044 1264 1044 1264 1024 1272 c 1,24,25
 922 1321 922 1321 778 1321 c 0,26,27
 471 1321 471 1321 471 1014 c 2,28,-1
 471 819 l 1,29,-1
 840 819 l 2,30,31
 860 819 860 819 860 799 c 2,32,-1
 860 696 l 2,33,34
 860 676 860 676 840 676 c 2,35,-1
 471 676 l 1,36,-1
 471 410 l 2,37,38
 471 236 471 236 379 143 c 1,39,-1
 1155 143 l 2,40,41
 1176 143 1176 143 1176 123 c 2,42,-1
 1176 20 l 2,43,44
 1176 0 1176 0 1155 0 c 2,45,-1
 102 0 l 2,46,47
 82 0 82 0 82 20 c 2,0,-1
EndSplineSet
EndChar

StartChar: currency
Encoding: 164 164 102
Width: 1444
GlyphClass: 2
Flags: W
LayerCount: 2
Fore
SplineSet
61 369 m 2,0,-1
 61 451 l 2,1,2
 61 471 61 471 82 471 c 2,3,-1
 215 471 l 1,4,-1
 215 594 l 1,5,-1
 82 594 l 2,6,7
 61 594 61 594 61 614 c 2,8,-1
 61 696 l 2,9,10
 61 717 61 717 82 717 c 2,11,-1
 215 717 l 1,12,-1
 215 1413 l 2,13,14
 215 1434 215 1434 236 1434 c 2,15,-1
 829 1434 l 2,16,17
 1081 1434 1081 1434 1221.5 1321 c 128,-1,18
 1362 1208 1362 1208 1362 1013.5 c 128,-1,19
 1362 819 1362 819 1221.5 706.5 c 128,-1,20
 1081 594 1081 594 829 594 c 2,21,-1
 399 594 l 1,22,-1
 399 471 l 1,23,-1
 922 471 l 2,24,25
 942 471 942 471 942 451 c 2,26,-1
 942 369 l 2,27,28
 942 348 942 348 922 348 c 2,29,-1
 399 348 l 1,30,-1
 399 20 l 2,31,32
 399 0 399 0 379 0 c 2,33,-1
 236 0 l 2,34,35
 215 0 215 0 215 20 c 2,36,-1
 215 348 l 1,37,-1
 82 348 l 2,38,39
 61 348 61 348 61 369 c 2,0,-1
399 717 m 1,40,-1
 829 717 l 2,41,42
 983 717 983 717 1080.5 799 c 128,-1,43
 1178 881 1178 881 1178 1003.5 c 128,-1,44
 1178 1126 1178 1126 1080.5 1208 c 128,-1,45
 983 1290 983 1290 829 1290 c 2,46,-1
 399 1290 l 1,47,-1
 399 717 l 1,40,-1
EndSplineSet
EndChar

StartChar: yen
Encoding: 165 165 103
Width: 1311
GlyphClass: 2
Flags: W
LayerCount: 2
Fore
SplineSet
61 1434 m 2,0,-1
 205 1434 l 2,1,2
 231 1434 231 1434 246 1413 c 1,3,-1
 655 737 l 1,4,-1
 1065 1413 l 1,5,6
 1079 1434 1079 1434 1106 1434 c 2,7,-1
 1249 1434 l 2,8,9
 1262 1434 1262 1434 1267 1426.5 c 128,-1,10
 1272 1419 1272 1419 1266 1413 c 1,11,-1
 809 666 l 1,12,-1
 1055 666 l 2,13,14
 1075 666 1075 666 1075 645 c 2,15,-1
 1075 563 l 2,16,17
 1075 543 1075 543 1055 543 c 2,18,-1
 748 543 l 1,19,-1
 748 420 l 1,20,-1
 1055 420 l 2,21,22
 1075 420 1075 420 1075 399 c 2,23,-1
 1075 317 l 2,24,25
 1075 297 1075 297 1055 297 c 2,26,-1
 748 297 l 1,27,-1
 748 20 l 2,28,29
 748 0 748 0 727 0 c 2,30,-1
 584 0 l 2,31,32
 563 0 563 0 563 20 c 2,33,-1
 563 297 l 1,34,-1
 256 297 l 2,35,36
 236 297 236 297 236 317 c 2,37,-1
 236 399 l 2,38,39
 236 420 236 420 256 420 c 2,40,-1
 563 420 l 1,41,-1
 563 543 l 1,42,-1
 256 543 l 2,43,44
 236 543 236 543 236 563 c 2,45,-1
 236 645 l 2,46,47
 236 666 236 666 256 666 c 2,48,-1
 500 666 l 1,49,-1
 45 1413 l 1,50,51
 39 1419 39 1419 44 1426.5 c 128,-1,52
 49 1434 49 1434 61 1434 c 2,0,-1
EndSplineSet
EndChar

StartChar: brokenbar
Encoding: 166 166 104
Width: 594
GlyphClass: 2
Flags: W
LayerCount: 2
Fore
SplineSet
205 -317 m 2,0,-1
 205 399 l 2,1,2
 205 420 205 420 225 420 c 2,3,-1
 369 420 l 2,4,5
 389 420 389 420 389 399 c 2,6,-1
 389 -317 l 2,7,8
 389 -338 389 -338 369 -338 c 2,9,-1
 225 -338 l 2,10,11
 205 -338 205 -338 205 -317 c 2,0,-1
205 696 m 2,12,-1
 205 1413 l 2,13,14
 205 1434 205 1434 225 1434 c 2,15,-1
 369 1434 l 2,16,17
 389 1434 389 1434 389 1413 c 2,18,-1
 389 696 l 2,19,20
 389 676 389 676 369 676 c 2,21,-1
 225 676 l 2,22,23
 205 676 205 676 205 696 c 2,12,-1
EndSplineSet
EndChar

StartChar: section
Encoding: 167 167 105
Width: 1274
GlyphClass: 2
Flags: W
LayerCount: 2
Fore
SplineSet
145 -45 m 0,0,1
 139 -20 139 -20 166 -20 c 2,2,-1
 295 -20 l 2,3,4
 307 -20 307 -20 319 -41 c 0,5,6
 369 -131 369 -131 449.5 -178 c 128,-1,7
 530 -225 530 -225 668 -225 c 0,8,9
 944 -225 944 -225 944 -31 c 0,10,11
 944 37 944 37 889 85 c 128,-1,12
 834 133 834 133 709 174 c 1,13,-1
 483 246 l 2,14,15
 309 301 309 301 227 387 c 128,-1,16
 145 473 145 473 145 615.5 c 128,-1,17
 145 758 145 758 283 858 c 1,18,-1
 299 870 l 1,19,20
 293 874 293 874 282.5 880.5 c 128,-1,21
 272 887 272 887 245.5 909.5 c 128,-1,22
 219 932 219 932 198 958 c 1,23,24
 145 1028 145 1028 145 1116 c 0,25,26
 145 1280 145 1280 265 1372 c 128,-1,27
 385 1464 385 1464 606 1464 c 128,-1,28
 827 1464 827 1464 957 1377 c 128,-1,29
 1087 1290 1087 1290 1128 1141 c 0,30,31
 1135 1116 1135 1116 1108 1116 c 2,32,-1
 979 1116 l 2,33,34
 967 1116 967 1116 954 1137 c 1,35,36
 905 1227 905 1227 824 1274 c 128,-1,37
 743 1321 743 1321 606 1321 c 0,38,39
 330 1321 330 1321 330 1126 c 0,40,41
 330 1059 330 1059 385 1011 c 128,-1,42
 440 963 440 963 565 922 c 1,43,-1
 791 850 l 2,44,45
 965 795 965 795 1046.5 709 c 128,-1,46
 1128 623 1128 623 1128 480.5 c 128,-1,47
 1128 338 1128 338 991 238 c 1,48,-1
 975 225 l 1,49,50
 981 221 981 221 991 215 c 128,-1,51
 1001 209 1001 209 1028 186.5 c 128,-1,52
 1055 164 1055 164 1076 138 c 0,53,54
 1128 70 1128 70 1128 -20 c 0,55,56
 1128 -184 1128 -184 1008.5 -276.5 c 128,-1,57
 889 -369 889 -369 667.5 -369 c 128,-1,58
 446 -369 446 -369 316 -282 c 128,-1,59
 186 -195 186 -195 145 -45 c 0,0,1
330 614 m 0,60,61
 330 528 330 528 389.5 477 c 128,-1,62
 449 426 449 426 565 389 c 2,63,-1
 852 297 l 1,64,65
 887 325 887 325 915.5 378.5 c 128,-1,66
 944 432 944 432 944 481 c 0,67,68
 944 567 944 567 884.5 618.5 c 128,-1,69
 825 670 825 670 709 707 c 2,70,-1
 422 799 l 1,71,72
 387 771 387 771 358.5 717.5 c 128,-1,73
 330 664 330 664 330 614 c 0,60,61
EndSplineSet
EndChar

StartChar: dieresis
Encoding: 168 168 106
Width: 635
GlyphClass: 2
Flags: W
LayerCount: 2
Fore
SplineSet
0 1270 m 2,0,-1
 0 1403 l 2,1,2
 0 1425 0 1425 9 1434.5 c 128,-1,3
 18 1444 18 1444 41 1444 c 2,4,-1
 174 1444 l 2,5,6
 197 1444 197 1444 206 1434.5 c 128,-1,7
 215 1425 215 1425 215 1403 c 2,8,-1
 215 1270 l 2,9,10
 215 1247 215 1247 206 1238 c 128,-1,11
 197 1229 197 1229 174 1229 c 2,12,-1
 41 1229 l 2,13,14
 18 1229 18 1229 9 1238 c 128,-1,15
 0 1247 0 1247 0 1270 c 2,0,-1
594 1444 m 2,16,17
 635 1444 635 1444 635 1403 c 2,18,-1
 635 1270 l 2,19,20
 635 1247 635 1247 625.5 1238 c 128,-1,21
 616 1229 616 1229 594 1229 c 2,22,-1
 461 1229 l 2,23,24
 438 1229 438 1229 429 1238 c 128,-1,25
 420 1247 420 1247 420 1270 c 2,26,-1
 420 1403 l 2,27,28
 420 1425 420 1425 429 1434.5 c 128,-1,29
 438 1444 438 1444 461 1444 c 2,30,-1
 594 1444 l 2,16,17
EndSplineSet
EndChar

StartChar: copyright
Encoding: 169 169 107
Width: 1720
GlyphClass: 2
Flags: W
LayerCount: 2
Fore
SplineSet
102 716.5 m 128,-1,1
 102 1044 102 1044 318.5 1254 c 128,-1,2
 535 1464 535 1464 860.5 1464 c 128,-1,3
 1186 1464 1186 1464 1402 1254 c 128,-1,4
 1618 1044 1618 1044 1618 716.5 c 128,-1,5
 1618 389 1618 389 1402 179 c 128,-1,6
 1186 -31 1186 -31 860.5 -31 c 128,-1,7
 535 -31 535 -31 318.5 179 c 128,-1,0
 102 389 102 389 102 716.5 c 128,-1,1
256 716.5 m 128,-1,9
 256 440 256 440 423 271 c 128,-1,10
 590 102 590 102 860 102 c 128,-1,11
 1130 102 1130 102 1297 271 c 128,-1,12
 1464 440 1464 440 1464 716.5 c 128,-1,13
 1464 993 1464 993 1297 1162 c 128,-1,14
 1130 1331 1130 1331 860 1331 c 128,-1,15
 590 1331 590 1331 423 1162 c 128,-1,8
 256 993 256 993 256 716.5 c 128,-1,9
440 727 m 128,-1,17
 440 946 440 946 556 1072 c 128,-1,18
 672 1198 672 1198 860 1198 c 0,19,20
 1155 1198 1155 1198 1239 936 c 1,21,22
 1245 911 1245 911 1219 911 c 2,23,-1
 1110 911 l 2,24,25
 1096 911 1096 911 1085 932 c 0,26,27
 1009 1065 1009 1065 860 1065 c 0,28,29
 747 1065 747 1065 675.5 977 c 128,-1,30
 604 889 604 889 604 727 c 128,-1,31
 604 565 604 565 676 477 c 128,-1,32
 748 389 748 389 860 389 c 0,33,34
 1020 389 1020 389 1096 522 c 1,35,36
 1106 542 1106 542 1120 543 c 1,37,-1
 1229 543 l 2,38,39
 1256 543 1256 543 1249 518 c 0,40,41
 1165 256 1165 256 860 256 c 0,42,43
 672 256 672 256 556 382 c 128,-1,16
 440 508 440 508 440 727 c 128,-1,17
EndSplineSet
EndChar

StartChar: ordfeminine
Encoding: 170 170 108
Width: 973
GlyphClass: 2
Flags: W
LayerCount: 2
Fore
SplineSet
430 1157 m 2,0,-1
 666 1157 l 1,1,-1
 666 1167 l 2,2,3
 666 1260 666 1260 627 1300.5 c 128,-1,4
 588 1341 588 1341 502 1341 c 0,5,6
 381 1341 381 1341 332 1249 c 1,7,8
 319 1229 319 1229 307 1229 c 2,9,-1
 205 1229 l 2,10,11
 178 1229 178 1229 184 1249 c 1,12,13
 207 1350 207 1350 290 1407 c 128,-1,14
 373 1464 373 1464 517.5 1464 c 128,-1,15
 662 1464 662 1464 745.5 1385.5 c 128,-1,16
 829 1307 829 1307 829 1167 c 2,17,-1
 829 748 l 2,18,19
 829 727 829 727 809 727 c 2,20,-1
 717 727 l 2,21,22
 696 727 696 727 694 748 c 1,23,-1
 676 819 l 1,24,25
 666 807 666 807 646.5 788.5 c 128,-1,26
 627 770 627 770 562.5 738.5 c 128,-1,27
 498 707 498 707 430 707 c 0,28,29
 289 707 289 707 216 767 c 128,-1,30
 143 827 143 827 143 931.5 c 128,-1,31
 143 1036 143 1036 216 1096.5 c 128,-1,32
 289 1157 289 1157 430 1157 c 2,0,-1
430 829 m 0,33,34
 512 829 512 829 570.5 864 c 128,-1,35
 629 899 629 899 647.5 926.5 c 128,-1,36
 666 954 666 954 666 963 c 2,37,-1
 666 1034 l 1,38,-1
 430 1034 l 2,39,40
 307 1034 307 1034 307 931.5 c 128,-1,41
 307 829 307 829 430 829 c 0,33,34
EndSplineSet
EndChar

StartChar: guillemotleft
Encoding: 171 171 109
Width: 1038
GlyphClass: 2
Flags: W
LayerCount: 2
Fore
SplineSet
61 504 m 2,0,-1
 61 561 l 2,1,2
 61 594 61 594 102 625 c 1,3,-1
 440 963 l 2,4,5
 460 983 460 983 481 983 c 2,6,-1
 666 983 l 2,7,8
 684 983 684 983 688 975 c 128,-1,9
 692 967 692 967 682 958 c 2,10,-1
 256 532 l 1,11,-1
 682 106 l 1,12,13
 692 98 692 98 688 90 c 128,-1,14
 684 82 684 82 666 82 c 2,15,-1
 481 82 l 2,16,17
 461 82 461 82 440 102 c 2,18,-1
 102 440 l 1,19,20
 61 475 61 475 61 504 c 2,0,-1
471 504 m 2,21,-1
 471 561 l 2,22,23
 471 594 471 594 512 625 c 1,24,-1
 748 860 l 2,25,26
 768 880 768 880 788 881 c 1,27,-1
 973 881 l 2,28,29
 991 881 991 881 995 872.5 c 128,-1,30
 999 864 999 864 989 856 c 1,31,-1
 666 532 l 1,32,-1
 989 209 l 1,33,34
 999 201 999 201 995 192.5 c 128,-1,35
 991 184 991 184 973 184 c 2,36,-1
 788 184 l 2,37,38
 768 184 768 184 748 205 c 2,39,-1
 512 440 l 1,40,41
 471 475 471 475 471 504 c 2,21,-1
EndSplineSet
EndChar

StartChar: logicalnot
Encoding: 172 172 110
Width: 1032
GlyphClass: 2
Flags: W
LayerCount: 2
Fore
SplineSet
82 604 m 2,0,-1
 82 707 l 2,1,2
 82 727 82 727 102 727 c 2,3,-1
 930 727 l 2,4,5
 950 727 950 727 950 707 c 2,6,-1
 950 328 l 2,7,8
 950 308 950 308 930 307 c 1,9,-1
 827 307 l 2,10,11
 807 307 807 307 807 328 c 2,12,-1
 807 584 l 1,13,-1
 102 584 l 2,14,15
 82 584 82 584 82 604 c 2,0,-1
EndSplineSet
EndChar

StartChar: uni00AD
Encoding: 173 173 111
Width: 1032
GlyphClass: 2
Flags: W
LayerCount: 2
Fore
SplineSet
82 604 m 2,0,-1
 82 707 l 2,1,2
 82 727 82 727 102 727 c 2,3,-1
 930 727 l 2,4,5
 950 727 950 727 950 707 c 2,6,-1
 950 604 l 2,7,8
 950 584 950 584 930 584 c 2,9,-1
 102 584 l 2,10,11
 82 584 82 584 82 604 c 2,0,-1
EndSplineSet
EndChar

StartChar: registered
Encoding: 174 174 112
Width: 1720
GlyphClass: 2
Flags: W
LayerCount: 2
Fore
SplineSet
102 716.5 m 128,-1,1
 102 1044 102 1044 318.5 1254 c 128,-1,2
 535 1464 535 1464 860.5 1464 c 128,-1,3
 1186 1464 1186 1464 1402 1254 c 128,-1,4
 1618 1044 1618 1044 1618 716.5 c 128,-1,5
 1618 389 1618 389 1402 179 c 128,-1,6
 1186 -31 1186 -31 860.5 -31 c 128,-1,7
 535 -31 535 -31 318.5 179 c 128,-1,0
 102 389 102 389 102 716.5 c 128,-1,1
256 716.5 m 128,-1,9
 256 440 256 440 423 271 c 128,-1,10
 590 102 590 102 860 102 c 128,-1,11
 1130 102 1130 102 1297 271 c 128,-1,12
 1464 440 1464 440 1464 716.5 c 128,-1,13
 1464 993 1464 993 1297 1162 c 128,-1,14
 1130 1331 1130 1331 860 1331 c 128,-1,15
 590 1331 590 1331 423 1162 c 128,-1,8
 256 993 256 993 256 716.5 c 128,-1,9
502 297 m 2,16,-1
 502 1157 l 2,17,18
 502 1177 502 1177 522 1178 c 1,19,-1
 870 1178 l 2,20,21
 1042 1178 1042 1178 1135.5 1098 c 128,-1,22
 1229 1018 1229 1018 1229 905.5 c 128,-1,23
 1229 793 1229 793 1151 723 c 128,-1,24
 1073 653 1073 653 963 645 c 1,25,26
 1018 631 1018 631 1052.5 599 c 128,-1,27
 1087 567 1087 567 1126 512 c 1,28,-1
 1270 301 l 2,29,30
 1286 276 1286 276 1253 276 c 2,31,-1
 1106 276 l 2,32,33
 1090 276 1090 276 1075 297 c 2,34,-1
 932 512 l 2,35,36
 877 594 877 594 778 594 c 2,37,-1
 666 594 l 1,38,-1
 666 297 l 2,39,40
 666 277 666 277 645 276 c 1,41,-1
 522 276 l 1,42,43
 502 277 502 277 502 297 c 2,16,-1
666 727 m 1,44,-1
 870 727 l 2,45,46
 960 727 960 727 1012.5 773 c 128,-1,47
 1065 819 1065 819 1065 886.5 c 128,-1,48
 1065 954 1065 954 1011.5 999 c 128,-1,49
 958 1044 958 1044 870 1044 c 2,50,-1
 666 1044 l 1,51,-1
 666 727 l 1,44,-1
EndSplineSet
EndChar

StartChar: macron
Encoding: 175 175 113
Width: 573
GlyphClass: 2
Flags: W
LayerCount: 2
Fore
SplineSet
0 1321 m 2,0,-1
 0 1413 l 2,1,2
 0 1434 0 1434 20 1434 c 2,3,-1
 553 1434 l 2,4,5
 573 1434 573 1434 573 1413 c 2,6,-1
 573 1321 l 2,7,8
 573 1300 573 1300 553 1300 c 2,9,-1
 20 1300 l 2,10,11
 0 1300 0 1300 0 1321 c 2,0,-1
EndSplineSet
EndChar

StartChar: degree
Encoding: 176 176 114
Width: 881
GlyphClass: 2
Flags: W
LayerCount: 2
Fore
SplineSet
180 864 m 1,0,1
 82 963 82 963 82 1116.5 c 128,-1,2
 82 1270 82 1270 181.5 1367 c 128,-1,3
 281 1464 281 1464 440.5 1464 c 128,-1,4
 600 1464 600 1464 699.5 1367 c 128,-1,5
 799 1270 799 1270 799 1116.5 c 128,-1,6
 799 963 799 963 699.5 865.5 c 128,-1,7
 600 768 600 768 440.5 768 c 128,-1,8
 281 768 281 768 180 864 c 1,0,1
440 1331 m 128,-1,10
 348 1331 348 1331 292 1272.5 c 128,-1,11
 236 1214 236 1214 236 1116 c 128,-1,12
 236 1018 236 1018 292 959.5 c 128,-1,13
 348 901 348 901 440 901 c 128,-1,14
 532 901 532 901 588.5 959.5 c 128,-1,15
 645 1018 645 1018 645 1116 c 128,-1,16
 645 1214 645 1214 588.5 1272.5 c 128,-1,9
 532 1331 532 1331 440 1331 c 128,-1,10
EndSplineSet
EndChar

StartChar: plusminus
Encoding: 177 177 115
Width: 1196
GlyphClass: 2
Flags: W
LayerCount: 2
Fore
SplineSet
82 113 m 2,0,-1
 82 215 l 2,1,2
 82 235 82 235 102 236 c 1,3,-1
 526 236 l 1,4,-1
 526 625 l 1,5,-1
 102 625 l 2,6,7
 82 625 82 625 82 645 c 2,8,-1
 82 748 l 2,9,10
 82 768 82 768 102 768 c 2,11,-1
 526 768 l 1,12,-1
 526 1192 l 2,13,14
 526 1212 526 1212 547 1212 c 2,15,-1
 649 1212 l 2,16,17
 669 1212 669 1212 670 1192 c 1,18,-1
 670 768 l 1,19,-1
 1094 768 l 2,20,21
 1114 768 1114 768 1114 748 c 2,22,-1
 1114 645 l 2,23,24
 1114 625 1114 625 1094 625 c 2,25,-1
 670 625 l 1,26,-1
 670 236 l 1,27,-1
 1094 236 l 2,28,29
 1114 236 1114 236 1114 215 c 2,30,-1
 1114 113 l 2,31,32
 1114 93 1114 93 1094 92 c 1,33,-1
 102 92 l 1,34,35
 82 93 82 93 82 113 c 2,0,-1
EndSplineSet
EndChar

StartChar: twosuperior
Encoding: 178 178 116
Width: 934
GlyphClass: 2
Flags: W
LayerCount: 2
Fore
SplineSet
145 1249 m 1,0,1
 168 1350 168 1350 251 1407 c 128,-1,2
 334 1464 334 1464 477.5 1464 c 128,-1,3
 621 1464 621 1464 706 1395.5 c 128,-1,4
 791 1327 791 1327 791 1220.5 c 128,-1,5
 791 1114 791 1114 717 1054.5 c 128,-1,6
 643 995 643 995 555 974.5 c 128,-1,7
 467 954 467 954 393 923.5 c 128,-1,8
 319 893 319 893 319 850 c 1,9,-1
 770 850 l 2,10,11
 791 850 791 850 791 829 c 2,12,-1
 791 748 l 2,13,14
 791 727 791 727 770 727 c 2,15,-1
 176 727 l 2,16,17
 156 727 156 727 156 748 c 2,18,-1
 156 819 l 2,19,20
 156 895 156 895 204 947 c 128,-1,21
 252 999 252 999 321.5 1026 c 128,-1,22
 391 1053 391 1053 460 1074 c 0,23,24
 627 1126 627 1126 627 1208 c 0,25,26
 627 1341 627 1341 463 1341 c 0,27,28
 342 1341 342 1341 293 1249 c 1,29,30
 281 1229 281 1229 268 1229 c 2,31,-1
 166 1229 l 2,32,33
 139 1229 139 1229 145 1249 c 1,0,1
EndSplineSet
EndChar

StartChar: threesuperior
Encoding: 179 179 117
Width: 924
GlyphClass: 2
Flags: W
LayerCount: 2
Fore
SplineSet
125 922 m 1,0,1
 119 942 119 942 145 942 c 2,2,-1
 248 942 l 2,3,4
 260 942 260 942 272 922 c 1,5,6
 322 829 322 829 453 829 c 0,7,8
 616 829 616 829 616 932 c 0,9,10
 616 971 616 971 585.5 997.5 c 128,-1,11
 555 1024 555 1024 504 1024 c 2,12,-1
 360 1024 l 2,13,14
 340 1024 340 1024 340 1044 c 2,15,-1
 340 1126 l 2,16,17
 340 1147 340 1147 360 1147 c 2,18,-1
 494 1147 l 2,19,20
 606 1147 606 1147 606 1239 c 0,21,22
 606 1341 606 1341 442 1341 c 0,23,24
 322 1341 322 1341 272 1249 c 0,25,26
 260 1229 260 1229 248 1229 c 2,27,-1
 145 1229 l 2,28,29
 119 1229 119 1229 125 1249 c 1,30,31
 147 1350 147 1350 230 1407 c 128,-1,32
 313 1464 313 1464 458.5 1464 c 128,-1,33
 604 1464 604 1464 687 1405 c 128,-1,34
 770 1346 770 1346 770 1249 c 0,35,36
 770 1188 770 1188 734 1145 c 128,-1,37
 698 1102 698 1102 637 1085 c 1,38,39
 700 1069 700 1069 740 1026 c 128,-1,40
 780 983 780 983 780 922 c 0,41,42
 780 825 780 825 697 766 c 128,-1,43
 614 707 614 707 466 707 c 0,44,45
 171 707 171 707 125 922 c 1,0,1
EndSplineSet
EndChar

StartChar: acute
Encoding: 180 180 118
Width: 367
GlyphClass: 2
Flags: W
LayerCount: 2
Fore
SplineSet
4 1147 m 2,0,-1
 137 1413 l 2,1,2
 147 1434 147 1434 168 1434 c 2,3,-1
 352 1434 l 2,4,5
 377 1434 377 1434 362 1413 c 1,6,-1
 147 1147 l 2,7,8
 131 1126 131 1126 117 1126 c 2,9,-1
 14 1126 l 2,10,11
 -6 1126 -6 1126 4 1147 c 2,0,-1
EndSplineSet
EndChar

StartChar: mu
Encoding: 181 181 119
AltUni2: 0003bc.ffffffff.0
Width: 1413
GlyphClass: 2
Flags: W
LayerCount: 2
Fore
SplineSet
205 -317 m 2,0,-1
 205 1075 l 2,1,2
 205 1096 205 1096 225 1096 c 2,3,-1
 369 1096 l 2,4,5
 389 1096 389 1096 389 1075 c 2,6,-1
 389 553 l 2,7,8
 389 354 389 354 483.5 233.5 c 128,-1,9
 578 113 578 113 707 113 c 0,10,11
 849 113 849 113 968 251 c 0,12,13
 1024 317 1024 317 1024 328 c 2,14,-1
 1024 1075 l 2,15,16
 1024 1096 1024 1096 1044 1096 c 2,17,-1
 1188 1096 l 2,18,19
 1208 1096 1208 1096 1208 1075 c 2,20,-1
 1208 20 l 2,21,22
 1208 0 1208 0 1188 0 c 2,23,-1
 1075 0 l 2,24,25
 1055 0 1055 0 1053 20 c 1,26,-1
 1034 133 l 1,27,28
 1021 114 1021 114 982.5 80.5 c 128,-1,29
 944 47 944 47 908 25.5 c 128,-1,30
 872 4 872 4 814 -13.5 c 128,-1,31
 756 -31 756 -31 696.5 -31 c 128,-1,32
 637 -31 637 -31 582.5 -15.5 c 128,-1,33
 528 0 528 0 494 22 c 0,34,35
 435 62 435 62 401 106 c 1,36,-1
 389 123 l 1,37,-1
 389 -317 l 2,38,39
 389 -338 389 -338 369 -338 c 2,40,-1
 225 -338 l 2,41,42
 205 -338 205 -338 205 -317 c 2,0,-1
EndSplineSet
EndChar

StartChar: paragraph
Encoding: 182 182 120
Width: 1339
GlyphClass: 2
Flags: W
LayerCount: 2
Fore
SplineSet
61 993.5 m 128,-1,1
 61 1190 61 1190 197.5 1312 c 128,-1,2
 334 1434 334 1434 573 1434 c 2,3,-1
 1278 1434 l 2,4,5
 1298 1434 1298 1434 1298 1413 c 2,6,-1
 1298 1311 l 2,7,8
 1298 1291 1298 1291 1278 1290 c 1,9,-1
 1085 1290 l 1,10,-1
 1085 -315 l 2,11,12
 1085 -335 1085 -335 1065 -336 c 1,13,-1
 922 -336 l 2,14,15
 902 -336 902 -336 901 -315 c 1,16,-1
 901 1290 l 1,17,-1
 778 1290 l 1,18,-1
 778 -315 l 2,19,20
 778 -335 778 -335 758 -336 c 1,21,-1
 614 -336 l 2,22,23
 594 -336 594 -336 594 -315 c 2,24,-1
 594 553 l 1,25,-1
 573 553 l 2,26,27
 333 553 333 553 197 675 c 128,-1,0
 61 797 61 797 61 993.5 c 128,-1,1
EndSplineSet
EndChar

StartChar: periodcentered
Encoding: 183 183 121
Width: 625
GlyphClass: 2
Flags: W
LayerCount: 2
Fore
SplineSet
420 651 m 2,0,1
 420 610 420 610 379 610 c 2,2,-1
 246 610 l 2,3,4
 223 610 223 610 214 619.5 c 128,-1,5
 205 629 205 629 205 651 c 2,6,-1
 205 784 l 2,7,8
 205 807 205 807 214 816 c 128,-1,9
 223 825 223 825 246 825 c 2,10,-1
 379 825 l 2,11,12
 401 825 401 825 410.5 816 c 128,-1,13
 420 807 420 807 420 784 c 2,14,-1
 420 651 l 2,0,1
EndSplineSet
EndChar

StartChar: cedilla
Encoding: 184 184 122
Width: 420
GlyphClass: 2
Flags: W
LayerCount: 2
Fore
SplineSet
0 -348 m 2,0,1
 0 -328 0 -328 20 -328 c 2,2,-1
 154 -328 l 2,3,4
 276 -328 276 -328 276 -256 c 128,-1,5
 276 -184 276 -184 174 -184 c 2,6,-1
 51 -184 l 2,7,8
 31 -184 31 -184 31 -164 c 2,9,-1
 31 51 l 2,10,11
 31 72 31 72 51 72 c 2,12,-1
 154 72 l 2,13,14
 174 72 174 72 174 51 c 2,15,-1
 174 -72 l 1,16,17
 293 -72 293 -72 356.5 -124 c 128,-1,18
 420 -176 420 -176 420 -257 c 128,-1,19
 420 -338 420 -338 352.5 -389 c 128,-1,20
 285 -440 285 -440 154 -440 c 2,21,-1
 20 -440 l 2,22,23
 0 -440 0 -440 0 -420 c 2,24,-1
 0 -348 l 2,0,1
EndSplineSet
EndChar

StartChar: onesuperior
Encoding: 185 185 123
Width: 655
GlyphClass: 2
Flags: W
LayerCount: 2
Fore
SplineSet
88 1200 m 1,0,1
 78 1217 78 1217 92 1229 c 2,2,-1
 334 1423 l 1,3,4
 358 1444 358 1444 379 1444 c 2,5,-1
 471 1444 l 2,6,7
 492 1444 492 1444 492 1423 c 2,8,-1
 492 748 l 2,9,10
 492 727 492 727 471 727 c 2,11,-1
 348 727 l 2,12,13
 328 727 328 727 328 748 c 2,14,-1
 328 1229 l 1,15,-1
 174 1124 l 2,16,17
 156 1112 156 1112 143 1126 c 1,18,-1
 88 1200 l 1,0,1
EndSplineSet
EndChar

StartChar: ordmasculine
Encoding: 186 186 124
Width: 1004
GlyphClass: 2
Flags: W
LayerCount: 2
Fore
SplineSet
502 707 m 128,-1,1
 340 707 340 707 241.5 808 c 128,-1,2
 143 909 143 909 143 1085.5 c 128,-1,3
 143 1262 143 1262 241.5 1363 c 128,-1,4
 340 1464 340 1464 502 1464 c 128,-1,5
 664 1464 664 1464 762 1363 c 128,-1,6
 860 1262 860 1262 860 1085.5 c 128,-1,7
 860 909 860 909 762 808 c 128,-1,0
 664 707 664 707 502 707 c 128,-1,1
502 1341 m 128,-1,9
 414 1341 414 1341 360.5 1276.5 c 128,-1,10
 307 1212 307 1212 307 1085 c 128,-1,11
 307 958 307 958 360.5 893.5 c 128,-1,12
 414 829 414 829 502 829 c 128,-1,13
 590 829 590 829 643 893.5 c 128,-1,14
 696 958 696 958 696 1085 c 128,-1,15
 696 1212 696 1212 643 1276.5 c 128,-1,8
 590 1341 590 1341 502 1341 c 128,-1,9
EndSplineSet
EndChar

StartChar: guillemotright
Encoding: 187 187 125
Width: 1038
GlyphClass: 2
Flags: W
LayerCount: 2
Fore
SplineSet
43 192.5 m 128,-1,1
 39 201 39 201 49 209 c 1,2,-1
 373 532 l 1,3,-1
 49 856 l 1,4,5
 39 864 39 864 43 872.5 c 128,-1,6
 47 881 47 881 66 881 c 2,7,-1
 250 881 l 2,8,9
 270 881 270 881 291 860 c 2,10,-1
 526 625 l 1,11,12
 567 594 567 594 567 561 c 2,13,-1
 567 504 l 1,14,-1
 526 440 l 1,15,-1
 291 205 l 2,16,17
 271 185 271 185 250 184 c 1,18,-1
 66 184 l 2,19,0
 47 184 47 184 43 192.5 c 128,-1,1
350 90 m 128,-1,21
 346 98 346 98 356 106 c 1,22,-1
 782 532 l 1,23,-1
 356 958 l 1,24,25
 346 966 346 966 350 974.5 c 128,-1,26
 354 983 354 983 373 983 c 2,27,-1
 557 983 l 2,28,29
 577 983 577 983 598 963 c 2,30,-1
 936 625 l 1,31,32
 977 594 977 594 977 561 c 2,33,-1
 977 504 l 1,34,-1
 936 440 l 1,35,-1
 598 102 l 2,36,37
 578 82 578 82 557 82 c 2,38,-1
 373 82 l 2,39,20
 354 82 354 82 350 90 c 128,-1,21
EndSplineSet
EndChar

StartChar: onequarter
Encoding: 188 188 126
Width: 1618
GlyphClass: 2
Flags: W
LayerCount: 2
Fore
SplineSet
68 1200 m 1,0,1
 57 1217 57 1217 72 1229 c 2,2,-1
 313 1423 l 2,3,4
 338 1444 338 1444 358 1444 c 2,5,-1
 451 1444 l 2,6,7
 471 1444 471 1444 471 1423 c 2,8,-1
 471 748 l 2,9,10
 471 727 471 727 451 727 c 2,11,-1
 328 727 l 2,12,13
 307 727 307 727 307 748 c 2,14,-1
 307 1229 l 1,15,-1
 154 1124 l 2,16,17
 135 1112 135 1112 123 1126 c 1,18,-1
 68 1200 l 1,0,1
317 20 m 2,19,-1
 1024 1413 l 2,20,21
 1034 1434 1034 1434 1055 1434 c 2,22,-1
 1198 1434 l 2,23,24
 1219 1434 1219 1434 1208 1413 c 2,25,-1
 502 20 l 2,26,27
 492 0 492 0 471 0 c 2,28,-1
 328 0 l 2,29,30
 307 0 307 0 317 20 c 2,19,-1
819 143 m 2,31,32
 819 143 819 143 819 215 c 0,33,34
 819 262 819 262 850 297 c 1,35,-1
 1249 686 l 1,36,37
 1278 717 1278 717 1321 717 c 2,38,-1
 1393 717 l 2,39,40
 1413 717 1413 717 1413 696 c 2,41,-1
 1413 246 l 1,42,-1
 1495 246 l 2,43,44
 1516 246 1516 246 1516 225 c 2,45,46
 1516 225 1516 225 1516 143 c 0,47,48
 1516 123 1516 123 1495 123 c 2,49,-1
 1413 123 l 1,50,-1
 1413 20 l 2,51,52
 1413 0 1413 0 1393 0 c 2,53,-1
 1270 0 l 2,54,55
 1249 0 1249 0 1249 20 c 2,56,-1
 1249 123 l 1,57,-1
 840 123 l 2,58,59
 819 123 819 123 819 143 c 2,31,32
983 246 m 1,60,-1
 1249 246 l 1,61,-1
 1249 502 l 1,62,-1
 983 246 l 1,60,-1
EndSplineSet
EndChar

StartChar: onehalf
Encoding: 189 189 127
Width: 1679
GlyphClass: 2
Flags: W
LayerCount: 2
Fore
SplineSet
68 1200 m 1,0,1
 58 1216 58 1216 72 1229 c 1,2,-1
 313 1423 l 2,3,4
 338 1443 338 1443 358 1444 c 1,5,-1
 451 1444 l 2,6,7
 471 1444 471 1444 471 1423 c 2,8,-1
 471 748 l 2,9,10
 471 728 471 728 451 727 c 1,11,-1
 328 727 l 2,12,13
 308 727 308 727 307 748 c 1,14,-1
 307 1229 l 1,15,-1
 154 1124 l 2,16,17
 136 1112 136 1112 123 1126 c 1,18,-1
 68 1200 l 1,0,1
317 20 m 2,19,-1
 1024 1413 l 2,20,21
 1034 1433 1034 1433 1055 1434 c 1,22,-1
 1198 1434 l 2,23,24
 1218 1434 1218 1434 1208 1413 c 2,25,-1
 502 20 l 2,26,27
 492 0 492 0 471 0 c 2,28,-1
 328 0 l 2,29,30
 307 0 307 0 317 20 c 2,19,-1
932 522 m 1,31,32
 955 622 955 622 1037.5 679.5 c 128,-1,33
 1120 737 1120 737 1263.5 737 c 128,-1,34
 1407 737 1407 737 1492 668.5 c 128,-1,35
 1577 600 1577 600 1577 493.5 c 128,-1,36
 1577 387 1577 387 1503.5 327.5 c 128,-1,37
 1430 268 1430 268 1342 248 c 0,38,39
 1106 193 1106 193 1106 123 c 1,40,-1
 1556 123 l 2,41,42
 1576 123 1576 123 1577 102 c 1,43,-1
 1577 20 l 2,44,45
 1577 0 1577 0 1556 0 c 2,46,-1
 963 0 l 2,47,48
 943 0 943 0 942 20 c 1,49,-1
 942 92 l 2,50,51
 942 168 942 168 990 220 c 128,-1,52
 1038 272 1038 272 1108 299 c 128,-1,53
 1178 326 1178 326 1248 348 c 0,54,55
 1413 399 1413 399 1413 481 c 0,56,57
 1413 614 1413 614 1249 614 c 0,58,59
 1128 614 1128 614 1079 522 c 1,60,61
 1067 502 1067 502 1055 502 c 2,62,-1
 952 502 l 2,63,64
 926 502 926 502 932 522 c 1,31,32
EndSplineSet
EndChar

StartChar: threequarters
Encoding: 190 190 128
Width: 1774
GlyphClass: 2
Flags: W
LayerCount: 2
Fore
SplineSet
84 922 m 1,0,1
 78 942 78 942 104 942 c 2,2,-1
 207 942 l 2,3,4
 219 942 219 942 231 922 c 1,5,6
 281 829 281 829 412 829 c 0,7,8
 575 829 575 829 575 932 c 0,9,10
 575 971 575 971 544.5 997.5 c 128,-1,11
 514 1024 514 1024 463 1024 c 2,12,-1
 319 1024 l 2,13,14
 299 1024 299 1024 299 1044 c 2,15,-1
 299 1126 l 2,16,17
 299 1147 299 1147 319 1147 c 2,18,-1
 453 1147 l 2,19,20
 565 1147 565 1147 565 1239 c 0,21,22
 565 1341 565 1341 401 1341 c 0,23,24
 281 1341 281 1341 231 1249 c 0,25,26
 219 1229 219 1229 207 1229 c 2,27,-1
 104 1229 l 2,28,29
 78 1229 78 1229 84 1249 c 1,30,31
 106 1350 106 1350 189 1407 c 128,-1,32
 272 1464 272 1464 417.5 1464 c 128,-1,33
 563 1464 563 1464 646 1405 c 128,-1,34
 729 1346 729 1346 729 1249 c 0,35,36
 729 1188 729 1188 693 1145 c 128,-1,37
 657 1102 657 1102 596 1085 c 1,38,39
 659 1069 659 1069 699 1026 c 128,-1,40
 739 983 739 983 739 922 c 0,41,42
 739 825 739 825 656 766 c 128,-1,43
 573 707 573 707 424 707 c 0,44,45
 130 707 130 707 84 922 c 1,0,1
473 20 m 2,46,-1
 1180 1413 l 2,47,48
 1190 1434 1190 1434 1210 1434 c 2,49,-1
 1354 1434 l 2,50,51
 1374 1434 1374 1434 1364 1413 c 2,52,-1
 657 20 l 2,53,54
 647 0 647 0 627 0 c 2,55,-1
 483 0 l 2,56,57
 463 0 463 0 473 20 c 2,46,-1
975 143 m 2,58,-1
 975 215 l 2,59,60
 975 262 975 262 1006 297 c 1,61,-1
 1405 686 l 1,62,63
 1434 717 1434 717 1477 717 c 2,64,-1
 1548 717 l 2,65,66
 1569 717 1569 717 1569 696 c 2,67,-1
 1569 246 l 1,68,-1
 1651 246 l 2,69,70
 1671 246 1671 246 1671 225 c 2,71,-1
 1671 143 l 2,72,73
 1671 123 1671 123 1651 123 c 2,74,-1
 1569 123 l 1,75,-1
 1569 20 l 2,76,77
 1569 0 1569 0 1548 0 c 2,78,-1
 1425 0 l 2,79,80
 1405 0 1405 0 1405 20 c 2,81,-1
 1405 123 l 1,82,-1
 995 123 l 2,83,84
 975 123 975 123 975 143 c 2,58,-1
1139 246 m 1,85,-1
 1405 246 l 1,86,-1
 1405 502 l 1,87,-1
 1139 246 l 1,85,-1
EndSplineSet
EndChar

StartChar: questiondown
Encoding: 191 191 129
Width: 1221
GlyphClass: 2
Flags: W
LayerCount: 2
Fore
SplineSet
82 61 m 0,0,1
 82 150 82 150 117 223.5 c 128,-1,2
 152 297 152 297 204 342 c 128,-1,3
 256 387 256 387 317.5 432 c 128,-1,4
 379 477 379 477 431 511 c 0,5,6
 553 591 553 591 553 696 c 2,7,-1
 553 717 l 2,8,9
 553 737 553 737 573 737 c 2,10,-1
 717 737 l 2,11,12
 737 737 737 737 737 717 c 2,13,-1
 737 696 l 2,14,15
 737 604 737 604 689 531.5 c 128,-1,16
 641 459 641 459 571 412 c 1,17,-1
 432 315 l 1,18,19
 266 204 266 204 266 60 c 128,-1,20
 266 -84 266 -84 358.5 -154.5 c 128,-1,21
 451 -225 451 -225 607.5 -225 c 128,-1,22
 764 -225 764 -225 864.5 -156.5 c 128,-1,23
 965 -88 965 -88 1004 31 c 0,24,25
 1010 51 1010 51 1028 51 c 2,26,-1
 1157 51 l 2,27,28
 1182 51 1182 51 1178 27 c 1,29,30
 1139 -158 1139 -158 990.5 -263.5 c 128,-1,31
 842 -369 842 -369 601 -369 c 128,-1,32
 360 -369 360 -369 221 -257 c 128,-1,33
 82 -145 82 -145 82 61 c 0,0,1
713 1106 m 2,34,35
 754 1106 754 1106 754 1065 c 2,36,-1
 754 932 l 2,37,38
 754 909 754 909 744.5 900 c 128,-1,39
 735 891 735 891 713 891 c 2,40,-1
 580 891 l 2,41,42
 557 891 557 891 548 900 c 128,-1,43
 539 909 539 909 539 932 c 2,44,-1
 539 1065 l 2,45,46
 539 1087 539 1087 548 1096.5 c 128,-1,47
 557 1106 557 1106 580 1106 c 2,48,-1
 713 1106 l 2,34,35
EndSplineSet
EndChar

StartChar: Agrave
Encoding: 192 192 130
Width: 1458
GlyphClass: 2
Flags: W
LayerCount: 2
Fore
SplineSet
63 20 m 1,0,-1
 606 1372 l 2,1,2
 631 1433 631 1433 698 1434 c 1,3,-1
 760 1434 l 2,4,5
 828 1434 828 1434 852 1372 c 2,6,-1
 1395 20 l 1,7,8
 1405 0 1405 0 1378 0 c 2,9,-1
 1231 0 l 2,10,11
 1211 0 1211 0 1200 20 c 1,12,-1
 1057 369 l 1,13,-1
 401 369 l 1,14,-1
 258 20 l 1,15,16
 248 0 248 0 227 0 c 2,17,-1
 80 0 l 2,18,19
 53 0 53 0 63 20 c 1,0,-1
428 1812 m 1,20,21
 414 1832 414 1832 438 1833 c 1,22,-1
 623 1833 l 2,23,24
 643 1833 643 1833 653 1812 c 2,25,-1
 786 1546 l 2,26,27
 796 1526 796 1526 776 1526 c 2,28,-1
 674 1526 l 2,29,30
 660 1526 660 1526 643 1546 c 2,31,-1
 428 1812 l 1,20,21
453 512 m 1,32,-1
 1006 512 l 1,33,-1
 729 1198 l 1,34,-1
 453 512 l 1,32,-1
EndSplineSet
EndChar

StartChar: Aacute
Encoding: 193 193 131
Width: 1458
GlyphClass: 2
Flags: W
LayerCount: 2
Fore
SplineSet
63 20 m 1,0,-1
 606 1372 l 2,1,2
 631 1433 631 1433 698 1434 c 1,3,-1
 760 1434 l 2,4,5
 828 1434 828 1434 852 1372 c 2,6,-1
 1395 20 l 1,7,8
 1405 0 1405 0 1378 0 c 2,9,-1
 1231 0 l 2,10,11
 1211 0 1211 0 1200 20 c 1,12,-1
 1057 369 l 1,13,-1
 401 369 l 1,14,-1
 258 20 l 1,15,16
 248 0 248 0 227 0 c 2,17,-1
 80 0 l 2,18,19
 53 0 53 0 63 20 c 1,0,-1
453 512 m 1,20,-1
 1006 512 l 1,21,-1
 729 1198 l 1,22,-1
 453 512 l 1,20,-1
672 1546 m 2,23,-1
 805 1812 l 2,24,25
 815 1832 815 1832 836 1833 c 1,26,-1
 1020 1833 l 2,27,28
 1045 1833 1045 1833 1030 1812 c 1,29,-1
 815 1546 l 2,30,31
 799 1526 799 1526 784 1526 c 2,32,-1
 682 1526 l 2,33,34
 662 1526 662 1526 672 1546 c 2,23,-1
EndSplineSet
EndChar

StartChar: Acircumflex
Encoding: 194 194 132
Width: 1458
GlyphClass: 2
Flags: W
LayerCount: 2
Fore
SplineSet
63 20 m 1,0,-1
 606 1372 l 2,1,2
 631 1433 631 1433 698 1434 c 1,3,-1
 760 1434 l 2,4,5
 828 1434 828 1434 852 1372 c 2,6,-1
 1395 20 l 1,7,8
 1405 0 1405 0 1378 0 c 2,9,-1
 1231 0 l 2,10,11
 1211 0 1211 0 1200 20 c 1,12,-1
 1057 369 l 1,13,-1
 401 369 l 1,14,-1
 258 20 l 1,15,16
 248 0 248 0 227 0 c 2,17,-1
 80 0 l 2,18,19
 53 0 53 0 63 20 c 1,0,-1
428 1526 m 2,20,-1
 575 1751 l 1,21,22
 617 1812 617 1812 657 1812 c 2,23,-1
 801 1812 l 2,24,25
 836 1812 836 1812 851 1793 c 128,-1,26
 866 1774 866 1774 883 1751 c 1,27,-1
 1030 1526 l 2,28,29
 1044 1506 1044 1506 1020 1505 c 1,30,-1
 922 1505 l 2,31,32
 908 1505 908 1505 887 1526 c 2,33,-1
 729 1690 l 1,34,-1
 571 1526 l 2,35,36
 551 1506 551 1506 537 1505 c 1,37,-1
 438 1505 l 1,38,39
 414 1506 414 1506 428 1526 c 2,20,-1
453 512 m 1,40,-1
 1006 512 l 1,41,-1
 729 1198 l 1,42,-1
 453 512 l 1,40,-1
EndSplineSet
EndChar

StartChar: Atilde
Encoding: 195 195 133
Width: 1458
GlyphClass: 2
Flags: W
LayerCount: 2
Fore
SplineSet
63 20 m 1,0,-1
 606 1372 l 2,1,2
 631 1433 631 1433 698 1434 c 1,3,-1
 760 1434 l 2,4,5
 828 1434 828 1434 852 1372 c 2,6,-1
 1395 20 l 1,7,8
 1405 0 1405 0 1378 0 c 2,9,-1
 1231 0 l 2,10,11
 1211 0 1211 0 1200 20 c 1,12,-1
 1057 369 l 1,13,-1
 401 369 l 1,14,-1
 258 20 l 1,15,16
 248 0 248 0 227 0 c 2,17,-1
 80 0 l 2,18,19
 53 0 53 0 63 20 c 1,0,-1
412 1550 m 1,20,21
 441 1802 441 1802 606 1802 c 0,22,23
 678 1802 678 1802 774 1703 c 0,24,25
 807 1669 807 1669 831 1669 c 0,26,27
 888 1669 888 1669 909 1772 c 1,28,29
 911 1792 911 1792 934 1792 c 2,30,-1
 1016 1792 l 2,31,32
 1041 1792 1041 1792 1036 1767 c 1,33,34
 1007 1515 1007 1515 842 1516 c 0,35,36
 770 1516 770 1516 674 1615 c 0,37,38
 641 1649 641 1649 616 1649 c 0,39,40
 559 1649 559 1649 539 1546 c 1,41,42
 537 1526 537 1526 514 1526 c 2,43,-1
 432 1526 l 1,44,45
 408 1525 408 1525 412 1550 c 1,20,21
453 512 m 1,46,-1
 1006 512 l 1,47,-1
 729 1198 l 1,48,-1
 453 512 l 1,46,-1
EndSplineSet
EndChar

StartChar: Adieresis
Encoding: 196 196 134
Width: 1458
GlyphClass: 2
Flags: W
LayerCount: 2
Fore
SplineSet
63 20 m 1,0,-1
 606 1372 l 2,1,2
 631 1433 631 1433 698 1434 c 1,3,-1
 760 1434 l 2,4,5
 828 1434 828 1434 852 1372 c 2,6,-1
 1395 20 l 1,7,8
 1405 0 1405 0 1378 0 c 2,9,-1
 1231 0 l 2,10,11
 1211 0 1211 0 1200 20 c 1,12,-1
 1057 369 l 1,13,-1
 401 369 l 1,14,-1
 258 20 l 1,15,16
 248 0 248 0 227 0 c 2,17,-1
 80 0 l 2,18,19
 53 0 53 0 63 20 c 1,0,-1
412 1567 m 2,20,-1
 412 1700 l 2,21,22
 412 1723 412 1723 421 1732 c 128,-1,23
 430 1741 430 1741 453 1741 c 2,24,-1
 586 1741 l 2,25,26
 609 1741 609 1741 618 1731.5 c 128,-1,27
 627 1722 627 1722 627 1700 c 2,28,-1
 627 1567 l 2,29,30
 627 1544 627 1544 617.5 1535 c 128,-1,31
 608 1526 608 1526 586 1526 c 2,32,-1
 453 1526 l 2,33,34
 430 1526 430 1526 421 1535 c 128,-1,35
 412 1544 412 1544 412 1567 c 2,20,-1
453 512 m 1,36,-1
 1006 512 l 1,37,-1
 729 1198 l 1,38,-1
 453 512 l 1,36,-1
831 1567 m 2,39,-1
 831 1700 l 2,40,41
 831 1723 831 1723 840.5 1732 c 128,-1,42
 850 1741 850 1741 872 1741 c 2,43,-1
 1006 1741 l 2,44,45
 1029 1741 1029 1741 1038 1731.5 c 128,-1,46
 1047 1722 1047 1722 1047 1700 c 2,47,-1
 1047 1567 l 2,48,49
 1047 1544 1047 1544 1037.5 1535 c 128,-1,50
 1028 1526 1028 1526 1006 1526 c 2,51,-1
 872 1526 l 2,52,53
 849 1526 849 1526 840 1535 c 128,-1,54
 831 1544 831 1544 831 1567 c 2,39,-1
EndSplineSet
EndChar

StartChar: Aring
Encoding: 197 197 135
Width: 1458
GlyphClass: 2
Flags: W
LayerCount: 2
Fore
SplineSet
63 20 m 1,0,-1
 596 1352 l 1,1,2
 481 1411 481 1411 481 1546 c 0,3,4
 481 1646 481 1646 549.5 1709 c 128,-1,5
 618 1772 618 1772 727 1772 c 128,-1,6
 836 1772 836 1772 904.5 1709.5 c 128,-1,7
 973 1647 973 1647 973 1546 c 0,8,9
 973 1411 973 1411 860 1352 c 1,10,-1
 1395 20 l 1,11,12
 1405 0 1405 0 1378 0 c 2,13,-1
 1231 0 l 2,14,15
 1211 0 1211 0 1200 20 c 1,16,-1
 1057 369 l 1,17,-1
 401 369 l 1,18,-1
 258 20 l 1,19,20
 248 0 248 0 227 0 c 2,21,-1
 80 0 l 2,22,23
 53 0 53 0 63 20 c 1,0,-1
453 512 m 1,24,-1
 1006 512 l 1,25,-1
 729 1198 l 1,26,-1
 453 512 l 1,24,-1
614 1546 m 128,-1,28
 614 1499 614 1499 647 1466.5 c 128,-1,29
 680 1434 680 1434 727 1434 c 128,-1,30
 774 1434 774 1434 807 1466.5 c 128,-1,31
 840 1499 840 1499 840 1546 c 128,-1,32
 840 1593 840 1593 807 1626 c 128,-1,33
 774 1659 774 1659 727 1659 c 128,-1,34
 680 1659 680 1659 647 1626 c 128,-1,27
 614 1593 614 1593 614 1546 c 128,-1,28
EndSplineSet
EndChar

StartChar: AE
Encoding: 198 198 136
Width: 1997
GlyphClass: 2
Flags: W
LayerCount: 2
Fore
SplineSet
4 20 m 2,0,-1
 752 1372 l 1,1,2
 784 1434 784 1434 862 1434 c 2,3,-1
 1894 1434 l 2,4,5
 1915 1434 1915 1434 1915 1413 c 2,6,-1
 1915 1311 l 2,7,8
 1915 1290 1915 1290 1894 1290 c 2,9,-1
 1149 1290 l 1,10,-1
 1149 799 l 1,11,-1
 1751 799 l 2,12,13
 1772 799 1772 799 1772 778 c 2,14,-1
 1772 676 l 2,15,16
 1772 655 1772 655 1751 655 c 2,17,-1
 1149 655 l 1,18,-1
 1149 143 l 1,19,-1
 1894 143 l 2,20,21
 1915 143 1915 143 1915 123 c 2,22,-1
 1915 20 l 2,23,24
 1915 0 1915 0 1894 0 c 2,25,-1
 985 0 l 2,26,27
 965 0 965 0 965 20 c 2,28,-1
 965 369 l 1,29,-1
 393 369 l 1,30,-1
 201 20 l 1,31,32
 188 0 188 0 170 0 c 2,33,-1
 20 0 l 2,34,35
 -8 0 -8 0 4 20 c 2,0,-1
471 512 m 1,36,-1
 965 512 l 1,37,-1
 965 1290 l 1,38,-1
 903 1290 l 1,39,-1
 471 512 l 1,36,-1
EndSplineSet
EndChar

StartChar: Ccedilla
Encoding: 199 199 137
Width: 1507
GlyphClass: 2
Flags: W
LayerCount: 2
Fore
SplineSet
286 194.5 m 128,-1,1
 123 389 123 389 123 728 c 128,-1,2
 123 1067 123 1067 309.5 1265.5 c 128,-1,3
 496 1464 496 1464 788 1464 c 0,4,5
 1040 1464 1040 1464 1197 1355.5 c 128,-1,6
 1354 1247 1354 1247 1393 1049 c 0,7,8
 1397 1024 1397 1024 1372 1024 c 2,9,-1
 1243 1024 l 2,10,11
 1225 1024 1225 1024 1219 1044 c 0,12,13
 1133 1320 1133 1320 788 1321 c 0,14,15
 581 1321 581 1321 444 1168.5 c 128,-1,16
 307 1016 307 1016 307 717 c 128,-1,17
 307 418 307 418 445.5 265.5 c 128,-1,18
 584 113 584 113 799 113 c 0,19,20
 1143 113 1143 113 1229 389 c 0,21,22
 1235 409 1235 409 1253 410 c 1,23,-1
 1382 410 l 2,24,25
 1407 410 1407 410 1403 385 c 1,26,27
 1366 201 1366 201 1225.5 93.5 c 128,-1,28
 1085 -14 1085 -14 860 -29 c 1,29,-1
 860 -82 l 1,30,31
 979 -82 979 -82 1042.5 -134 c 128,-1,32
 1106 -186 1106 -186 1106 -267 c 128,-1,33
 1106 -348 1106 -348 1038.5 -399.5 c 128,-1,34
 971 -451 971 -451 840 -451 c 2,35,-1
 707 -451 l 2,36,37
 687 -451 687 -451 686 -430 c 1,38,-1
 686 -358 l 2,39,40
 686 -338 686 -338 707 -338 c 2,41,-1
 840 -338 l 2,42,43
 963 -338 963 -338 963 -266.5 c 128,-1,44
 963 -195 963 -195 860 -195 c 2,45,-1
 737 -195 l 2,46,47
 717 -195 717 -195 717 -174 c 2,48,-1
 717 -27 l 1,49,0
 449 0 449 0 286 194.5 c 128,-1,1
EndSplineSet
EndChar

StartChar: Egrave
Encoding: 200 200 138
Width: 1319
GlyphClass: 2
Flags: W
LayerCount: 2
Fore
SplineSet
205 20 m 2,0,-1
 205 1413 l 2,1,2
 205 1434 205 1434 225 1434 c 2,3,-1
 1217 1434 l 2,4,5
 1237 1434 1237 1434 1237 1413 c 2,6,-1
 1237 1311 l 2,7,8
 1237 1290 1237 1290 1217 1290 c 2,9,-1
 389 1290 l 1,10,-1
 389 799 l 1,11,-1
 1073 799 l 2,12,13
 1094 799 1094 799 1094 778 c 2,14,-1
 1094 676 l 2,15,16
 1094 655 1094 655 1073 655 c 2,17,-1
 389 655 l 1,18,-1
 389 143 l 1,19,-1
 1217 143 l 2,20,21
 1237 143 1237 143 1237 123 c 2,22,-1
 1237 20 l 2,23,24
 1237 0 1237 0 1217 0 c 2,25,-1
 225 0 l 2,26,27
 205 0 205 0 205 20 c 2,0,-1
440 1812 m 1,28,29
 426 1833 426 1833 451 1833 c 2,30,-1
 635 1833 l 2,31,32
 655 1833 655 1833 666 1812 c 2,33,-1
 799 1546 l 2,34,35
 809 1526 809 1526 788 1526 c 2,36,-1
 686 1526 l 2,37,38
 672 1526 672 1526 655 1546 c 2,39,-1
 440 1812 l 1,28,29
EndSplineSet
EndChar

StartChar: Eacute
Encoding: 201 201 139
Width: 1319
GlyphClass: 2
Flags: W
LayerCount: 2
Fore
SplineSet
205 20 m 2,0,-1
 205 1413 l 2,1,2
 205 1434 205 1434 225 1434 c 2,3,-1
 1217 1434 l 2,4,5
 1237 1434 1237 1434 1237 1413 c 2,6,-1
 1237 1311 l 2,7,8
 1237 1290 1237 1290 1217 1290 c 2,9,-1
 389 1290 l 1,10,-1
 389 799 l 1,11,-1
 1073 799 l 2,12,13
 1094 799 1094 799 1094 778 c 2,14,-1
 1094 676 l 2,15,16
 1094 655 1094 655 1073 655 c 2,17,-1
 389 655 l 1,18,-1
 389 143 l 1,19,-1
 1217 143 l 2,20,21
 1237 143 1237 143 1237 123 c 2,22,-1
 1237 20 l 2,23,24
 1237 0 1237 0 1217 0 c 2,25,-1
 225 0 l 2,26,27
 205 0 205 0 205 20 c 2,0,-1
623 1546 m 2,28,-1
 756 1812 l 2,29,30
 766 1833 766 1833 786 1833 c 2,31,-1
 971 1833 l 2,32,33
 995 1833 995 1833 981 1812 c 1,34,-1
 766 1546 l 2,35,36
 750 1526 750 1526 735 1526 c 2,37,-1
 633 1526 l 2,38,39
 612 1526 612 1526 623 1546 c 2,28,-1
EndSplineSet
EndChar

StartChar: Ecircumflex
Encoding: 202 202 140
Width: 1319
GlyphClass: 2
Flags: W
LayerCount: 2
Fore
SplineSet
205 20 m 2,0,-1
 205 1413 l 2,1,2
 205 1434 205 1434 225 1434 c 2,3,-1
 1217 1434 l 2,4,5
 1237 1434 1237 1434 1237 1413 c 2,6,-1
 1237 1311 l 2,7,8
 1237 1290 1237 1290 1217 1290 c 2,9,-1
 389 1290 l 1,10,-1
 389 799 l 1,11,-1
 1073 799 l 2,12,13
 1094 799 1094 799 1094 778 c 2,14,-1
 1094 676 l 2,15,16
 1094 655 1094 655 1073 655 c 2,17,-1
 389 655 l 1,18,-1
 389 143 l 1,19,-1
 1217 143 l 2,20,21
 1237 143 1237 143 1237 123 c 2,22,-1
 1237 20 l 2,23,24
 1237 0 1237 0 1217 0 c 2,25,-1
 225 0 l 2,26,27
 205 0 205 0 205 20 c 2,0,-1
420 1546 m 2,28,-1
 567 1772 l 1,29,30
 584 1794 584 1794 592 1804 c 0,31,32
 614 1833 614 1833 649 1833 c 2,33,-1
 793 1833 l 2,34,35
 828 1833 828 1833 843 1813.5 c 128,-1,36
 858 1794 858 1794 874 1772 c 1,37,-1
 1022 1546 l 2,38,39
 1036 1526 1036 1526 1012 1526 c 2,40,-1
 913 1526 l 2,41,42
 899 1526 899 1526 879 1546 c 2,43,-1
 721 1710 l 1,44,-1
 563 1546 l 2,45,46
 543 1526 543 1526 528 1526 c 2,47,-1
 430 1526 l 2,48,49
 406 1526 406 1526 420 1546 c 2,28,-1
EndSplineSet
EndChar

StartChar: Edieresis
Encoding: 203 203 141
Width: 1319
GlyphClass: 2
Flags: W
LayerCount: 2
Fore
SplineSet
205 20 m 2,0,-1
 205 1413 l 2,1,2
 205 1434 205 1434 225 1434 c 2,3,-1
 1217 1434 l 2,4,5
 1237 1434 1237 1434 1237 1413 c 2,6,-1
 1237 1311 l 2,7,8
 1237 1290 1237 1290 1217 1290 c 2,9,-1
 389 1290 l 1,10,-1
 389 799 l 1,11,-1
 1073 799 l 2,12,13
 1094 799 1094 799 1094 778 c 2,14,-1
 1094 676 l 2,15,16
 1094 655 1094 655 1073 655 c 2,17,-1
 389 655 l 1,18,-1
 389 143 l 1,19,-1
 1217 143 l 2,20,21
 1237 143 1237 143 1237 123 c 2,22,-1
 1237 20 l 2,23,24
 1237 0 1237 0 1217 0 c 2,25,-1
 225 0 l 2,26,27
 205 0 205 0 205 20 c 2,0,-1
444 1556 m 2,28,29
 403 1556 403 1556 403 1597 c 2,30,-1
 403 1731 l 2,31,32
 403 1772 403 1772 444 1772 c 2,33,-1
 578 1772 l 2,34,35
 618 1772 618 1772 618 1731 c 2,36,-1
 618 1597 l 2,37,38
 618 1556 618 1556 578 1556 c 2,39,-1
 444 1556 l 2,28,29
864 1556 m 2,40,41
 823 1556 823 1556 823 1597 c 2,42,-1
 823 1731 l 2,43,44
 823 1772 823 1772 864 1772 c 2,45,-1
 997 1772 l 2,46,47
 1020 1772 1020 1772 1029 1762.5 c 128,-1,48
 1038 1753 1038 1753 1038 1731 c 2,49,-1
 1038 1597 l 2,50,51
 1038 1575 1038 1575 1029 1565.5 c 128,-1,52
 1020 1556 1020 1556 997 1556 c 2,53,-1
 864 1556 l 2,40,41
EndSplineSet
EndChar

StartChar: Igrave
Encoding: 204 204 142
Width: 582
GlyphClass: 2
Flags: W
LayerCount: 2
Fore
SplineSet
4 1812 m 1,0,1
 -10 1833 -10 1833 14 1833 c 2,2,-1
 199 1833 l 2,3,4
 219 1833 219 1833 229 1812 c 2,5,-1
 362 1546 l 2,6,7
 373 1526 373 1526 352 1526 c 2,8,-1
 250 1526 l 2,9,10
 236 1526 236 1526 219 1546 c 2,11,-1
 4 1812 l 1,0,1
193 20 m 2,12,-1
 193 1413 l 2,13,14
 193 1434 193 1434 213 1434 c 2,15,-1
 356 1434 l 2,16,17
 377 1434 377 1434 377 1413 c 2,18,-1
 377 20 l 2,19,20
 377 0 377 0 356 0 c 2,21,-1
 213 0 l 2,22,23
 193 0 193 0 193 20 c 2,12,-1
EndSplineSet
EndChar

StartChar: Iacute
Encoding: 205 205 143
Width: 582
GlyphClass: 2
Flags: W
LayerCount: 2
Fore
SplineSet
205 20 m 2,0,-1
 205 1413 l 2,1,2
 205 1434 205 1434 225 1434 c 2,3,-1
 369 1434 l 2,4,5
 389 1434 389 1434 389 1413 c 2,6,-1
 389 20 l 2,7,8
 389 0 389 0 369 0 c 2,9,-1
 225 0 l 2,10,11
 205 0 205 0 205 20 c 2,0,-1
219 1546 m 2,12,-1
 352 1812 l 2,13,14
 362 1833 362 1833 383 1833 c 2,15,-1
 567 1833 l 2,16,17
 592 1833 592 1833 578 1812 c 1,18,-1
 362 1546 l 2,19,20
 346 1526 346 1526 332 1526 c 2,21,-1
 229 1526 l 2,22,23
 209 1526 209 1526 219 1546 c 2,12,-1
EndSplineSet
EndChar

StartChar: Icircumflex
Encoding: 206 206 144
Width: 610
GlyphClass: 2
Flags: W
LayerCount: 2
Fore
SplineSet
4 1526 m 2,0,-1
 152 1751 l 2,1,2
 180 1792 180 1792 197.5 1802 c 128,-1,3
 215 1812 215 1812 233 1812 c 2,4,-1
 377 1812 l 2,5,6
 412 1812 412 1812 427 1793 c 128,-1,7
 442 1774 442 1774 459 1751 c 1,8,-1
 606 1526 l 2,9,10
 620 1506 620 1506 596 1505 c 1,11,-1
 498 1505 l 2,12,13
 484 1505 484 1505 463 1526 c 2,14,-1
 305 1690 l 1,15,-1
 147 1526 l 2,16,17
 127 1506 127 1506 113 1505 c 1,18,-1
 14 1505 l 1,19,20
 -10 1506 -10 1506 4 1526 c 2,0,-1
213 20 m 2,21,-1
 213 1413 l 2,22,23
 213 1433 213 1433 233 1434 c 1,24,-1
 377 1434 l 2,25,26
 397 1434 397 1434 397 1413 c 2,27,-1
 397 20 l 2,28,29
 397 0 397 0 377 0 c 2,30,-1
 233 0 l 2,31,32
 213 0 213 0 213 20 c 2,21,-1
EndSplineSet
EndChar

StartChar: Idieresis
Encoding: 207 207 145
Width: 594
GlyphClass: 2
Flags: W
LayerCount: 2
Fore
SplineSet
154 1741 m 2,0,1
 195 1741 195 1741 195 1700 c 2,2,-1
 195 1567 l 2,3,4
 195 1544 195 1544 185.5 1535 c 128,-1,5
 176 1526 176 1526 154 1526 c 2,6,-1
 20 1526 l 2,7,8
 -2 1526 -2 1526 -11 1535 c 128,-1,9
 -20 1544 -20 1544 -20 1567 c 2,10,-1
 -20 1700 l 2,11,12
 -20 1741 -20 1741 20 1741 c 2,13,-1
 154 1741 l 2,0,1
205 20 m 2,14,-1
 205 1413 l 2,15,16
 205 1434 205 1434 225 1434 c 2,17,-1
 369 1434 l 2,18,19
 389 1434 389 1434 389 1413 c 2,20,-1
 389 20 l 2,21,22
 389 0 389 0 369 0 c 2,23,-1
 225 0 l 2,24,25
 205 0 205 0 205 20 c 2,14,-1
399 1700 m 2,26,27
 399 1741 399 1741 440 1741 c 2,28,-1
 573 1741 l 2,29,30
 596 1741 596 1741 605 1731.5 c 128,-1,31
 614 1722 614 1722 614 1700 c 2,32,-1
 614 1567 l 2,33,34
 614 1544 614 1544 605 1535 c 128,-1,35
 596 1526 596 1526 573 1526 c 2,36,-1
 440 1526 l 2,37,38
 418 1526 418 1526 408.5 1535 c 128,-1,39
 399 1544 399 1544 399 1567 c 2,40,-1
 399 1700 l 2,26,27
EndSplineSet
EndChar

StartChar: Eth
Encoding: 208 208 146
Width: 1505
GlyphClass: 2
Flags: W
LayerCount: 2
Fore
SplineSet
20 666 m 2,0,-1
 20 768 l 2,1,2
 20 788 20 788 41 788 c 2,3,-1
 205 788 l 1,4,-1
 205 1413 l 2,5,6
 205 1433 205 1433 225 1434 c 1,7,-1
 696 1434 l 2,8,9
 1015 1434 1015 1434 1209 1242.5 c 128,-1,10
 1403 1051 1403 1051 1403 717 c 128,-1,11
 1403 383 1403 383 1209.5 191.5 c 128,-1,12
 1016 0 1016 0 696 0 c 2,13,-1
 225 0 l 2,14,15
 205 0 205 0 205 20 c 2,16,-1
 205 645 l 1,17,-1
 41 645 l 1,18,19
 20 646 20 646 20 666 c 2,0,-1
389 143 m 1,20,-1
 696 143 l 2,21,22
 929 143 929 143 1074 289.5 c 128,-1,23
 1219 436 1219 436 1219 716.5 c 128,-1,24
 1219 997 1219 997 1074.5 1143.5 c 128,-1,25
 930 1290 930 1290 696 1290 c 2,26,-1
 389 1290 l 1,27,-1
 389 788 l 1,28,-1
 635 788 l 2,29,30
 655 788 655 788 655 768 c 2,31,-1
 655 666 l 2,32,33
 655 646 655 646 635 645 c 1,34,-1
 389 645 l 1,35,-1
 389 143 l 1,20,-1
EndSplineSet
EndChar

StartChar: Ntilde
Encoding: 209 209 147
Width: 1618
GlyphClass: 2
Flags: W
LayerCount: 2
Fore
SplineSet
205 20 m 2,0,-1
 205 1413 l 2,1,2
 205 1434 205 1434 225 1434 c 2,3,-1
 369 1434 l 2,4,5
 430 1434 430 1434 471 1372 c 2,6,-1
 1229 246 l 1,7,-1
 1229 1413 l 2,8,9
 1229 1434 1229 1434 1249 1434 c 2,10,-1
 1393 1434 l 2,11,12
 1413 1434 1413 1434 1413 1413 c 2,13,-1
 1413 20 l 2,14,15
 1413 0 1413 0 1393 0 c 2,16,-1
 1249 0 l 2,17,18
 1188 0 1188 0 1147 61 c 2,19,-1
 389 1188 l 1,20,-1
 389 20 l 2,21,22
 389 0 389 0 369 0 c 2,23,-1
 225 0 l 2,24,25
 205 0 205 0 205 20 c 2,0,-1
514 1550 m 1,26,27
 543 1802 543 1802 709 1802 c 0,28,29
 782 1802 782 1802 876 1703 c 0,30,31
 909 1669 909 1669 934 1669 c 0,32,33
 991 1669 991 1669 1012 1772 c 1,34,35
 1014 1792 1014 1792 1036 1792 c 2,36,-1
 1118 1792 l 2,37,38
 1143 1792 1143 1792 1139 1767 c 1,39,40
 1110 1516 1110 1516 944 1516 c 0,41,42
 872 1516 872 1516 776 1615 c 0,43,44
 743 1649 743 1649 719 1649 c 0,45,46
 662 1649 662 1649 641 1546 c 1,47,48
 639 1526 639 1526 616 1526 c 2,49,-1
 535 1526 l 2,50,51
 510 1526 510 1526 514 1550 c 1,26,27
EndSplineSet
EndChar

StartChar: Ograve
Encoding: 210 210 148
Width: 1577
GlyphClass: 2
Flags: W
LayerCount: 2
Fore
SplineSet
309 168 m 0,0,1
 123 367 123 367 123 717 c 128,-1,2
 123 1067 123 1067 309.5 1265.5 c 128,-1,3
 496 1464 496 1464 788.5 1464 c 128,-1,4
 1081 1464 1081 1464 1267.5 1265.5 c 128,-1,5
 1454 1067 1454 1067 1454 717 c 128,-1,6
 1454 367 1454 367 1267.5 168 c 128,-1,7
 1081 -31 1081 -31 788.5 -31 c 128,-1,8
 496 -31 496 -31 309 168 c 0,0,1
788.5 1321 m 128,-1,10
 582 1321 582 1321 444.5 1168.5 c 128,-1,11
 307 1016 307 1016 307 717 c 128,-1,12
 307 418 307 418 444.5 265.5 c 128,-1,13
 582 113 582 113 788.5 113 c 128,-1,14
 995 113 995 113 1132.5 265.5 c 128,-1,15
 1270 418 1270 418 1270 717 c 128,-1,16
 1270 1016 1270 1016 1132.5 1168.5 c 128,-1,9
 995 1321 995 1321 788.5 1321 c 128,-1,10
487 1812 m 1,17,18
 473 1833 473 1833 498 1833 c 2,19,-1
 682 1833 l 2,20,21
 702 1833 702 1833 713 1812 c 2,22,-1
 846 1546 l 2,23,24
 856 1526 856 1526 836 1526 c 2,25,-1
 733 1526 l 2,26,27
 719 1526 719 1526 702 1546 c 2,28,-1
 487 1812 l 1,17,18
EndSplineSet
EndChar

StartChar: Oacute
Encoding: 211 211 149
Width: 1577
GlyphClass: 2
Flags: W
LayerCount: 2
Fore
SplineSet
309 168 m 0,0,1
 123 367 123 367 123 717 c 128,-1,2
 123 1067 123 1067 309.5 1265.5 c 128,-1,3
 496 1464 496 1464 788.5 1464 c 128,-1,4
 1081 1464 1081 1464 1267.5 1265.5 c 128,-1,5
 1454 1067 1454 1067 1454 717 c 128,-1,6
 1454 367 1454 367 1267.5 168 c 128,-1,7
 1081 -31 1081 -31 788.5 -31 c 128,-1,8
 496 -31 496 -31 309 168 c 0,0,1
788.5 1321 m 128,-1,10
 582 1321 582 1321 444.5 1168.5 c 128,-1,11
 307 1016 307 1016 307 717 c 128,-1,12
 307 418 307 418 444.5 265.5 c 128,-1,13
 582 113 582 113 788.5 113 c 128,-1,14
 995 113 995 113 1132.5 265.5 c 128,-1,15
 1270 418 1270 418 1270 717 c 128,-1,16
 1270 1016 1270 1016 1132.5 1168.5 c 128,-1,9
 995 1321 995 1321 788.5 1321 c 128,-1,10
711 1546 m 2,17,-1
 844 1812 l 2,18,19
 854 1833 854 1833 874 1833 c 2,20,-1
 1059 1833 l 2,21,22
 1083 1833 1083 1833 1069 1812 c 1,23,-1
 854 1546 l 2,24,25
 838 1526 838 1526 823 1526 c 2,26,-1
 721 1526 l 2,27,28
 700 1526 700 1526 711 1546 c 2,17,-1
EndSplineSet
EndChar

StartChar: Ocircumflex
Encoding: 212 212 150
Width: 1577
GlyphClass: 2
Flags: W
LayerCount: 2
Fore
SplineSet
309 168 m 0,0,1
 123 367 123 367 123 717 c 128,-1,2
 123 1067 123 1067 309.5 1265.5 c 128,-1,3
 496 1464 496 1464 788.5 1464 c 128,-1,4
 1081 1464 1081 1464 1267.5 1265.5 c 128,-1,5
 1454 1067 1454 1067 1454 717 c 128,-1,6
 1454 367 1454 367 1267.5 168 c 128,-1,7
 1081 -31 1081 -31 788.5 -31 c 128,-1,8
 496 -31 496 -31 309 168 c 0,0,1
788.5 1321 m 128,-1,10
 582 1321 582 1321 444.5 1168.5 c 128,-1,11
 307 1016 307 1016 307 717 c 128,-1,12
 307 418 307 418 444.5 265.5 c 128,-1,13
 582 113 582 113 788.5 113 c 128,-1,14
 995 113 995 113 1132.5 265.5 c 128,-1,15
 1270 418 1270 418 1270 717 c 128,-1,16
 1270 1016 1270 1016 1132.5 1168.5 c 128,-1,9
 995 1321 995 1321 788.5 1321 c 128,-1,10
487 1546 m 2,17,-1
 635 1772 l 1,18,19
 665 1813 665 1813 681.5 1823 c 128,-1,20
 698 1833 698 1833 717 1833 c 2,21,-1
 860 1833 l 2,22,23
 894 1833 894 1833 910 1813.5 c 128,-1,24
 926 1794 926 1794 942 1772 c 1,25,-1
 1090 1546 l 2,26,27
 1104 1526 1104 1526 1079 1526 c 2,28,-1
 981 1526 l 2,29,30
 967 1526 967 1526 946 1546 c 1,31,-1
 788 1710 l 1,32,-1
 631 1546 l 1,33,34
 610 1526 610 1526 596 1526 c 2,35,-1
 498 1526 l 2,36,37
 473 1526 473 1526 487 1546 c 2,17,-1
EndSplineSet
EndChar

StartChar: Otilde
Encoding: 213 213 151
Width: 1577
GlyphClass: 2
Flags: W
LayerCount: 2
Fore
SplineSet
309 168 m 0,0,1
 123 367 123 367 123 717 c 128,-1,2
 123 1067 123 1067 309.5 1265.5 c 128,-1,3
 496 1464 496 1464 788.5 1464 c 128,-1,4
 1081 1464 1081 1464 1267.5 1265.5 c 128,-1,5
 1454 1067 1454 1067 1454 717 c 128,-1,6
 1454 367 1454 367 1267.5 168 c 128,-1,7
 1081 -31 1081 -31 788.5 -31 c 128,-1,8
 496 -31 496 -31 309 168 c 0,0,1
788.5 1321 m 128,-1,10
 582 1321 582 1321 444.5 1168.5 c 128,-1,11
 307 1016 307 1016 307 717 c 128,-1,12
 307 418 307 418 444.5 265.5 c 128,-1,13
 582 113 582 113 788.5 113 c 128,-1,14
 995 113 995 113 1132.5 265.5 c 128,-1,15
 1270 418 1270 418 1270 717 c 128,-1,16
 1270 1016 1270 1016 1132.5 1168.5 c 128,-1,9
 995 1321 995 1321 788.5 1321 c 128,-1,10
455 1581 m 1,17,18
 483 1833 483 1833 649 1833 c 0,19,20
 698 1833 698 1833 741 1799 c 128,-1,21
 784 1765 784 1765 817 1732.5 c 128,-1,22
 850 1700 850 1700 874 1700 c 0,23,24
 932 1700 932 1700 952 1802 c 1,25,26
 954 1823 954 1823 977 1823 c 2,27,-1
 1059 1823 l 2,28,29
 1083 1823 1083 1823 1079 1798 c 1,30,31
 1051 1546 1051 1546 885 1546 c 0,32,33
 836 1546 836 1546 793 1580 c 128,-1,34
 750 1614 750 1614 717 1646.5 c 128,-1,35
 684 1679 684 1679 659 1679 c 0,36,37
 602 1679 602 1679 582 1577 c 1,38,39
 580 1556 580 1556 557 1556 c 2,40,-1
 475 1556 l 2,41,42
 451 1556 451 1556 455 1581 c 1,17,18
EndSplineSet
EndChar

StartChar: Odieresis
Encoding: 214 214 152
Width: 1577
GlyphClass: 2
Flags: W
LayerCount: 2
Fore
SplineSet
309 168 m 0,0,1
 123 367 123 367 123 717 c 128,-1,2
 123 1067 123 1067 309.5 1265.5 c 128,-1,3
 496 1464 496 1464 788.5 1464 c 128,-1,4
 1081 1464 1081 1464 1267.5 1265.5 c 128,-1,5
 1454 1067 1454 1067 1454 717 c 128,-1,6
 1454 367 1454 367 1267.5 168 c 128,-1,7
 1081 -31 1081 -31 788.5 -31 c 128,-1,8
 496 -31 496 -31 309 168 c 0,0,1
788.5 1321 m 128,-1,10
 582 1321 582 1321 444.5 1168.5 c 128,-1,11
 307 1016 307 1016 307 717 c 128,-1,12
 307 418 307 418 444.5 265.5 c 128,-1,13
 582 113 582 113 788.5 113 c 128,-1,14
 995 113 995 113 1132.5 265.5 c 128,-1,15
 1270 418 1270 418 1270 717 c 128,-1,16
 1270 1016 1270 1016 1132.5 1168.5 c 128,-1,9
 995 1321 995 1321 788.5 1321 c 128,-1,10
471 1608 m 2,17,-1
 471 1741 l 2,18,19
 471 1763 471 1763 480 1772.5 c 128,-1,20
 489 1782 489 1782 512 1782 c 2,21,-1
 645 1782 l 2,22,23
 668 1782 668 1782 677 1772.5 c 128,-1,24
 686 1763 686 1763 686 1741 c 2,25,-1
 686 1608 l 2,26,27
 686 1585 686 1585 677 1576 c 128,-1,28
 668 1567 668 1567 645 1567 c 2,29,-1
 512 1567 l 2,30,31
 489 1567 489 1567 480 1576 c 128,-1,32
 471 1585 471 1585 471 1608 c 2,17,-1
1065 1782 m 2,33,34
 1106 1782 1106 1782 1106 1741 c 2,35,-1
 1106 1608 l 2,36,37
 1106 1585 1106 1585 1096.5 1576 c 128,-1,38
 1087 1567 1087 1567 1065 1567 c 2,39,-1
 932 1567 l 2,40,41
 909 1567 909 1567 900 1576 c 128,-1,42
 891 1585 891 1585 891 1608 c 2,43,-1
 891 1741 l 2,44,45
 891 1763 891 1763 900 1772.5 c 128,-1,46
 909 1782 909 1782 932 1782 c 2,47,-1
 1065 1782 l 2,33,34
EndSplineSet
EndChar

StartChar: multiply
Encoding: 215 215 153
Width: 981
GlyphClass: 2
Flags: W
LayerCount: 2
Fore
SplineSet
88 367 m 1,0,1
 76 381 76 381 88 397 c 1,2,-1
 389 696 l 1,3,-1
 88 995 l 1,4,5
 76 1010 76 1010 88 1024 c 1,6,-1
 162 1098 l 2,7,8
 176 1112 176 1112 190 1098 c 2,9,-1
 489 797 l 1,10,-1
 791 1098 l 2,11,12
 805 1112 805 1112 819 1098 c 2,13,-1
 891 1024 l 2,14,15
 905 1010 905 1010 891 995 c 2,16,-1
 592 696 l 1,17,-1
 891 397 l 1,18,19
 905 381 905 381 891 367 c 2,20,-1
 819 295 l 2,21,22
 805 281 805 281 791 295 c 2,23,-1
 489 594 l 1,24,-1
 190 295 l 2,25,26
 176 281 176 281 162 295 c 2,27,-1
 88 367 l 1,0,1
EndSplineSet
EndChar

StartChar: Oslash
Encoding: 216 216 154
Width: 1577
GlyphClass: 2
Flags: W
LayerCount: 2
Fore
SplineSet
123 717 m 0,0,1
 123 1067 123 1067 309.5 1265.5 c 128,-1,2
 496 1464 496 1464 788 1464 c 0,3,4
 942 1464 942 1464 1067 1409 c 1,5,-1
 1085 1444 l 2,6,7
 1096 1464 1096 1464 1116 1464 c 2,8,-1
 1260 1464 l 2,9,10
 1280 1464 1280 1464 1270 1444 c 2,11,-1
 1206 1323 l 1,12,13
 1454 1118 1454 1118 1454 717 c 0,14,15
 1454 367 1454 367 1267.5 168 c 128,-1,16
 1081 -31 1081 -31 788 -31 c 0,17,18
 635 -31 635 -31 510 25 c 1,19,-1
 492 -10 l 2,20,21
 481 -31 481 -31 461 -31 c 2,22,-1
 317 -31 l 2,23,24
 293 -31 293 -31 307 -10 c 1,25,-1
 371 109 l 1,26,27
 123 309 123 309 123 717 c 0,0,1
451 258 m 1,28,-1
 995 1274 l 1,29,30
 897 1321 897 1321 788 1321 c 0,31,32
 582 1321 582 1321 444.5 1168.5 c 128,-1,33
 307 1016 307 1016 307 717 c 128,-1,34
 307 418 307 418 451 258 c 1,28,-1
582 158 m 1,35,36
 674 113 674 113 788 113 c 0,37,38
 995 113 995 113 1132.5 265.5 c 128,-1,39
 1270 418 1270 418 1270 717 c 128,-1,40
 1270 1016 1270 1016 1126 1176 c 1,41,-1
 582 158 l 1,35,36
EndSplineSet
EndChar

StartChar: Ugrave
Encoding: 217 217 155
Width: 1556
GlyphClass: 2
Flags: W
LayerCount: 2
Fore
SplineSet
184 573 m 2,0,-1
 184 1413 l 2,1,2
 184 1433 184 1433 205 1434 c 1,3,-1
 348 1434 l 2,4,5
 368 1434 368 1434 369 1413 c 1,6,-1
 369 573 l 2,7,8
 369 346 369 346 483.5 229.5 c 128,-1,9
 598 113 598 113 778 113 c 128,-1,10
 958 113 958 113 1073 229.5 c 128,-1,11
 1188 346 1188 346 1188 573 c 2,12,-1
 1188 1413 l 2,13,14
 1188 1433 1188 1433 1208 1434 c 1,15,-1
 1352 1434 l 2,16,17
 1372 1434 1372 1434 1372 1413 c 2,18,-1
 1372 573 l 2,19,20
 1372 292 1372 292 1208 130.5 c 128,-1,21
 1044 -31 1044 -31 778 -31 c 128,-1,22
 512 -31 512 -31 348 130.5 c 128,-1,23
 184 292 184 292 184 573 c 2,0,-1
518 1792 m 1,24,25
 504 1812 504 1812 528 1812 c 2,26,-1
 713 1812 l 2,27,28
 733 1812 733 1812 743 1792 c 2,29,-1
 877 1526 l 2,30,31
 887 1506 887 1506 866 1505 c 1,32,-1
 764 1505 l 2,33,34
 750 1505 750 1505 733 1526 c 2,35,-1
 518 1792 l 1,24,25
EndSplineSet
EndChar

StartChar: Uacute
Encoding: 218 218 156
Width: 1556
GlyphClass: 2
Flags: W
LayerCount: 2
Fore
SplineSet
184 573 m 2,0,-1
 184 1413 l 2,1,2
 184 1433 184 1433 205 1434 c 1,3,-1
 348 1434 l 2,4,5
 368 1434 368 1434 369 1413 c 1,6,-1
 369 573 l 2,7,8
 369 346 369 346 483.5 229.5 c 128,-1,9
 598 113 598 113 778 113 c 128,-1,10
 958 113 958 113 1073 229.5 c 128,-1,11
 1188 346 1188 346 1188 573 c 2,12,-1
 1188 1413 l 2,13,14
 1188 1433 1188 1433 1208 1434 c 1,15,-1
 1352 1434 l 2,16,17
 1372 1434 1372 1434 1372 1413 c 2,18,-1
 1372 573 l 2,19,20
 1372 292 1372 292 1208 130.5 c 128,-1,21
 1044 -31 1044 -31 778 -31 c 128,-1,22
 512 -31 512 -31 348 130.5 c 128,-1,23
 184 292 184 292 184 573 c 2,0,-1
680 1526 m 2,24,-1
 813 1792 l 2,25,26
 823 1812 823 1812 844 1812 c 2,27,-1
 1028 1812 l 2,28,29
 1053 1812 1053 1812 1038 1792 c 2,30,-1
 823 1526 l 2,31,32
 807 1506 807 1506 793 1505 c 1,33,-1
 690 1505 l 1,34,35
 670 1506 670 1506 680 1526 c 2,24,-1
EndSplineSet
EndChar

StartChar: Ucircumflex
Encoding: 219 219 157
Width: 1556
GlyphClass: 2
Flags: W
LayerCount: 2
Fore
SplineSet
184 573 m 2,0,-1
 184 1413 l 2,1,2
 184 1433 184 1433 205 1434 c 1,3,-1
 348 1434 l 2,4,5
 368 1434 368 1434 369 1413 c 1,6,-1
 369 573 l 2,7,8
 369 346 369 346 483.5 229.5 c 128,-1,9
 598 113 598 113 778 113 c 128,-1,10
 958 113 958 113 1073 229.5 c 128,-1,11
 1188 346 1188 346 1188 573 c 2,12,-1
 1188 1413 l 2,13,14
 1188 1433 1188 1433 1208 1434 c 1,15,-1
 1352 1434 l 2,16,17
 1372 1434 1372 1434 1372 1413 c 2,18,-1
 1372 573 l 2,19,20
 1372 292 1372 292 1208 130.5 c 128,-1,21
 1044 -31 1044 -31 778 -31 c 128,-1,22
 512 -31 512 -31 348 130.5 c 128,-1,23
 184 292 184 292 184 573 c 2,0,-1
477 1526 m 2,24,-1
 625 1751 l 2,25,26
 653 1792 653 1792 670.5 1802 c 128,-1,27
 688 1812 688 1812 707 1812 c 2,28,-1
 850 1812 l 2,29,30
 885 1812 885 1812 900 1793 c 128,-1,31
 915 1774 915 1774 932 1751 c 1,32,-1
 1079 1526 l 2,33,34
 1093 1506 1093 1506 1069 1505 c 1,35,-1
 971 1505 l 2,36,37
 957 1505 957 1505 936 1526 c 2,38,-1
 778 1690 l 1,39,-1
 621 1526 l 2,40,41
 601 1506 601 1506 586 1505 c 1,42,-1
 487 1505 l 1,43,44
 463 1506 463 1506 477 1526 c 2,24,-1
EndSplineSet
EndChar

StartChar: Udieresis
Encoding: 220 220 158
Width: 1556
GlyphClass: 2
Flags: W
LayerCount: 2
Fore
SplineSet
184 573 m 2,0,-1
 184 1413 l 2,1,2
 184 1433 184 1433 205 1434 c 1,3,-1
 348 1434 l 2,4,5
 368 1434 368 1434 369 1413 c 1,6,-1
 369 573 l 2,7,8
 369 346 369 346 483.5 229.5 c 128,-1,9
 598 113 598 113 778 113 c 128,-1,10
 958 113 958 113 1073 229.5 c 128,-1,11
 1188 346 1188 346 1188 573 c 2,12,-1
 1188 1413 l 2,13,14
 1188 1433 1188 1433 1208 1434 c 1,15,-1
 1352 1434 l 2,16,17
 1372 1434 1372 1434 1372 1413 c 2,18,-1
 1372 573 l 2,19,20
 1372 292 1372 292 1208 130.5 c 128,-1,21
 1044 -31 1044 -31 778 -31 c 128,-1,22
 512 -31 512 -31 348 130.5 c 128,-1,23
 184 292 184 292 184 573 c 2,0,-1
461 1567 m 2,24,-1
 461 1700 l 2,25,26
 461 1723 461 1723 470 1732 c 128,-1,27
 479 1741 479 1741 502 1741 c 2,28,-1
 635 1741 l 2,29,30
 658 1741 658 1741 667 1731.5 c 128,-1,31
 676 1722 676 1722 676 1700 c 2,32,-1
 676 1567 l 2,33,34
 676 1544 676 1544 666.5 1535 c 128,-1,35
 657 1526 657 1526 635 1526 c 2,36,-1
 502 1526 l 2,37,38
 479 1526 479 1526 470 1535 c 128,-1,39
 461 1544 461 1544 461 1567 c 2,24,-1
881 1567 m 2,40,-1
 881 1700 l 2,41,42
 881 1723 881 1723 890 1732 c 128,-1,43
 899 1741 899 1741 922 1741 c 2,44,-1
 1055 1741 l 2,45,46
 1078 1741 1078 1741 1087 1731.5 c 128,-1,47
 1096 1722 1096 1722 1096 1700 c 2,48,-1
 1096 1567 l 2,49,50
 1096 1544 1096 1544 1086.5 1535 c 128,-1,51
 1077 1526 1077 1526 1055 1526 c 2,52,-1
 922 1526 l 2,53,54
 899 1526 899 1526 890 1535 c 128,-1,55
 881 1544 881 1544 881 1567 c 2,40,-1
EndSplineSet
EndChar

StartChar: Yacute
Encoding: 221 221 159
Width: 1352
GlyphClass: 2
Flags: W
LayerCount: 2
Fore
SplineSet
41 1434 m 2,0,-1
 190 1434 l 2,1,2
 217 1434 217 1434 231 1413 c 1,3,-1
 676 674 l 1,4,-1
 1120 1413 l 1,5,6
 1135 1434 1135 1434 1161 1434 c 2,7,-1
 1311 1434 l 2,8,9
 1323 1434 1323 1434 1328 1426.5 c 128,-1,10
 1333 1419 1333 1419 1327 1413 c 1,11,-1
 768 481 l 1,12,-1
 768 20 l 2,13,14
 768 0 768 0 748 0 c 2,15,-1
 604 0 l 2,16,17
 584 0 584 0 584 20 c 2,18,-1
 584 481 l 1,19,-1
 25 1413 l 1,20,21
 18 1419 18 1419 23.5 1426.5 c 128,-1,22
 29 1434 29 1434 41 1434 c 2,0,-1
598 1526 m 2,23,-1
 731 1792 l 2,24,25
 741 1812 741 1812 762 1812 c 2,26,-1
 946 1812 l 2,27,28
 971 1812 971 1812 956 1792 c 2,29,-1
 741 1526 l 2,30,31
 725 1505 725 1505 711 1505 c 2,32,-1
 608 1505 l 2,33,34
 588 1505 588 1505 598 1526 c 2,23,-1
EndSplineSet
EndChar

StartChar: Thorn
Encoding: 222 222 160
Width: 1393
GlyphClass: 2
Flags: W
LayerCount: 2
Fore
SplineSet
205 20 m 2,0,-1
 205 1413 l 2,1,2
 205 1434 205 1434 225 1434 c 2,3,-1
 369 1434 l 2,4,5
 389 1434 389 1434 389 1413 c 2,6,-1
 389 1219 l 1,7,-1
 758 1219 l 2,8,9
 1016 1219 1016 1219 1153 1093 c 128,-1,10
 1290 967 1290 967 1290 717 c 128,-1,11
 1290 467 1290 467 1153 341 c 128,-1,12
 1016 215 1016 215 758 215 c 2,13,-1
 389 215 l 1,14,-1
 389 20 l 2,15,16
 389 0 389 0 369 0 c 2,17,-1
 225 0 l 2,18,19
 205 0 205 0 205 20 c 2,0,-1
389 358 m 1,20,-1
 758 358 l 2,21,22
 920 358 920 358 1013 445 c 128,-1,23
 1106 532 1106 532 1106 716.5 c 128,-1,24
 1106 901 1106 901 1013 988 c 128,-1,25
 920 1075 920 1075 758 1075 c 2,26,-1
 389 1075 l 1,27,-1
 389 358 l 1,20,-1
EndSplineSet
EndChar

StartChar: germandbls
Encoding: 223 223 161
Width: 1434
GlyphClass: 2
Flags: W
LayerCount: 2
Fore
SplineSet
205 20 m 2,0,-1
 205 952 l 2,1,2
 205 1198 205 1198 332 1331 c 128,-1,3
 459 1464 459 1464 691.5 1464 c 128,-1,4
 924 1464 924 1464 1045.5 1373 c 128,-1,5
 1167 1282 1167 1282 1167 1126 c 0,6,7
 1167 1047 1167 1047 1135.5 987.5 c 128,-1,8
 1104 928 1104 928 1065 899 c 0,9,10
 963 823 963 823 963 765 c 128,-1,11
 963 707 963 707 1005 667 c 128,-1,12
 1047 627 1047 627 1107 595 c 128,-1,13
 1167 563 1167 563 1227.5 527.5 c 128,-1,14
 1288 492 1288 492 1330 432.5 c 128,-1,15
 1372 373 1372 373 1372 297 c 0,16,17
 1372 147 1372 147 1265.5 58 c 128,-1,18
 1159 -31 1159 -31 982 -31 c 128,-1,19
 805 -31 805 -31 687 44 c 128,-1,20
 569 119 569 119 532 252 c 0,21,22
 526 276 526 276 553 276 c 2,23,-1
 682 276 l 2,24,25
 694 276 694 276 707 256 c 0,26,27
 793 113 793 113 963 113 c 0,28,29
 1073 113 1073 113 1130.5 160 c 128,-1,30
 1188 207 1188 207 1188 272.5 c 128,-1,31
 1188 338 1188 338 1146 378 c 128,-1,32
 1104 418 1104 418 1043.5 449.5 c 128,-1,33
 983 481 983 481 922.5 517 c 128,-1,34
 862 553 862 553 820 612.5 c 128,-1,35
 778 672 778 672 778 740.5 c 128,-1,36
 778 809 778 809 810 862 c 128,-1,37
 842 915 842 915 881 947 c 0,38,39
 983 1031 983 1031 983 1116 c 0,40,41
 983 1321 983 1321 696 1321 c 0,42,43
 555 1321 555 1321 472 1227 c 128,-1,44
 389 1133 389 1133 389 952 c 2,45,-1
 389 20 l 2,46,47
 389 0 389 0 369 0 c 2,48,-1
 225 0 l 2,49,50
 205 0 205 0 205 20 c 2,0,-1
EndSplineSet
EndChar

StartChar: agrave
Encoding: 224 224 162
Width: 1290
GlyphClass: 2
Flags: W
LayerCount: 2
Fore
SplineSet
123 317.5 m 128,-1,1
 123 479 123 479 241.5 572.5 c 128,-1,2
 360 666 360 666 573 666 c 2,3,-1
 922 666 l 1,4,-1
 922 676 l 2,5,6
 922 983 922 983 614 983 c 0,7,8
 518 983 518 983 450.5 937 c 128,-1,9
 383 891 383 891 358 819 c 0,10,11
 352 799 352 799 334 799 c 2,12,-1
 205 799 l 2,13,14
 182 799 182 799 184 819 c 0,15,16
 200 958 200 958 316 1042 c 128,-1,17
 432 1126 432 1126 614 1126 c 0,18,19
 852 1126 852 1126 979 1008.5 c 128,-1,20
 1106 891 1106 891 1106 676 c 2,21,-1
 1106 20 l 2,22,23
 1106 0 1106 0 1085 0 c 2,24,-1
 973 0 l 2,25,26
 953 0 953 0 950 20 c 2,27,-1
 932 133 l 1,28,29
 920 114 920 114 879 80.5 c 128,-1,30
 838 47 838 47 797 26 c 0,31,32
 689 -31 689 -31 553 -31 c 0,33,34
 354 -31 354 -31 238.5 62.5 c 128,-1,0
 123 156 123 156 123 317.5 c 128,-1,1
307 317 m 0,35,36
 307 217 307 217 373.5 165 c 128,-1,37
 440 113 440 113 563 113 c 0,38,39
 629 113 629 113 690.5 135.5 c 128,-1,40
 752 158 752 158 791.5 188.5 c 128,-1,41
 831 219 831 219 862 251 c 128,-1,42
 893 283 893 283 907.5 304.5 c 128,-1,43
 922 326 922 326 922 328 c 2,44,-1
 922 522 l 1,45,-1
 573 522 l 2,46,47
 307 522 307 522 307 317 c 0,35,36
354 1503 m 1,48,49
 340 1523 340 1523 365 1524 c 1,50,-1
 549 1524 l 2,51,52
 569 1524 569 1524 580 1503 c 2,53,-1
 713 1237 l 2,54,55
 723 1217 723 1217 702 1217 c 2,56,-1
 600 1217 l 2,57,58
 586 1217 586 1217 569 1237 c 2,59,-1
 354 1503 l 1,48,49
EndSplineSet
EndChar

StartChar: aacute
Encoding: 225 225 163
Width: 1290
GlyphClass: 2
Flags: W
LayerCount: 2
Fore
SplineSet
123 317.5 m 128,-1,1
 123 479 123 479 241.5 572.5 c 128,-1,2
 360 666 360 666 573 666 c 2,3,-1
 922 666 l 1,4,-1
 922 676 l 2,5,6
 922 983 922 983 614 983 c 0,7,8
 518 983 518 983 450.5 937 c 128,-1,9
 383 891 383 891 358 819 c 0,10,11
 352 799 352 799 334 799 c 2,12,-1
 205 799 l 2,13,14
 182 799 182 799 184 819 c 0,15,16
 200 958 200 958 316 1042 c 128,-1,17
 432 1126 432 1126 614 1126 c 0,18,19
 852 1126 852 1126 979 1008.5 c 128,-1,20
 1106 891 1106 891 1106 676 c 2,21,-1
 1106 20 l 2,22,23
 1106 0 1106 0 1085 0 c 2,24,-1
 973 0 l 2,25,26
 953 0 953 0 950 20 c 2,27,-1
 932 133 l 1,28,29
 920 114 920 114 879 80.5 c 128,-1,30
 838 47 838 47 797 26 c 0,31,32
 689 -31 689 -31 553 -31 c 0,33,34
 354 -31 354 -31 238.5 62.5 c 128,-1,0
 123 156 123 156 123 317.5 c 128,-1,1
307 317 m 0,35,36
 307 217 307 217 373.5 165 c 128,-1,37
 440 113 440 113 563 113 c 0,38,39
 629 113 629 113 690.5 135.5 c 128,-1,40
 752 158 752 158 791.5 188.5 c 128,-1,41
 831 219 831 219 862 251 c 128,-1,42
 893 283 893 283 907.5 304.5 c 128,-1,43
 922 326 922 326 922 328 c 2,44,-1
 922 522 l 1,45,-1
 573 522 l 2,46,47
 307 522 307 522 307 317 c 0,35,36
578 1239 m 2,48,-1
 711 1505 l 2,49,50
 721 1525 721 1525 741 1526 c 1,51,-1
 926 1526 l 2,52,53
 951 1526 951 1526 936 1505 c 1,54,-1
 721 1239 l 2,55,56
 705 1219 705 1219 690 1219 c 2,57,-1
 588 1219 l 2,58,59
 568 1219 568 1219 578 1239 c 2,48,-1
EndSplineSet
EndChar

StartChar: acircumflex
Encoding: 226 226 164
Width: 1290
GlyphClass: 2
Flags: W
LayerCount: 2
Fore
SplineSet
123 317.5 m 128,-1,1
 123 479 123 479 241.5 572.5 c 128,-1,2
 360 666 360 666 573 666 c 2,3,-1
 922 666 l 1,4,-1
 922 676 l 2,5,6
 922 983 922 983 614 983 c 0,7,8
 518 983 518 983 450.5 937 c 128,-1,9
 383 891 383 891 358 819 c 0,10,11
 352 799 352 799 334 799 c 2,12,-1
 205 799 l 2,13,14
 182 799 182 799 184 819 c 0,15,16
 200 958 200 958 316 1042 c 128,-1,17
 432 1126 432 1126 614 1126 c 0,18,19
 852 1126 852 1126 979 1008.5 c 128,-1,20
 1106 891 1106 891 1106 676 c 2,21,-1
 1106 20 l 2,22,23
 1106 0 1106 0 1085 0 c 2,24,-1
 973 0 l 2,25,26
 953 0 953 0 950 20 c 2,27,-1
 932 133 l 1,28,29
 920 114 920 114 879 80.5 c 128,-1,30
 838 47 838 47 797 26 c 0,31,32
 689 -31 689 -31 553 -31 c 0,33,34
 354 -31 354 -31 238.5 62.5 c 128,-1,0
 123 156 123 156 123 317.5 c 128,-1,1
307 317 m 0,35,36
 307 217 307 217 373.5 165 c 128,-1,37
 440 113 440 113 563 113 c 0,38,39
 629 113 629 113 690.5 135.5 c 128,-1,40
 752 158 752 158 791.5 188.5 c 128,-1,41
 831 219 831 219 862 251 c 128,-1,42
 893 283 893 283 907.5 304.5 c 128,-1,43
 922 326 922 326 922 328 c 2,44,-1
 922 522 l 1,45,-1
 573 522 l 2,46,47
 307 522 307 522 307 317 c 0,35,36
313 1239 m 2,48,-1
 461 1464 l 2,49,50
 488 1504 488 1504 506 1515 c 128,-1,51
 524 1526 524 1526 543 1526 c 2,52,-1
 686 1526 l 2,53,54
 719 1526 719 1526 735.5 1506.5 c 128,-1,55
 752 1487 752 1487 768 1464 c 2,56,-1
 915 1239 l 2,57,58
 929 1219 929 1219 905 1219 c 2,59,-1
 807 1219 l 2,60,61
 793 1219 793 1219 772 1239 c 1,62,-1
 614 1403 l 1,63,-1
 457 1239 l 2,64,65
 437 1219 437 1219 422 1219 c 2,66,-1
 324 1219 l 2,67,68
 299 1219 299 1219 313 1239 c 2,48,-1
EndSplineSet
EndChar

StartChar: atilde
Encoding: 227 227 165
Width: 1290
GlyphClass: 2
Flags: W
LayerCount: 2
Fore
SplineSet
123 317.5 m 128,-1,1
 123 479 123 479 241.5 572.5 c 128,-1,2
 360 666 360 666 573 666 c 2,3,-1
 922 666 l 1,4,-1
 922 676 l 2,5,6
 922 983 922 983 614 983 c 0,7,8
 518 983 518 983 450.5 937 c 128,-1,9
 383 891 383 891 358 819 c 0,10,11
 352 799 352 799 334 799 c 2,12,-1
 205 799 l 2,13,14
 182 799 182 799 184 819 c 0,15,16
 200 958 200 958 316 1042 c 128,-1,17
 432 1126 432 1126 614 1126 c 0,18,19
 852 1126 852 1126 979 1008.5 c 128,-1,20
 1106 891 1106 891 1106 676 c 2,21,-1
 1106 20 l 2,22,23
 1106 0 1106 0 1085 0 c 2,24,-1
 973 0 l 2,25,26
 953 0 953 0 950 20 c 2,27,-1
 932 133 l 1,28,29
 920 114 920 114 879 80.5 c 128,-1,30
 838 47 838 47 797 26 c 0,31,32
 689 -31 689 -31 553 -31 c 0,33,34
 354 -31 354 -31 238.5 62.5 c 128,-1,0
 123 156 123 156 123 317.5 c 128,-1,1
307 317 m 0,35,36
 307 217 307 217 373.5 165 c 128,-1,37
 440 113 440 113 563 113 c 0,38,39
 629 113 629 113 690.5 135.5 c 128,-1,40
 752 158 752 158 791.5 188.5 c 128,-1,41
 831 219 831 219 862 251 c 128,-1,42
 893 283 893 283 907.5 304.5 c 128,-1,43
 922 326 922 326 922 328 c 2,44,-1
 922 522 l 1,45,-1
 573 522 l 2,46,47
 307 522 307 522 307 317 c 0,35,36
322 1264 m 1,48,49
 351 1516 351 1516 516 1516 c 0,50,51
 565 1516 565 1516 608 1483 c 128,-1,52
 651 1450 651 1450 684 1416 c 128,-1,53
 717 1382 717 1382 741 1382 c 0,54,55
 798 1382 798 1382 819 1485 c 1,56,57
 821 1505 821 1505 844 1505 c 2,58,-1
 926 1505 l 2,59,60
 951 1505 951 1505 946 1481 c 1,61,62
 917 1229 917 1229 752 1229 c 0,63,64
 678 1229 678 1229 584 1328 c 0,65,66
 551 1362 551 1362 526 1362 c 0,67,68
 469 1362 469 1362 449 1260 c 1,69,70
 447 1240 447 1240 424 1239 c 1,71,-1
 342 1239 l 2,72,73
 318 1239 318 1239 322 1264 c 1,48,49
EndSplineSet
EndChar

StartChar: adieresis
Encoding: 228 228 166
Width: 1290
GlyphClass: 2
Flags: W
LayerCount: 2
Fore
SplineSet
123 317.5 m 128,-1,1
 123 479 123 479 241.5 572.5 c 128,-1,2
 360 666 360 666 573 666 c 2,3,-1
 922 666 l 1,4,-1
 922 676 l 2,5,6
 922 983 922 983 614 983 c 0,7,8
 518 983 518 983 450.5 937 c 128,-1,9
 383 891 383 891 358 819 c 0,10,11
 352 799 352 799 334 799 c 2,12,-1
 205 799 l 2,13,14
 182 799 182 799 184 819 c 0,15,16
 200 958 200 958 316 1042 c 128,-1,17
 432 1126 432 1126 614 1126 c 0,18,19
 852 1126 852 1126 979 1008.5 c 128,-1,20
 1106 891 1106 891 1106 676 c 2,21,-1
 1106 20 l 2,22,23
 1106 0 1106 0 1085 0 c 2,24,-1
 973 0 l 2,25,26
 953 0 953 0 950 20 c 2,27,-1
 932 133 l 1,28,29
 920 114 920 114 879 80.5 c 128,-1,30
 838 47 838 47 797 26 c 0,31,32
 689 -31 689 -31 553 -31 c 0,33,34
 354 -31 354 -31 238.5 62.5 c 128,-1,0
 123 156 123 156 123 317.5 c 128,-1,1
307 317 m 0,35,36
 307 217 307 217 373.5 165 c 128,-1,37
 440 113 440 113 563 113 c 0,38,39
 629 113 629 113 690.5 135.5 c 128,-1,40
 752 158 752 158 791.5 188.5 c 128,-1,41
 831 219 831 219 862 251 c 128,-1,42
 893 283 893 283 907.5 304.5 c 128,-1,43
 922 326 922 326 922 328 c 2,44,-1
 922 522 l 1,45,-1
 573 522 l 2,46,47
 307 522 307 522 307 317 c 0,35,36
317 1311 m 2,48,-1
 317 1444 l 2,49,50
 317 1467 317 1467 326.5 1476 c 128,-1,51
 336 1485 336 1485 358 1485 c 2,52,-1
 492 1485 l 2,53,54
 515 1485 515 1485 523.5 1475.5 c 128,-1,55
 532 1466 532 1466 532 1444 c 2,56,-1
 532 1311 l 2,57,58
 532 1288 532 1288 523 1279 c 128,-1,59
 514 1270 514 1270 492 1270 c 2,60,-1
 358 1270 l 2,61,62
 335 1270 335 1270 326 1279 c 128,-1,63
 317 1288 317 1288 317 1311 c 2,48,-1
737 1311 m 2,64,-1
 737 1444 l 2,65,66
 737 1467 737 1467 746.5 1476 c 128,-1,67
 756 1485 756 1485 778 1485 c 2,68,-1
 911 1485 l 2,69,70
 934 1485 934 1485 943 1475.5 c 128,-1,71
 952 1466 952 1466 952 1444 c 2,72,-1
 952 1311 l 2,73,74
 952 1288 952 1288 943 1279 c 128,-1,75
 934 1270 934 1270 911 1270 c 2,76,-1
 778 1270 l 2,77,78
 755 1270 755 1270 746 1279 c 128,-1,79
 737 1288 737 1288 737 1311 c 2,64,-1
EndSplineSet
EndChar

StartChar: aring
Encoding: 229 229 167
Width: 1290
GlyphClass: 2
Flags: W
LayerCount: 2
Fore
SplineSet
123 317.5 m 128,-1,1
 123 479 123 479 241.5 572.5 c 128,-1,2
 360 666 360 666 573 666 c 2,3,-1
 922 666 l 1,4,-1
 922 676 l 2,5,6
 922 983 922 983 614 983 c 0,7,8
 518 983 518 983 450.5 937 c 128,-1,9
 383 891 383 891 358 819 c 0,10,11
 352 799 352 799 334 799 c 2,12,-1
 205 799 l 2,13,14
 182 799 182 799 184 819 c 0,15,16
 200 958 200 958 316 1042 c 128,-1,17
 432 1126 432 1126 614 1126 c 0,18,19
 852 1126 852 1126 979 1008.5 c 128,-1,20
 1106 891 1106 891 1106 676 c 2,21,-1
 1106 20 l 2,22,23
 1106 0 1106 0 1085 0 c 2,24,-1
 973 0 l 2,25,26
 953 0 953 0 950 20 c 2,27,-1
 932 133 l 1,28,29
 920 114 920 114 879 80.5 c 128,-1,30
 838 47 838 47 797 26 c 0,31,32
 689 -31 689 -31 553 -31 c 0,33,34
 354 -31 354 -31 238.5 62.5 c 128,-1,0
 123 156 123 156 123 317.5 c 128,-1,1
307 317 m 0,35,36
 307 217 307 217 373.5 165 c 128,-1,37
 440 113 440 113 563 113 c 0,38,39
 629 113 629 113 690.5 135.5 c 128,-1,40
 752 158 752 158 791.5 188.5 c 128,-1,41
 831 219 831 219 862 251 c 128,-1,42
 893 283 893 283 907.5 304.5 c 128,-1,43
 922 326 922 326 922 328 c 2,44,-1
 922 522 l 1,45,-1
 573 522 l 2,46,47
 307 522 307 522 307 317 c 0,35,36
389 1413 m 128,-1,49
 389 1513 389 1513 457.5 1575.5 c 128,-1,50
 526 1638 526 1638 634.5 1638 c 128,-1,51
 743 1638 743 1638 812 1575.5 c 128,-1,52
 881 1513 881 1513 881 1413 c 128,-1,53
 881 1313 881 1313 812 1250.5 c 128,-1,54
 743 1188 743 1188 634.5 1188 c 128,-1,55
 526 1188 526 1188 457.5 1250.5 c 128,-1,48
 389 1313 389 1313 389 1413 c 128,-1,49
522 1413 m 128,-1,57
 522 1368 522 1368 556 1334 c 128,-1,58
 590 1300 590 1300 635 1300 c 128,-1,59
 680 1300 680 1300 714 1334 c 128,-1,60
 748 1368 748 1368 748 1413 c 128,-1,61
 748 1458 748 1458 714 1492 c 128,-1,62
 680 1526 680 1526 635 1526 c 128,-1,63
 590 1526 590 1526 556 1492 c 128,-1,56
 522 1458 522 1458 522 1413 c 128,-1,57
EndSplineSet
EndChar

StartChar: ae
Encoding: 230 230 168
Width: 2089
GlyphClass: 2
Flags: W
LayerCount: 2
Fore
SplineSet
238.5 61.5 m 128,-1,1
 123 154 123 154 123 308.5 c 128,-1,2
 123 463 123 463 241.5 554 c 128,-1,3
 360 645 360 645 573 645 c 2,4,-1
 922 645 l 1,5,-1
 922 676 l 2,6,7
 922 983 922 983 614 983 c 0,8,9
 518 983 518 983 450.5 937 c 128,-1,10
 383 891 383 891 358 819 c 0,11,12
 352 799 352 799 334 799 c 2,13,-1
 205 799 l 2,14,15
 182 799 182 799 184 819 c 0,16,17
 201 958 201 958 316.5 1042 c 128,-1,18
 432 1126 432 1126 614 1126 c 0,19,20
 897 1126 897 1126 1034 911 c 1,21,22
 1171 1126 1171 1126 1454 1126 c 0,23,24
 1675 1126 1675 1126 1820.5 983 c 128,-1,25
 1966 840 1966 840 1966 594 c 2,26,-1
 1966 543 l 2,27,28
 1966 502 1966 502 1925 502 c 2,29,-1
 1106 502 l 1,30,31
 1120 305 1120 305 1212.5 208 c 128,-1,32
 1305 111 1305 111 1434 111 c 0,33,34
 1659 111 1659 111 1761 295 c 1,35,36
 1774 315 1774 315 1786 315 c 2,37,-1
 1915 315 l 2,38,39
 1942 315 1942 315 1935 291 c 0,40,41
 1894 143 1894 143 1767 55 c 128,-1,42
 1640 -33 1640 -33 1434 -33 c 0,43,44
 1143 -33 1143 -33 1008 197 c 1,45,46
 970 146 970 146 893 87 c 1,47,48
 743 -31 743 -31 548.5 -31 c 128,-1,0
 354 -31 354 -31 238.5 61.5 c 128,-1,1
563 113 m 0,49,50
 629 113 629 113 690.5 135.5 c 128,-1,51
 752 158 752 158 791.5 188.5 c 128,-1,52
 831 219 831 219 862 251 c 128,-1,53
 893 283 893 283 907.5 304.5 c 128,-1,54
 922 326 922 326 922 328 c 2,55,-1
 922 502 l 1,56,-1
 573 502 l 2,57,58
 444 502 444 502 375.5 450.5 c 128,-1,59
 307 399 307 399 307 307 c 128,-1,60
 307 215 307 215 373.5 164 c 128,-1,61
 440 113 440 113 563 113 c 0,49,50
1106 645 m 1,62,-1
 1782 645 l 1,63,64
 1774 793 1774 793 1674.5 888 c 128,-1,65
 1575 983 1575 983 1445 983 c 128,-1,66
 1315 983 1315 983 1217.5 895 c 128,-1,67
 1120 807 1120 807 1106 645 c 1,62,-1
EndSplineSet
EndChar

StartChar: ccedilla
Encoding: 231 231 169
Width: 1282
GlyphClass: 2
Flags: W
LayerCount: 2
Fore
SplineSet
233.5 163 m 128,-1,1
 123 309 123 309 123 569 c 128,-1,2
 123 829 123 829 269.5 977.5 c 128,-1,3
 416 1126 416 1126 637 1126 c 128,-1,4
 858 1126 858 1126 983 1035 c 128,-1,5
 1108 944 1108 944 1147 782 c 0,6,7
 1153 757 1153 757 1126 758 c 1,8,-1
 997 758 l 2,9,10
 983 758 983 758 973 778 c 0,11,12
 879 983 879 983 655 983 c 0,13,14
 499 983 499 983 403 874.5 c 128,-1,15
 307 766 307 766 307 550 c 128,-1,16
 307 334 307 334 403.5 223.5 c 128,-1,17
 500 113 500 113 640 113 c 128,-1,18
 780 113 780 113 857 164 c 128,-1,19
 934 215 934 215 983 317 c 0,20,21
 993 337 993 337 1008 338 c 1,22,-1
 1137 338 l 2,23,24
 1164 338 1164 338 1157 313 c 0,25,26
 1073 -23 1073 -23 676 -31 c 1,27,-1
 676 -82 l 1,28,29
 795 -82 795 -82 858.5 -134 c 128,-1,30
 922 -186 922 -186 922 -267 c 128,-1,31
 922 -348 922 -348 854 -399.5 c 128,-1,32
 786 -451 786 -451 655 -451 c 2,33,-1
 522 -451 l 2,34,35
 502 -451 502 -451 502 -430 c 2,36,-1
 502 -358 l 2,37,38
 502 -338 502 -338 522 -338 c 2,39,-1
 655 -338 l 2,40,41
 778 -338 778 -338 778 -266.5 c 128,-1,42
 778 -195 778 -195 676 -195 c 2,43,-1
 553 -195 l 2,44,45
 533 -195 533 -195 532 -174 c 1,46,-1
 532 -18 l 1,47,0
 344 17 344 17 233.5 163 c 128,-1,1
EndSplineSet
EndChar

StartChar: egrave
Encoding: 232 232 170
Width: 1311
GlyphClass: 2
Flags: W
LayerCount: 2
Fore
SplineSet
269.5 118.5 m 128,-1,1
 123 270 123 270 123 549.5 c 128,-1,2
 123 829 123 829 269.5 977.5 c 128,-1,3
 416 1126 416 1126 652.5 1126 c 128,-1,4
 889 1126 889 1126 1038.5 974.5 c 128,-1,5
 1188 823 1188 823 1188 573 c 2,6,-1
 1188 522 l 2,7,8
 1188 481 1188 481 1147 481 c 2,9,-1
 309 481 l 1,10,11
 326 295 326 295 419 203 c 128,-1,12
 512 111 512 111 655 111 c 0,13,14
 881 111 881 111 983 295 c 0,15,16
 995 315 995 315 1008 315 c 2,17,-1
 1137 315 l 2,18,19
 1163 315 1163 315 1157 291 c 0,20,21
 1116 143 1116 143 989 55 c 128,-1,22
 862 -33 862 -33 639 -33 c 128,-1,0
 416 -33 416 -33 269.5 118.5 c 128,-1,1
309 625 m 1,23,-1
 1004 625 l 1,24,25
 995 786 995 786 894 884.5 c 128,-1,26
 793 983 793 983 653.5 983 c 128,-1,27
 514 983 514 983 420 892 c 128,-1,28
 326 801 326 801 309 625 c 1,23,-1
354 1505 m 1,29,30
 340 1526 340 1526 365 1526 c 2,31,-1
 549 1526 l 2,32,33
 569 1526 569 1526 580 1505 c 2,34,-1
 713 1239 l 2,35,36
 723 1219 723 1219 702 1219 c 2,37,-1
 600 1219 l 2,38,39
 586 1219 586 1219 569 1239 c 2,40,-1
 354 1505 l 1,29,30
EndSplineSet
EndChar

StartChar: eacute
Encoding: 233 233 171
Width: 1311
GlyphClass: 2
Flags: W
LayerCount: 2
Fore
SplineSet
269.5 118.5 m 128,-1,1
 123 270 123 270 123 549.5 c 128,-1,2
 123 829 123 829 269.5 977.5 c 128,-1,3
 416 1126 416 1126 652.5 1126 c 128,-1,4
 889 1126 889 1126 1038.5 974.5 c 128,-1,5
 1188 823 1188 823 1188 573 c 2,6,-1
 1188 522 l 2,7,8
 1188 481 1188 481 1147 481 c 2,9,-1
 309 481 l 1,10,11
 326 295 326 295 419 203 c 128,-1,12
 512 111 512 111 655 111 c 0,13,14
 881 111 881 111 983 295 c 0,15,16
 995 315 995 315 1008 315 c 2,17,-1
 1137 315 l 2,18,19
 1163 315 1163 315 1157 291 c 0,20,21
 1116 143 1116 143 989 55 c 128,-1,22
 862 -33 862 -33 639 -33 c 128,-1,0
 416 -33 416 -33 269.5 118.5 c 128,-1,1
309 625 m 1,23,-1
 1004 625 l 1,24,25
 995 786 995 786 894 884.5 c 128,-1,26
 793 983 793 983 653.5 983 c 128,-1,27
 514 983 514 983 420 892 c 128,-1,28
 326 801 326 801 309 625 c 1,23,-1
578 1239 m 2,29,-1
 711 1505 l 2,30,31
 721 1526 721 1526 741 1526 c 2,32,-1
 926 1526 l 2,33,34
 950 1526 950 1526 936 1505 c 1,35,-1
 721 1239 l 2,36,37
 705 1219 705 1219 690 1219 c 2,38,-1
 588 1219 l 2,39,40
 567 1219 567 1219 578 1239 c 2,29,-1
EndSplineSet
EndChar

StartChar: ecircumflex
Encoding: 234 234 172
Width: 1311
GlyphClass: 2
Flags: W
LayerCount: 2
Fore
SplineSet
269.5 118.5 m 128,-1,1
 123 270 123 270 123 549.5 c 128,-1,2
 123 829 123 829 269.5 977.5 c 128,-1,3
 416 1126 416 1126 652.5 1126 c 128,-1,4
 889 1126 889 1126 1038.5 974.5 c 128,-1,5
 1188 823 1188 823 1188 573 c 2,6,-1
 1188 522 l 2,7,8
 1188 481 1188 481 1147 481 c 2,9,-1
 309 481 l 1,10,11
 326 295 326 295 419 203 c 128,-1,12
 512 111 512 111 655 111 c 0,13,14
 881 111 881 111 983 295 c 0,15,16
 995 315 995 315 1008 315 c 2,17,-1
 1137 315 l 2,18,19
 1163 315 1163 315 1157 291 c 0,20,21
 1116 143 1116 143 989 55 c 128,-1,22
 862 -33 862 -33 639 -33 c 128,-1,0
 416 -33 416 -33 269.5 118.5 c 128,-1,1
309 625 m 1,23,-1
 1004 625 l 1,24,25
 995 786 995 786 894 884.5 c 128,-1,26
 793 983 793 983 653.5 983 c 128,-1,27
 514 983 514 983 420 892 c 128,-1,28
 326 801 326 801 309 625 c 1,23,-1
354 1237 m 2,29,-1
 502 1462 l 2,30,31
 529 1502 529 1502 547 1513 c 128,-1,32
 565 1524 565 1524 584 1524 c 2,33,-1
 727 1524 l 2,34,35
 760 1524 760 1524 776.5 1504.5 c 128,-1,36
 793 1485 793 1485 809 1462 c 2,37,-1
 956 1237 l 1,38,39
 971 1217 971 1217 946 1217 c 2,40,-1
 848 1217 l 2,41,42
 834 1217 834 1217 813 1237 c 1,43,-1
 655 1401 l 1,44,-1
 498 1237 l 1,45,46
 477 1217 477 1217 463 1217 c 2,47,-1
 365 1217 l 2,48,49
 340 1217 340 1217 354 1237 c 2,29,-1
EndSplineSet
EndChar

StartChar: edieresis
Encoding: 235 235 173
Width: 1311
GlyphClass: 2
Flags: W
LayerCount: 2
Fore
SplineSet
269.5 118.5 m 128,-1,1
 123 270 123 270 123 549.5 c 128,-1,2
 123 829 123 829 269.5 977.5 c 128,-1,3
 416 1126 416 1126 652.5 1126 c 128,-1,4
 889 1126 889 1126 1038.5 974.5 c 128,-1,5
 1188 823 1188 823 1188 573 c 2,6,-1
 1188 522 l 2,7,8
 1188 481 1188 481 1147 481 c 2,9,-1
 309 481 l 1,10,11
 326 295 326 295 419 203 c 128,-1,12
 512 111 512 111 655 111 c 0,13,14
 881 111 881 111 983 295 c 0,15,16
 995 315 995 315 1008 315 c 2,17,-1
 1137 315 l 2,18,19
 1163 315 1163 315 1157 291 c 0,20,21
 1116 143 1116 143 989 55 c 128,-1,22
 862 -33 862 -33 639 -33 c 128,-1,0
 416 -33 416 -33 269.5 118.5 c 128,-1,1
309 625 m 1,23,-1
 1004 625 l 1,24,25
 995 786 995 786 894 884.5 c 128,-1,26
 793 983 793 983 653.5 983 c 128,-1,27
 514 983 514 983 420 892 c 128,-1,28
 326 801 326 801 309 625 c 1,23,-1
492 1485 m 2,29,30
 532 1485 532 1485 532 1444 c 2,31,-1
 532 1311 l 2,32,33
 532 1288 532 1288 523 1279 c 128,-1,34
 514 1270 514 1270 492 1270 c 2,35,-1
 358 1270 l 2,36,37
 336 1270 336 1270 326.5 1279 c 128,-1,38
 317 1288 317 1288 317 1311 c 2,39,-1
 317 1444 l 2,40,41
 317 1485 317 1485 358 1485 c 2,42,-1
 492 1485 l 2,29,30
737 1444 m 2,43,44
 737 1485 737 1485 778 1485 c 2,45,-1
 911 1485 l 2,46,47
 934 1485 934 1485 943 1475.5 c 128,-1,48
 952 1466 952 1466 952 1444 c 2,49,-1
 952 1311 l 2,50,51
 952 1288 952 1288 943 1279 c 128,-1,52
 934 1270 934 1270 911 1270 c 2,53,-1
 778 1270 l 2,54,55
 756 1270 756 1270 746.5 1279 c 128,-1,56
 737 1288 737 1288 737 1311 c 2,57,-1
 737 1444 l 2,43,44
EndSplineSet
EndChar

StartChar: igrave
Encoding: 236 236 174
Width: 602
GlyphClass: 2
Flags: W
LayerCount: 2
Fore
SplineSet
25 1526 m 1,0,1
 11 1546 11 1546 35 1546 c 2,2,-1
 219 1546 l 2,3,4
 239 1546 239 1546 250 1526 c 2,5,-1
 383 1260 l 2,6,7
 393 1240 393 1240 373 1239 c 1,8,-1
 270 1239 l 2,9,10
 256 1239 256 1239 240 1260 c 2,11,-1
 25 1526 l 1,0,1
213 20 m 2,12,-1
 213 1075 l 2,13,14
 213 1095 213 1095 233 1096 c 1,15,-1
 377 1096 l 2,16,17
 397 1096 397 1096 397 1075 c 2,18,-1
 397 20 l 2,19,20
 397 0 397 0 377 0 c 2,21,-1
 233 0 l 2,22,23
 213 0 213 0 213 20 c 2,12,-1
EndSplineSet
EndChar

StartChar: iacute
Encoding: 237 237 175
Width: 602
GlyphClass: 2
Flags: W
LayerCount: 2
Fore
SplineSet
205 20 m 2,0,1
 205 20 205 20 205 1075 c 0,2,3
 205 1096 205 1096 225 1096 c 2,4,-1
 369 1096 l 1,5,6
 389 1095 389 1095 389 1075 c 2,7,-1
 389 20 l 2,8,9
 389 0 389 0 369 0 c 2,10,-1
 225 0 l 2,11,12
 205 0 205 0 205 20 c 2,0,1
342 1260 m 2,13,-1
 475 1526 l 2,14,15
 485 1546 485 1546 506 1546 c 2,16,-1
 690 1546 l 2,17,18
 715 1546 715 1546 700 1526 c 2,19,-1
 485 1260 l 2,20,21
 469 1240 469 1240 455 1239 c 1,22,-1
 352 1239 l 1,23,24
 332 1240 332 1240 342 1260 c 2,13,-1
EndSplineSet
EndChar

StartChar: icircumflex
Encoding: 238 238 176
Width: 610
GlyphClass: 2
Flags: W
LayerCount: 2
Fore
SplineSet
4 1217 m 2,0,-1
 152 1442 l 2,1,2
 180 1483 180 1483 197.5 1493 c 128,-1,3
 215 1503 215 1503 233 1503 c 2,4,-1
 377 1503 l 2,5,6
 412 1503 412 1503 427 1483.5 c 128,-1,7
 442 1464 442 1464 459 1442 c 1,8,-1
 606 1217 l 2,9,10
 620 1197 620 1197 596 1196 c 1,11,-1
 498 1196 l 2,12,13
 484 1196 484 1196 463 1217 c 2,14,-1
 305 1380 l 1,15,-1
 147 1217 l 2,16,17
 127 1197 127 1197 113 1196 c 1,18,-1
 14 1196 l 1,19,20
 -10 1197 -10 1197 4 1217 c 2,0,-1
213 20 m 2,21,-1
 213 1075 l 2,22,23
 213 1095 213 1095 233 1096 c 1,24,-1
 377 1096 l 2,25,26
 397 1096 397 1096 397 1075 c 2,27,-1
 397 20 l 2,28,29
 397 0 397 0 377 0 c 2,30,-1
 233 0 l 2,31,32
 213 0 213 0 213 20 c 2,21,-1
EndSplineSet
EndChar

StartChar: idieresis
Encoding: 239 239 177
Width: 655
GlyphClass: 2
Flags: W
LayerCount: 2
Fore
SplineSet
10 1270 m 2,0,-1
 10 1403 l 2,1,2
 10 1426 10 1426 19.5 1435 c 128,-1,3
 29 1444 29 1444 51 1444 c 2,4,-1
 184 1444 l 2,5,6
 207 1444 207 1444 216 1434.5 c 128,-1,7
 225 1425 225 1425 225 1403 c 2,8,-1
 225 1270 l 2,9,10
 225 1247 225 1247 216 1238 c 128,-1,11
 207 1229 207 1229 184 1229 c 2,12,-1
 51 1229 l 2,13,14
 28 1229 28 1229 19 1238 c 128,-1,15
 10 1247 10 1247 10 1270 c 2,0,-1
236 20 m 2,16,-1
 236 1075 l 2,17,18
 236 1095 236 1095 256 1096 c 1,19,-1
 399 1096 l 2,20,21
 419 1096 419 1096 420 1075 c 1,22,-1
 420 20 l 2,23,24
 420 0 420 0 399 0 c 2,25,-1
 256 0 l 2,26,27
 236 0 236 0 236 20 c 2,16,-1
430 1270 m 2,28,-1
 430 1403 l 2,29,30
 430 1426 430 1426 439.5 1435 c 128,-1,31
 449 1444 449 1444 471 1444 c 2,32,-1
 604 1444 l 2,33,34
 627 1444 627 1444 636 1434.5 c 128,-1,35
 645 1425 645 1425 645 1403 c 2,36,-1
 645 1270 l 2,37,38
 645 1247 645 1247 636 1238 c 128,-1,39
 627 1229 627 1229 604 1229 c 2,40,-1
 471 1229 l 2,41,42
 448 1229 448 1229 439 1238 c 128,-1,43
 430 1247 430 1247 430 1270 c 2,28,-1
EndSplineSet
EndChar

StartChar: eth
Encoding: 240 240 178
Width: 1311
GlyphClass: 2
Flags: W
LayerCount: 2
Fore
SplineSet
271.5 109.5 m 128,-1,1
 123 250 123 250 123 487.5 c 128,-1,2
 123 725 123 725 268.5 864.5 c 128,-1,3
 414 1004 414 1004 635 1004 c 0,4,5
 825 1004 825 1004 956 892 c 0,6,7
 987 866 987 866 999 848 c 1,8,-1
 1014 829 l 1,9,10
 997 1085 997 1085 803 1231 c 1,11,-1
 674 1077 l 1,12,13
 664 1063 664 1063 645 1075 c 1,14,-1
 584 1128 l 1,15,16
 567 1141 567 1141 582 1157 c 1,17,-1
 692 1290 l 1,18,19
 610 1321 610 1321 492 1321 c 2,20,-1
 451 1321 l 2,21,22
 430 1321 430 1321 430 1341 c 2,23,-1
 430 1444 l 2,24,25
 430 1464 430 1464 451 1464 c 2,26,-1
 492 1464 l 2,27,28
 668 1464 668 1464 793 1409 c 1,29,-1
 928 1569 l 1,30,31
 938 1585 938 1585 956 1571 c 1,32,-1
 1018 1518 l 1,33,34
 1036 1509 1036 1509 1020 1489 c 2,35,-1
 899 1346 l 1,36,37
 1188 1128 1188 1128 1188 655 c 2,38,-1
 1188 532 l 2,39,40
 1188 264 1188 264 1040.5 116.5 c 128,-1,41
 893 -31 893 -31 656.5 -31 c 128,-1,0
 420 -31 420 -31 271.5 109.5 c 128,-1,1
405.5 762 m 128,-1,43
 307 664 307 664 307 488.5 c 128,-1,44
 307 313 307 313 405.5 213 c 128,-1,45
 504 113 504 113 655.5 113 c 128,-1,46
 807 113 807 113 905.5 213 c 128,-1,47
 1004 313 1004 313 1004 490.5 c 128,-1,48
 1004 668 1004 668 910.5 764 c 128,-1,49
 817 860 817 860 660.5 860 c 128,-1,42
 504 860 504 860 405.5 762 c 128,-1,43
EndSplineSet
EndChar

StartChar: ntilde
Encoding: 241 241 179
Width: 1393
GlyphClass: 2
Flags: W
LayerCount: 2
Fore
SplineSet
205 20 m 2,0,1
 205 20 205 20 205 1075 c 0,2,3
 205 1096 205 1096 225 1096 c 2,4,-1
 338 1096 l 2,5,6
 358 1096 358 1096 360 1075 c 1,7,-1
 379 963 l 1,8,-1
 397 983 l 1,9,10
 535 1126 535 1126 739.5 1126 c 128,-1,11
 944 1126 944 1126 1076 998 c 128,-1,12
 1208 870 1208 870 1208 645 c 2,13,-1
 1208 20 l 2,14,15
 1208 0 1208 0 1188 0 c 2,16,-1
 1044 0 l 2,17,18
 1024 0 1024 0 1024 20 c 2,19,-1
 1024 645 l 2,20,21
 1024 807 1024 807 940 895 c 128,-1,22
 856 983 856 983 727 983 c 0,23,24
 668 983 668 983 610.5 960.5 c 128,-1,25
 553 938 553 938 515 907.5 c 128,-1,26
 477 877 477 877 433 829.5 c 128,-1,27
 389 782 389 782 389 768 c 2,28,-1
 389 20 l 2,29,30
 389 0 389 0 369 0 c 2,31,-1
 225 0 l 2,32,33
 205 0 205 0 205 20 c 2,0,1
393 1264 m 1,34,35
 422 1516 422 1516 588 1516 c 0,36,37
 660 1516 660 1516 756 1416 c 0,38,39
 788 1382 788 1382 813 1382 c 0,40,41
 870 1382 870 1382 891 1485 c 1,42,43
 893 1505 893 1505 915 1505 c 2,44,-1
 997 1505 l 2,45,46
 1022 1505 1022 1505 1018 1481 c 1,47,48
 989 1229 989 1229 823 1229 c 0,49,50
 750 1229 750 1229 656 1328 c 0,51,52
 623 1362 623 1362 598 1362 c 0,53,54
 541 1362 541 1362 520 1260 c 1,55,56
 518 1239 518 1239 496 1239 c 2,57,-1
 414 1239 l 2,58,59
 389 1239 389 1239 393 1264 c 1,34,35
EndSplineSet
EndChar

StartChar: ograve
Encoding: 242 242 180
Width: 1311
GlyphClass: 2
Flags: W
LayerCount: 2
Fore
SplineSet
269.5 119.5 m 128,-1,1
 123 270 123 270 123 549.5 c 128,-1,2
 123 829 123 829 269.5 977.5 c 128,-1,3
 416 1126 416 1126 655.5 1126 c 128,-1,4
 895 1126 895 1126 1041.5 977.5 c 128,-1,5
 1188 829 1188 829 1188 549.5 c 128,-1,6
 1188 270 1188 270 1041.5 119.5 c 128,-1,7
 895 -31 895 -31 655.5 -31 c 128,-1,0
 416 -31 416 -31 269.5 119.5 c 128,-1,1
403.5 874.5 m 128,-1,9
 307 766 307 766 307 550 c 128,-1,10
 307 334 307 334 403.5 223.5 c 128,-1,11
 500 113 500 113 655.5 113 c 128,-1,12
 811 113 811 113 907.5 223.5 c 128,-1,13
 1004 334 1004 334 1004 550 c 128,-1,14
 1004 766 1004 766 907.5 874.5 c 128,-1,15
 811 983 811 983 655.5 983 c 128,-1,8
 500 983 500 983 403.5 874.5 c 128,-1,9
354 1505 m 1,16,17
 340 1526 340 1526 365 1526 c 2,18,-1
 549 1526 l 2,19,20
 569 1526 569 1526 580 1505 c 2,21,-1
 713 1239 l 2,22,23
 723 1219 723 1219 702 1219 c 2,24,-1
 600 1219 l 2,25,26
 586 1219 586 1219 569 1239 c 2,27,-1
 354 1505 l 1,16,17
EndSplineSet
EndChar

StartChar: oacute
Encoding: 243 243 181
Width: 1311
GlyphClass: 2
Flags: W
LayerCount: 2
Fore
SplineSet
269.5 119.5 m 128,-1,1
 123 270 123 270 123 549.5 c 128,-1,2
 123 829 123 829 269.5 977.5 c 128,-1,3
 416 1126 416 1126 655.5 1126 c 128,-1,4
 895 1126 895 1126 1041.5 977.5 c 128,-1,5
 1188 829 1188 829 1188 549.5 c 128,-1,6
 1188 270 1188 270 1041.5 119.5 c 128,-1,7
 895 -31 895 -31 655.5 -31 c 128,-1,0
 416 -31 416 -31 269.5 119.5 c 128,-1,1
403.5 874.5 m 128,-1,9
 307 766 307 766 307 550 c 128,-1,10
 307 334 307 334 403.5 223.5 c 128,-1,11
 500 113 500 113 655.5 113 c 128,-1,12
 811 113 811 113 907.5 223.5 c 128,-1,13
 1004 334 1004 334 1004 550 c 128,-1,14
 1004 766 1004 766 907.5 874.5 c 128,-1,15
 811 983 811 983 655.5 983 c 128,-1,8
 500 983 500 983 403.5 874.5 c 128,-1,9
557 1239 m 2,16,-1
 690 1505 l 2,17,18
 700 1526 700 1526 721 1526 c 2,19,-1
 905 1526 l 2,20,21
 930 1526 930 1526 915 1505 c 1,22,-1
 700 1239 l 2,23,24
 684 1219 684 1219 670 1219 c 2,25,-1
 567 1219 l 2,26,27
 547 1219 547 1219 557 1239 c 2,16,-1
EndSplineSet
EndChar

StartChar: ocircumflex
Encoding: 244 244 182
Width: 1311
GlyphClass: 2
Flags: W
LayerCount: 2
Fore
SplineSet
269.5 119.5 m 128,-1,1
 123 270 123 270 123 549.5 c 128,-1,2
 123 829 123 829 269.5 977.5 c 128,-1,3
 416 1126 416 1126 655.5 1126 c 128,-1,4
 895 1126 895 1126 1041.5 977.5 c 128,-1,5
 1188 829 1188 829 1188 549.5 c 128,-1,6
 1188 270 1188 270 1041.5 119.5 c 128,-1,7
 895 -31 895 -31 655.5 -31 c 128,-1,0
 416 -31 416 -31 269.5 119.5 c 128,-1,1
403.5 874.5 m 128,-1,9
 307 766 307 766 307 550 c 128,-1,10
 307 334 307 334 403.5 223.5 c 128,-1,11
 500 113 500 113 655.5 113 c 128,-1,12
 811 113 811 113 907.5 223.5 c 128,-1,13
 1004 334 1004 334 1004 550 c 128,-1,14
 1004 766 1004 766 907.5 874.5 c 128,-1,15
 811 983 811 983 655.5 983 c 128,-1,8
 500 983 500 983 403.5 874.5 c 128,-1,9
354 1237 m 2,16,-1
 502 1462 l 2,17,18
 529 1502 529 1502 547 1513 c 128,-1,19
 565 1524 565 1524 584 1524 c 2,20,-1
 727 1524 l 2,21,22
 760 1524 760 1524 776.5 1504.5 c 128,-1,23
 793 1485 793 1485 809 1462 c 2,24,-1
 956 1237 l 1,25,26
 971 1217 971 1217 946 1217 c 2,27,-1
 848 1217 l 2,28,29
 834 1217 834 1217 813 1237 c 1,30,-1
 655 1401 l 1,31,-1
 498 1237 l 1,32,33
 477 1217 477 1217 463 1217 c 2,34,-1
 365 1217 l 2,35,36
 340 1217 340 1217 354 1237 c 2,16,-1
EndSplineSet
EndChar

StartChar: otilde
Encoding: 245 245 183
Width: 1311
GlyphClass: 2
Flags: W
LayerCount: 2
Fore
SplineSet
269.5 119.5 m 128,-1,1
 123 270 123 270 123 549.5 c 128,-1,2
 123 829 123 829 269.5 977.5 c 128,-1,3
 416 1126 416 1126 655.5 1126 c 128,-1,4
 895 1126 895 1126 1041.5 977.5 c 128,-1,5
 1188 829 1188 829 1188 549.5 c 128,-1,6
 1188 270 1188 270 1041.5 119.5 c 128,-1,7
 895 -31 895 -31 655.5 -31 c 128,-1,0
 416 -31 416 -31 269.5 119.5 c 128,-1,1
403.5 874.5 m 128,-1,9
 307 766 307 766 307 550 c 128,-1,10
 307 334 307 334 403.5 223.5 c 128,-1,11
 500 113 500 113 655.5 113 c 128,-1,12
 811 113 811 113 907.5 223.5 c 128,-1,13
 1004 334 1004 334 1004 550 c 128,-1,14
 1004 766 1004 766 907.5 874.5 c 128,-1,15
 811 983 811 983 655.5 983 c 128,-1,8
 500 983 500 983 403.5 874.5 c 128,-1,9
342 1264 m 1,16,17
 371 1516 371 1516 537 1516 c 0,18,19
 609 1516 609 1516 704 1416 c 0,20,21
 737 1382 737 1382 762 1382 c 0,22,23
 819 1382 819 1382 840 1485 c 1,24,25
 842 1505 842 1505 864 1505 c 2,26,-1
 946 1505 l 2,27,28
 971 1505 971 1505 967 1481 c 1,29,30
 938 1229 938 1229 772 1229 c 0,31,32
 700 1229 700 1229 604 1328 c 0,33,34
 571 1362 571 1362 547 1362 c 0,35,36
 489 1362 489 1362 469 1260 c 1,37,38
 467 1239 467 1239 444 1239 c 2,39,-1
 362 1239 l 2,40,41
 338 1239 338 1239 342 1264 c 1,16,17
EndSplineSet
EndChar

StartChar: odieresis
Encoding: 246 246 184
Width: 1311
GlyphClass: 2
Flags: W
LayerCount: 2
Fore
SplineSet
269.5 119.5 m 128,-1,1
 123 270 123 270 123 549.5 c 128,-1,2
 123 829 123 829 269.5 977.5 c 128,-1,3
 416 1126 416 1126 655.5 1126 c 128,-1,4
 895 1126 895 1126 1041.5 977.5 c 128,-1,5
 1188 829 1188 829 1188 549.5 c 128,-1,6
 1188 270 1188 270 1041.5 119.5 c 128,-1,7
 895 -31 895 -31 655.5 -31 c 128,-1,0
 416 -31 416 -31 269.5 119.5 c 128,-1,1
403.5 874.5 m 128,-1,9
 307 766 307 766 307 550 c 128,-1,10
 307 334 307 334 403.5 223.5 c 128,-1,11
 500 113 500 113 655.5 113 c 128,-1,12
 811 113 811 113 907.5 223.5 c 128,-1,13
 1004 334 1004 334 1004 550 c 128,-1,14
 1004 766 1004 766 907.5 874.5 c 128,-1,15
 811 983 811 983 655.5 983 c 128,-1,8
 500 983 500 983 403.5 874.5 c 128,-1,9
338 1311 m 2,16,-1
 338 1444 l 2,17,18
 338 1466 338 1466 347 1475.5 c 128,-1,19
 356 1485 356 1485 379 1485 c 2,20,-1
 512 1485 l 2,21,22
 535 1485 535 1485 544 1475.5 c 128,-1,23
 553 1466 553 1466 553 1444 c 2,24,-1
 553 1311 l 2,25,26
 553 1288 553 1288 544 1279 c 128,-1,27
 535 1270 535 1270 512 1270 c 2,28,-1
 379 1270 l 2,29,30
 356 1270 356 1270 347 1279 c 128,-1,31
 338 1288 338 1288 338 1311 c 2,16,-1
932 1485 m 2,32,33
 973 1485 973 1485 973 1444 c 2,34,-1
 973 1311 l 2,35,36
 973 1288 973 1288 963.5 1279 c 128,-1,37
 954 1270 954 1270 932 1270 c 2,38,-1
 799 1270 l 2,39,40
 776 1270 776 1270 767 1279 c 128,-1,41
 758 1288 758 1288 758 1311 c 2,42,-1
 758 1444 l 2,43,44
 758 1466 758 1466 767 1475.5 c 128,-1,45
 776 1485 776 1485 799 1485 c 2,46,-1
 932 1485 l 2,32,33
EndSplineSet
EndChar

StartChar: divide
Encoding: 247 247 185
Width: 1176
GlyphClass: 2
Flags: W
LayerCount: 2
Fore
SplineSet
82 645 m 2,0,-1
 82 748 l 2,1,2
 82 768 82 768 102 768 c 2,3,-1
 1063 768 l 2,4,5
 1083 768 1083 768 1083 748 c 2,6,-1
 1083 645 l 2,7,8
 1083 625 1083 625 1063 625 c 2,9,-1
 102 625 l 2,10,11
 82 625 82 625 82 645 c 2,0,-1
516 184 m 2,12,13
 475 184 475 184 475 225 c 2,14,-1
 475 358 l 2,15,16
 475 381 475 381 484.5 390 c 128,-1,17
 494 399 494 399 516 399 c 2,18,-1
 649 399 l 2,19,20
 672 399 672 399 681 390 c 128,-1,21
 690 381 690 381 690 358 c 2,22,-1
 690 225 l 2,23,24
 690 203 690 203 681 193.5 c 128,-1,25
 672 184 672 184 649 184 c 2,26,-1
 516 184 l 2,12,13
516 993 m 2,27,28
 475 993 475 993 475 1034 c 2,29,-1
 475 1167 l 2,30,31
 475 1190 475 1190 484.5 1199 c 128,-1,32
 494 1208 494 1208 516 1208 c 2,33,-1
 649 1208 l 2,34,35
 672 1208 672 1208 681 1199 c 128,-1,36
 690 1190 690 1190 690 1167 c 2,37,-1
 690 1034 l 2,38,39
 690 1012 690 1012 681 1002.5 c 128,-1,40
 672 993 672 993 649 993 c 2,41,-1
 516 993 l 2,27,28
EndSplineSet
EndChar

StartChar: oslash
Encoding: 248 248 186
Width: 1311
GlyphClass: 2
Flags: W
LayerCount: 2
Fore
SplineSet
301 88 m 1,0,1
 123 244 123 244 123 536.5 c 128,-1,2
 123 829 123 829 269.5 977.5 c 128,-1,3
 416 1126 416 1126 655 1126 c 0,4,5
 755 1126 755 1126 842 1096 c 1,6,-1
 870 1085 l 1,7,-1
 881 1106 l 2,8,9
 891 1126 891 1126 911 1126 c 2,10,-1
 1055 1126 l 2,11,12
 1075 1126 1075 1126 1065 1106 c 1,13,-1
 1008 1008 l 1,14,15
 1188 854 1188 854 1188 562 c 128,-1,16
 1188 270 1188 270 1041.5 119.5 c 128,-1,17
 895 -31 895 -31 655 -31 c 0,18,19
 559 -31 559 -31 469 0 c 2,20,-1
 440 10 l 1,21,-1
 430 -10 l 2,22,23
 420 -31 420 -31 399 -31 c 2,24,-1
 256 -31 l 2,25,26
 231 -31 231 -31 246 -10 c 1,27,-1
 301 88 l 1,0,1
403.5 874.5 m 128,-1,29
 307 766 307 766 307 561 c 128,-1,30
 307 356 307 356 389 242 c 1,31,-1
 795 954 l 1,32,33
 727 983 727 983 655 983 c 0,34,28
 500 983 500 983 403.5 874.5 c 128,-1,29
516 139 m 1,35,36
 578 113 578 113 655 113 c 0,37,38
 811 113 811 113 907.5 223.5 c 128,-1,39
 1004 334 1004 334 1004 538.5 c 128,-1,40
 1004 743 1004 743 922 854 c 1,41,-1
 516 139 l 1,35,36
EndSplineSet
EndChar

StartChar: ugrave
Encoding: 249 249 187
Width: 1413
GlyphClass: 2
Flags: W
LayerCount: 2
Fore
SplineSet
205 451 m 2,0,-1
 205 1075 l 2,1,2
 205 1095 205 1095 225 1096 c 1,3,-1
 369 1096 l 2,4,5
 389 1096 389 1096 389 1075 c 2,6,-1
 389 451 l 2,7,8
 389 289 389 289 473 201 c 128,-1,9
 557 113 557 113 686 113 c 0,10,11
 745 113 745 113 802.5 135.5 c 128,-1,12
 860 158 860 158 898 188.5 c 128,-1,13
 936 219 936 219 966 251 c 0,14,15
 1024 314 1024 314 1024 328 c 2,16,-1
 1024 1075 l 2,17,18
 1024 1095 1024 1095 1044 1096 c 1,19,-1
 1188 1096 l 2,20,21
 1208 1096 1208 1096 1208 1075 c 2,22,-1
 1208 20 l 2,23,24
 1208 0 1208 0 1188 0 c 2,25,-1
 1075 0 l 2,26,27
 1055 0 1055 0 1053 20 c 1,28,-1
 1034 133 l 1,29,30
 1021 113 1021 113 981.5 80 c 128,-1,31
 942 47 942 47 904 26 c 0,32,33
 804 -31 804 -31 676 -31 c 0,34,35
 469 -31 469 -31 337 97.5 c 128,-1,36
 205 226 205 226 205 451 c 2,0,-1
426 1495 m 1,37,38
 412 1515 412 1515 436 1516 c 1,39,-1
 621 1516 l 2,40,41
 641 1516 641 1516 651 1495 c 2,42,-1
 784 1229 l 2,43,44
 794 1209 794 1209 774 1208 c 1,45,-1
 672 1208 l 2,46,47
 658 1208 658 1208 641 1229 c 2,48,-1
 426 1495 l 1,37,38
EndSplineSet
EndChar

StartChar: uacute
Encoding: 250 250 188
Width: 1413
GlyphClass: 2
Flags: W
LayerCount: 2
Fore
SplineSet
205 451 m 2,0,-1
 205 1075 l 2,1,2
 205 1095 205 1095 225 1096 c 1,3,-1
 369 1096 l 2,4,5
 389 1096 389 1096 389 1075 c 2,6,-1
 389 451 l 2,7,8
 389 289 389 289 473 201 c 128,-1,9
 557 113 557 113 686 113 c 0,10,11
 745 113 745 113 802.5 135.5 c 128,-1,12
 860 158 860 158 898 188.5 c 128,-1,13
 936 219 936 219 966 251 c 0,14,15
 1024 314 1024 314 1024 328 c 2,16,-1
 1024 1075 l 2,17,18
 1024 1095 1024 1095 1044 1096 c 1,19,-1
 1188 1096 l 2,20,21
 1208 1096 1208 1096 1208 1075 c 2,22,-1
 1208 20 l 2,23,24
 1208 0 1208 0 1188 0 c 2,25,-1
 1075 0 l 2,26,27
 1055 0 1055 0 1053 20 c 1,28,-1
 1034 133 l 1,29,30
 1021 113 1021 113 981.5 80 c 128,-1,31
 942 47 942 47 904 26 c 0,32,33
 804 -31 804 -31 676 -31 c 0,34,35
 469 -31 469 -31 337 97.5 c 128,-1,36
 205 226 205 226 205 451 c 2,0,-1
608 1229 m 2,37,-1
 741 1495 l 2,38,39
 751 1515 751 1515 772 1516 c 1,40,-1
 956 1516 l 2,41,42
 981 1516 981 1516 967 1495 c 1,43,-1
 752 1229 l 2,44,45
 736 1209 736 1209 721 1208 c 1,46,-1
 618 1208 l 1,47,48
 598 1209 598 1209 608 1229 c 2,37,-1
EndSplineSet
EndChar

StartChar: ucircumflex
Encoding: 251 251 189
Width: 1413
GlyphClass: 2
Flags: W
LayerCount: 2
Fore
SplineSet
205 451 m 2,0,-1
 205 1075 l 2,1,2
 205 1095 205 1095 225 1096 c 1,3,-1
 369 1096 l 2,4,5
 389 1096 389 1096 389 1075 c 2,6,-1
 389 451 l 2,7,8
 389 289 389 289 473 201 c 128,-1,9
 557 113 557 113 686 113 c 0,10,11
 745 113 745 113 802.5 135.5 c 128,-1,12
 860 158 860 158 898 188.5 c 128,-1,13
 936 219 936 219 966 251 c 0,14,15
 1024 314 1024 314 1024 328 c 2,16,-1
 1024 1075 l 2,17,18
 1024 1095 1024 1095 1044 1096 c 1,19,-1
 1188 1096 l 2,20,21
 1208 1096 1208 1096 1208 1075 c 2,22,-1
 1208 20 l 2,23,24
 1208 0 1208 0 1188 0 c 2,25,-1
 1075 0 l 2,26,27
 1055 0 1055 0 1053 20 c 1,28,-1
 1034 133 l 1,29,30
 1021 113 1021 113 981.5 80 c 128,-1,31
 942 47 942 47 904 26 c 0,32,33
 804 -31 804 -31 676 -31 c 0,34,35
 469 -31 469 -31 337 97.5 c 128,-1,36
 205 226 205 226 205 451 c 2,0,-1
395 1229 m 2,37,-1
 543 1454 l 2,38,39
 571 1495 571 1495 588.5 1505.5 c 128,-1,40
 606 1516 606 1516 625 1516 c 2,41,-1
 768 1516 l 2,42,43
 801 1516 801 1516 817.5 1496.5 c 128,-1,44
 834 1477 834 1477 850 1454 c 2,45,-1
 997 1229 l 2,46,47
 1011 1209 1011 1209 987 1208 c 1,48,-1
 889 1208 l 2,49,50
 875 1208 875 1208 854 1229 c 2,51,-1
 696 1393 l 1,52,-1
 539 1229 l 2,53,54
 519 1209 519 1209 504 1208 c 1,55,-1
 406 1208 l 1,56,57
 381 1209 381 1209 395 1229 c 2,37,-1
EndSplineSet
EndChar

StartChar: udieresis
Encoding: 252 252 190
Width: 1413
GlyphClass: 2
Flags: W
LayerCount: 2
Fore
SplineSet
205 451 m 2,0,-1
 205 1075 l 2,1,2
 205 1095 205 1095 225 1096 c 1,3,-1
 369 1096 l 2,4,5
 389 1096 389 1096 389 1075 c 2,6,-1
 389 451 l 2,7,8
 389 289 389 289 473 201 c 128,-1,9
 557 113 557 113 686 113 c 0,10,11
 745 113 745 113 802.5 135.5 c 128,-1,12
 860 158 860 158 898 188.5 c 128,-1,13
 936 219 936 219 966 251 c 0,14,15
 1024 314 1024 314 1024 328 c 2,16,-1
 1024 1075 l 2,17,18
 1024 1095 1024 1095 1044 1096 c 1,19,-1
 1188 1096 l 2,20,21
 1208 1096 1208 1096 1208 1075 c 2,22,-1
 1208 20 l 2,23,24
 1208 0 1208 0 1188 0 c 2,25,-1
 1075 0 l 2,26,27
 1055 0 1055 0 1053 20 c 1,28,-1
 1034 133 l 1,29,30
 1021 113 1021 113 981.5 80 c 128,-1,31
 942 47 942 47 904 26 c 0,32,33
 804 -31 804 -31 676 -31 c 0,34,35
 469 -31 469 -31 337 97.5 c 128,-1,36
 205 226 205 226 205 451 c 2,0,-1
389 1290 m 2,37,-1
 389 1423 l 2,38,39
 389 1446 389 1446 398.5 1455 c 128,-1,40
 408 1464 408 1464 430 1464 c 2,41,-1
 563 1464 l 2,42,43
 586 1464 586 1464 595 1455 c 128,-1,44
 604 1446 604 1446 604 1423 c 2,45,-1
 604 1290 l 2,46,47
 604 1267 604 1267 595 1258 c 128,-1,48
 586 1249 586 1249 563 1249 c 2,49,-1
 430 1249 l 2,50,51
 407 1249 407 1249 398 1258 c 128,-1,52
 389 1267 389 1267 389 1290 c 2,37,-1
809 1290 m 2,53,-1
 809 1423 l 2,54,55
 809 1446 809 1446 818 1455 c 128,-1,56
 827 1464 827 1464 850 1464 c 2,57,-1
 983 1464 l 2,58,59
 1006 1464 1006 1464 1015 1455 c 128,-1,60
 1024 1446 1024 1446 1024 1423 c 2,61,-1
 1024 1290 l 2,62,63
 1024 1267 1024 1267 1015 1258 c 128,-1,64
 1006 1249 1006 1249 983 1249 c 2,65,-1
 850 1249 l 2,66,67
 827 1249 827 1249 818 1258 c 128,-1,68
 809 1267 809 1267 809 1290 c 2,53,-1
EndSplineSet
EndChar

StartChar: yacute
Encoding: 253 253 191
Width: 1180
GlyphClass: 2
Flags: W
LayerCount: 2
Fore
SplineSet
43 1075 m 2,0,1
 35 1096 35 1096 59 1096 c 2,2,-1
 197 1096 l 2,3,4
 221 1096 221 1096 227 1075 c 1,5,-1
 455 420 l 2,6,7
 500 293 500 293 558 238.5 c 128,-1,8
 616 184 616 184 717 184 c 1,9,-1
 952 1075 l 2,10,11
 958 1096 958 1096 983 1096 c 2,12,-1
 1120 1096 l 2,13,14
 1143 1096 1143 1096 1137 1075 c 2,15,-1
 864 41 l 2,16,17
 807 -174 807 -174 712.5 -271.5 c 128,-1,18
 618 -369 618 -369 465 -369 c 0,19,20
 358 -369 358 -369 268 -338 c 1,21,-1
 240 -328 l 1,22,23
 219 -317 219 -317 219 -301 c 2,24,-1
 219 -201 l 2,25,26
 219 -176 219 -176 240 -184 c 0,27,28
 342 -225 342 -225 440.5 -225 c 128,-1,29
 539 -225 539 -225 591 -168 c 128,-1,30
 643 -111 643 -111 680 41 c 1,31,32
 520 41 520 41 432 125 c 128,-1,33
 344 209 344 209 270 422 c 2,34,-1
 43 1075 l 2,0,1
532 1229 m 2,35,-1
 666 1495 l 2,36,37
 676 1516 676 1516 696 1516 c 2,38,-1
 881 1516 l 2,39,40
 905 1516 905 1516 891 1495 c 1,41,-1
 676 1229 l 2,42,43
 659 1208 659 1208 645 1208 c 2,44,-1
 543 1208 l 2,45,46
 522 1208 522 1208 532 1229 c 2,35,-1
EndSplineSet
EndChar

StartChar: thorn
Encoding: 254 254 192
Width: 1341
GlyphClass: 2
Flags: W
LayerCount: 2
Fore
SplineSet
205 -317 m 2,0,-1
 205 1415 l 2,1,2
 205 1435 205 1435 225 1436 c 1,3,-1
 369 1436 l 2,4,5
 389 1436 389 1436 389 1415 c 2,6,-1
 389 973 l 1,7,-1
 406 989 l 1,8,9
 543 1126 543 1126 717 1126 c 0,10,11
 936 1126 936 1126 1077.5 977.5 c 128,-1,12
 1219 829 1219 829 1219 546.5 c 128,-1,13
 1219 264 1219 264 1077.5 116.5 c 128,-1,14
 936 -31 936 -31 717 -31 c 0,15,16
 631 -31 631 -31 549 7 c 128,-1,17
 467 45 467 45 428 84 c 2,18,-1
 389 123 l 1,19,-1
 389 -317 l 2,20,21
 389 -337 389 -337 369 -338 c 1,22,-1
 225 -338 l 1,23,24
 205 -337 205 -337 205 -317 c 2,0,-1
389 328 m 2,25,26
 389 317 389 317 431 268 c 128,-1,27
 473 219 473 219 510 188 c 0,28,29
 602 113 602 113 707 113 c 0,30,31
 852 113 852 113 943 221.5 c 128,-1,32
 1034 330 1034 330 1034 546 c 128,-1,33
 1034 762 1034 762 944 872.5 c 128,-1,34
 854 983 854 983 707 983 c 0,35,36
 564 983 564 983 446 845 c 0,37,38
 389 779 389 779 389 768 c 2,39,-1
 389 328 l 2,25,26
EndSplineSet
EndChar

StartChar: ydieresis
Encoding: 255 255 193
Width: 1180
GlyphClass: 2
Flags: W
LayerCount: 2
Fore
SplineSet
43 1075 m 2,0,1
 35 1096 35 1096 59 1096 c 2,2,-1
 197 1096 l 2,3,4
 221 1096 221 1096 227 1075 c 1,5,-1
 455 420 l 2,6,7
 500 293 500 293 558 238.5 c 128,-1,8
 616 184 616 184 717 184 c 1,9,-1
 952 1075 l 2,10,11
 958 1096 958 1096 983 1096 c 2,12,-1
 1120 1096 l 2,13,14
 1143 1096 1143 1096 1137 1075 c 2,15,-1
 864 41 l 2,16,17
 807 -174 807 -174 712.5 -271.5 c 128,-1,18
 618 -369 618 -369 465 -369 c 0,19,20
 358 -369 358 -369 268 -338 c 1,21,-1
 240 -328 l 1,22,23
 219 -317 219 -317 219 -301 c 2,24,-1
 219 -201 l 2,25,26
 219 -176 219 -176 240 -184 c 0,27,28
 342 -225 342 -225 440.5 -225 c 128,-1,29
 539 -225 539 -225 591 -168 c 128,-1,30
 643 -111 643 -111 680 41 c 1,31,32
 520 41 520 41 432 125 c 128,-1,33
 344 209 344 209 270 422 c 2,34,-1
 43 1075 l 2,0,1
467 1485 m 2,35,36
 508 1485 508 1485 508 1444 c 2,37,-1
 508 1311 l 2,38,39
 508 1288 508 1288 498.5 1279 c 128,-1,40
 489 1270 489 1270 467 1270 c 2,41,-1
 334 1270 l 2,42,43
 311 1270 311 1270 302 1279 c 128,-1,44
 293 1288 293 1288 293 1311 c 2,45,-1
 293 1444 l 2,46,47
 293 1466 293 1466 302 1475.5 c 128,-1,48
 311 1485 311 1485 334 1485 c 2,49,-1
 467 1485 l 2,35,36
887 1485 m 2,50,51
 928 1485 928 1485 928 1444 c 2,52,-1
 928 1311 l 2,53,54
 928 1288 928 1288 918.5 1279 c 128,-1,55
 909 1270 909 1270 887 1270 c 2,56,-1
 754 1270 l 2,57,58
 731 1270 731 1270 722 1279 c 128,-1,59
 713 1288 713 1288 713 1311 c 2,60,-1
 713 1444 l 2,61,62
 713 1466 713 1466 722 1475.5 c 128,-1,63
 731 1485 731 1485 754 1485 c 2,64,-1
 887 1485 l 2,50,51
EndSplineSet
EndChar

StartChar: hbar
Encoding: 295 295 194
Width: 1352
GlyphClass: 2
Flags: W
LayerCount: 2
Fore
SplineSet
0 1116 m 2,0,-1
 0 1219 l 2,1,2
 0 1239 0 1239 20 1239 c 2,3,-1
 205 1239 l 1,4,-1
 205 1413 l 2,5,6
 205 1434 205 1434 225 1434 c 2,7,-1
 369 1434 l 2,8,9
 389 1434 389 1434 389 1413 c 2,10,-1
 389 1239 l 1,11,-1
 725 1239 l 2,12,13
 745 1239 745 1239 745 1219 c 2,14,-1
 745 1116 l 2,15,16
 745 1096 745 1096 725 1096 c 2,17,-1
 389 1096 l 1,18,-1
 389 788 l 1,19,20
 396 800 396 800 437.5 834 c 128,-1,21
 479 868 479 868 517 888 c 0,22,23
 616 942 616 942 737 942 c 0,24,25
 944 942 944 942 1076 814 c 128,-1,26
 1208 686 1208 686 1208 461 c 2,27,-1
 1208 20 l 2,28,29
 1208 0 1208 0 1188 0 c 2,30,-1
 1044 0 l 2,31,32
 1024 0 1024 0 1024 20 c 2,33,-1
 1024 461 l 2,34,35
 1024 623 1024 623 940 711 c 128,-1,36
 856 799 856 799 727 799 c 0,37,38
 637 799 637 799 552 748.5 c 128,-1,39
 467 698 467 698 428 654 c 128,-1,40
 389 610 389 610 389 604 c 2,41,-1
 389 20 l 2,42,43
 389 0 389 0 369 0 c 2,44,-1
 225 0 l 2,45,46
 205 0 205 0 205 20 c 2,47,-1
 205 1096 l 1,48,-1
 20 1096 l 2,49,50
 0 1096 0 1096 0 1116 c 2,0,-1
EndSplineSet
EndChar

StartChar: Itilde
Encoding: 296 296 195
Width: 588
GlyphClass: 2
Flags: W
LayerCount: 2
Fore
SplineSet
-18 1561 m 1,0,1
 10 1812 10 1812 176 1812 c 0,2,3
 225 1812 225 1812 268 1778.5 c 128,-1,4
 311 1745 311 1745 344 1712 c 128,-1,5
 377 1679 377 1679 401 1679 c 0,6,7
 459 1679 459 1679 479 1782 c 1,8,9
 481 1802 481 1802 504 1802 c 2,10,-1
 586 1802 l 2,11,12
 610 1802 610 1802 606 1778 c 1,13,14
 578 1526 578 1526 412 1526 c 0,15,16
 362 1526 362 1526 319 1559.5 c 128,-1,17
 276 1593 276 1593 243.5 1626 c 128,-1,18
 211 1659 211 1659 186 1659 c 0,19,20
 129 1659 129 1659 109 1556 c 0,21,22
 106 1536 106 1536 84 1536 c 2,23,-1
 2 1536 l 2,24,25
 -23 1536 -23 1536 -18 1561 c 1,0,1
201 20 m 2,26,-1
 201 1413 l 2,27,28
 201 1434 201 1434 221 1434 c 2,29,-1
 365 1434 l 2,30,31
 385 1434 385 1434 385 1413 c 2,32,-1
 385 20 l 2,33,34
 385 0 385 0 365 0 c 2,35,-1
 221 0 l 2,36,37
 201 0 201 0 201 20 c 2,26,-1
EndSplineSet
EndChar

StartChar: itilde
Encoding: 297 297 196
Width: 629
GlyphClass: 2
Flags: W
LayerCount: 2
Fore
SplineSet
2 1223 m 1,0,1
 31 1475 31 1475 197 1475 c 0,2,3
 269 1475 269 1475 364 1375 c 0,4,5
 397 1341 397 1341 422 1341 c 0,6,7
 479 1341 479 1341 500 1444 c 1,8,9
 502 1464 502 1464 524 1464 c 2,10,-1
 606 1464 l 2,11,12
 631 1464 631 1464 627 1440 c 1,13,14
 598 1188 598 1188 432 1188 c 0,15,16
 360 1188 360 1188 264 1287 c 0,17,18
 231 1321 231 1321 207 1321 c 0,19,20
 150 1321 150 1321 129 1219 c 1,21,22
 127 1198 127 1198 104 1198 c 2,23,-1
 23 1198 l 2,24,25
 -2 1198 -2 1198 2 1223 c 1,0,1
221 20 m 2,26,27
 221 20 221 20 221 1075 c 0,28,29
 221 1096 221 1096 242 1096 c 2,30,-1
 385 1096 l 2,31,32
 406 1096 406 1096 406 1075 c 2,33,-1
 406 20 l 2,34,35
 406 0 406 0 385 0 c 2,36,-1
 242 0 l 2,37,38
 221 0 221 0 221 20 c 2,26,27
EndSplineSet
EndChar

StartChar: dotlessi
Encoding: 305 305 197
Width: 594
GlyphClass: 2
Flags: W
LayerCount: 2
Fore
SplineSet
205 20 m 2,0,-1
 205 1075 l 2,1,2
 205 1096 205 1096 225 1096 c 2,3,-1
 369 1096 l 2,4,5
 389 1096 389 1096 389 1075 c 2,6,-1
 389 20 l 2,7,8
 389 0 389 0 369 0 c 2,9,-1
 225 0 l 2,10,11
 205 0 205 0 205 20 c 2,0,-1
EndSplineSet
EndChar

StartChar: ij
Encoding: 307 307 198
Width: 1178
GlyphClass: 2
Flags: W
LayerCount: 2
Fore
SplineSet
184 1393 m 2,0,1
 184 1434 184 1434 225 1434 c 2,2,-1
 358 1434 l 2,3,4
 381 1434 381 1434 390 1424.5 c 128,-1,5
 399 1415 399 1415 399 1393 c 2,6,-1
 399 1260 l 2,7,8
 399 1237 399 1237 390 1228 c 128,-1,9
 381 1219 381 1219 358 1219 c 2,10,-1
 225 1219 l 2,11,12
 203 1219 203 1219 193.5 1228 c 128,-1,13
 184 1237 184 1237 184 1260 c 2,14,-1
 184 1393 l 2,0,1
199 20 m 2,15,-1
 199 1075 l 2,16,17
 199 1096 199 1096 219 1096 c 2,18,-1
 362 1096 l 2,19,20
 383 1096 383 1096 383 1075 c 2,21,-1
 383 20 l 2,22,23
 383 0 383 0 362 0 c 2,24,-1
 219 0 l 2,25,26
 199 0 199 0 199 20 c 2,15,-1
342 -201 m 2,27,28
 342 -176 342 -176 362 -184 c 0,29,30
 465 -225 465 -225 567 -225 c 0,31,32
 793 -225 793 -225 793 82 c 2,33,-1
 793 1075 l 2,34,35
 793 1096 793 1096 813 1096 c 2,36,-1
 956 1096 l 2,37,38
 977 1096 977 1096 977 1075 c 2,39,-1
 977 82 l 2,40,41
 977 -131 977 -131 871.5 -250 c 128,-1,42
 766 -369 766 -369 588 -369 c 0,43,44
 481 -369 481 -369 391 -338 c 2,45,-1
 362 -328 l 1,46,47
 342 -317 342 -317 342 -301 c 2,48,-1
 342 -201 l 2,27,28
778 1393 m 2,49,50
 778 1434 778 1434 819 1434 c 2,51,-1
 952 1434 l 2,52,53
 975 1434 975 1434 984 1424.5 c 128,-1,54
 993 1415 993 1415 993 1393 c 2,55,-1
 993 1260 l 2,56,57
 993 1237 993 1237 984 1228 c 128,-1,58
 975 1219 975 1219 952 1219 c 2,59,-1
 819 1219 l 2,60,61
 797 1219 797 1219 787.5 1228 c 128,-1,62
 778 1237 778 1237 778 1260 c 2,63,-1
 778 1393 l 2,49,50
EndSplineSet
EndChar

StartChar: Jcircumflex
Encoding: 308 308 199
Width: 1024
GlyphClass: 2
Flags: W
LayerCount: 2
Fore
SplineSet
41 45 m 2,0,-1
 41 145 l 2,1,2
 41 170 41 170 61 162 c 0,3,4
 184 113 184 113 340 113 c 128,-1,5
 496 113 496 113 575.5 191.5 c 128,-1,6
 655 270 655 270 655 440 c 2,7,-1
 655 1290 l 1,8,-1
 184 1290 l 2,9,10
 164 1290 164 1290 164 1311 c 2,11,-1
 164 1413 l 2,12,13
 164 1433 164 1433 184 1434 c 1,14,-1
 819 1434 l 2,15,16
 839 1434 839 1434 840 1413 c 1,17,-1
 840 440 l 2,18,19
 840 221 840 221 715 95 c 128,-1,20
 590 -31 590 -31 348 -31 c 0,21,22
 184 -31 184 -31 61 18 c 1,23,24
 41 29 41 29 41 45 c 2,0,-1
201 1567 m 2,25,-1
 348 1792 l 1,26,27
 390 1853 390 1853 430 1853 c 2,28,-1
 573 1853 l 2,29,30
 609 1853 609 1853 624 1834 c 128,-1,31
 639 1815 639 1815 655 1792 c 2,32,-1
 803 1567 l 2,33,34
 817 1547 817 1547 793 1546 c 1,35,-1
 694 1546 l 2,36,37
 680 1546 680 1546 659 1567 c 2,38,-1
 502 1731 l 1,39,-1
 344 1567 l 2,40,41
 324 1547 324 1547 309 1546 c 1,42,-1
 211 1546 l 1,43,44
 187 1547 187 1547 201 1567 c 2,25,-1
EndSplineSet
EndChar

StartChar: jcircumflex
Encoding: 309 309 200
Width: 664
GlyphClass: 2
Flags: W
LayerCount: 2
Fore
SplineSet
-184 -201 m 2,0,1
 -184 -176 -184 -176 -164 -184 c 0,2,3
 -61 -225 -61 -225 41 -225 c 0,4,5
 266 -225 266 -225 266 82 c 2,6,-1
 266 1075 l 2,7,8
 266 1096 266 1096 287 1096 c 2,9,-1
 430 1096 l 2,10,11
 451 1096 451 1096 451 1075 c 2,12,-1
 451 82 l 2,13,14
 451 -131 451 -131 345.5 -250 c 128,-1,15
 240 -369 240 -369 61 -369 c 0,16,17
 -45 -369 -45 -369 -135 -338 c 2,18,-1
 -164 -328 l 1,19,20
 -184 -317 -184 -317 -184 -301 c 2,21,-1
 -184 -201 l 2,0,1
57 1188 m 2,22,-1
 205 1413 l 2,23,24
 232 1453 232 1453 250 1464 c 128,-1,25
 268 1475 268 1475 287 1475 c 2,26,-1
 430 1475 l 2,27,28
 463 1475 463 1475 479.5 1455.5 c 128,-1,29
 496 1436 496 1436 512 1413 c 2,30,-1
 659 1188 l 1,31,32
 674 1167 674 1167 649 1167 c 2,33,-1
 551 1167 l 2,34,35
 537 1167 537 1167 516 1188 c 2,36,-1
 358 1352 l 1,37,-1
 201 1188 l 2,38,39
 180 1167 180 1167 166 1167 c 2,40,-1
 68 1167 l 2,41,42
 43 1167 43 1167 57 1188 c 2,22,-1
EndSplineSet
EndChar

StartChar: kcedilla
Encoding: 311 311 201
Width: 1243
GlyphClass: 2
Flags: W
LayerCount: 2
Fore
SplineSet
205 20 m 2,0,-1
 205 1413 l 2,1,2
 205 1434 205 1434 225 1434 c 2,3,-1
 369 1434 l 2,4,5
 389 1434 389 1434 389 1413 c 2,6,-1
 389 625 l 1,7,-1
 492 625 l 2,8,9
 659 625 659 625 758 778 c 1,10,-1
 944 1075 l 2,11,12
 958 1096 958 1096 975 1096 c 2,13,-1
 1133 1096 l 2,14,15
 1163 1096 1163 1096 1147 1071 c 2,16,-1
 952 758 l 2,17,18
 846 588 846 588 696 563 c 1,19,20
 852 541 852 541 973 348 c 2,21,-1
 1176 25 l 2,22,23
 1192 0 1192 0 1161 0 c 2,24,-1
 1004 0 l 2,25,26
 987 0 987 0 973 20 c 1,27,-1
 778 328 l 2,28,29
 680 481 680 481 512 481 c 2,30,-1
 389 481 l 1,31,-1
 389 20 l 2,32,33
 389 0 389 0 369 0 c 2,34,-1
 225 0 l 2,35,36
 205 0 205 0 205 20 c 2,0,-1
539 -41 m 2,37,38
 539 -18 539 -18 548 -9 c 128,-1,39
 557 0 557 0 580 0 c 2,40,-1
 713 0 l 2,41,42
 735 0 735 0 744.5 -9 c 128,-1,43
 754 -18 754 -18 754 -41 c 2,44,-1
 754 -164 l 2,45,46
 754 -201 754 -201 733 -236 c 2,47,-1
 621 -430 l 1,48,-1
 539 -430 l 1,49,-1
 633 -215 l 1,50,-1
 580 -215 l 2,51,52
 557 -215 557 -215 548 -206 c 128,-1,53
 539 -197 539 -197 539 -174 c 2,54,-1
 539 -41 l 2,37,38
EndSplineSet
EndChar

StartChar: kgreenlandic
Encoding: 312 312 202
Width: 1243
GlyphClass: 2
Flags: W
LayerCount: 2
Fore
SplineSet
205 20 m 2,0,-1
 205 1075 l 2,1,2
 205 1095 205 1095 225 1096 c 1,3,-1
 369 1096 l 2,4,5
 389 1096 389 1096 389 1075 c 2,6,-1
 389 625 l 1,7,-1
 492 625 l 2,8,9
 660 625 660 625 758 778 c 1,10,-1
 944 1075 l 1,11,12
 958 1095 958 1095 975 1096 c 1,13,-1
 1133 1096 l 2,14,15
 1164 1096 1164 1096 1147 1071 c 1,16,-1
 952 758 l 2,17,18
 846 588 846 588 696 563 c 1,19,20
 852 540 852 540 973 348 c 2,21,-1
 1176 25 l 2,22,23
 1192 0 1192 0 1161 0 c 2,24,-1
 1004 0 l 2,25,26
 988 0 988 0 973 20 c 1,27,-1
 778 328 l 2,28,29
 680 482 680 482 512 481 c 1,30,-1
 389 481 l 1,31,-1
 389 20 l 2,32,33
 389 0 389 0 369 0 c 2,34,-1
 225 0 l 2,35,36
 205 0 205 0 205 20 c 2,0,-1
EndSplineSet
EndChar

StartChar: ldot
Encoding: 320 320 203
Width: 901
GlyphClass: 2
Flags: W
LayerCount: 2
Fore
SplineSet
205 20 m 2,0,-1
 205 1413 l 2,1,2
 205 1433 205 1433 225 1434 c 1,3,-1
 369 1434 l 2,4,5
 389 1434 389 1434 389 1413 c 2,6,-1
 389 20 l 2,7,8
 389 0 389 0 369 0 c 2,9,-1
 225 0 l 2,10,11
 205 0 205 0 205 20 c 2,0,-1
557 651 m 2,12,-1
 557 784 l 2,13,14
 557 807 557 807 566 816 c 128,-1,15
 575 825 575 825 598 825 c 2,16,-1
 731 825 l 2,17,18
 754 825 754 825 763 816 c 128,-1,19
 772 807 772 807 772 784 c 2,20,-1
 772 651 l 2,21,22
 772 628 772 628 763 619 c 128,-1,23
 754 610 754 610 731 610 c 2,24,-1
 598 610 l 2,25,26
 575 610 575 610 566 619 c 128,-1,27
 557 628 557 628 557 651 c 2,12,-1
EndSplineSet
EndChar

StartChar: Lslash
Encoding: 321 321 204
Width: 1237
GlyphClass: 2
Flags: W
LayerCount: 2
Fore
SplineSet
0 516 m 2,0,-1
 0 637 l 2,1,2
 0 655 0 655 20 666 c 2,3,-1
 205 760 l 1,4,-1
 205 1413 l 2,5,6
 205 1434 205 1434 225 1434 c 2,7,-1
 369 1434 l 2,8,9
 389 1434 389 1434 389 1413 c 2,10,-1
 389 856 l 1,11,-1
 614 973 l 2,12,13
 635 983 635 983 635 958 c 2,14,-1
 635 838 l 2,15,16
 635 819 635 819 614 809 c 2,17,-1
 389 692 l 1,18,-1
 389 143 l 1,19,-1
 1196 143 l 2,20,21
 1217 143 1217 143 1217 123 c 2,22,-1
 1217 20 l 2,23,24
 1217 0 1217 0 1196 0 c 2,25,-1
 225 0 l 2,26,27
 205 0 205 0 205 20 c 2,28,-1
 205 596 l 1,29,-1
 20 502 l 2,30,31
 0 492 0 492 0 516 c 2,0,-1
EndSplineSet
EndChar

StartChar: lslash
Encoding: 322 322 205
Width: 676
GlyphClass: 2
Flags: W
LayerCount: 2
Fore
SplineSet
20 516 m 2,0,-1
 20 637 l 2,1,2
 20 655 20 655 41 666 c 2,3,-1
 246 770 l 1,4,-1
 246 1413 l 2,5,6
 246 1434 246 1434 266 1434 c 2,7,-1
 410 1434 l 2,8,9
 430 1434 430 1434 430 1413 c 2,10,-1
 430 866 l 1,11,-1
 635 973 l 2,12,13
 655 983 655 983 655 958 c 2,14,-1
 655 838 l 2,15,16
 655 819 655 819 635 809 c 2,17,-1
 430 702 l 1,18,-1
 430 20 l 2,19,20
 430 0 430 0 410 0 c 2,21,-1
 266 0 l 2,22,23
 246 0 246 0 246 20 c 2,24,-1
 246 606 l 1,25,-1
 41 502 l 2,26,27
 20 492 20 492 20 516 c 2,0,-1
EndSplineSet
EndChar

StartChar: Nacute
Encoding: 323 323 206
Width: 1618
GlyphClass: 2
Flags: W
LayerCount: 2
Fore
SplineSet
205 20 m 2,0,-1
 205 1413 l 2,1,2
 205 1434 205 1434 225 1434 c 2,3,-1
 369 1434 l 2,4,5
 430 1434 430 1434 471 1372 c 2,6,-1
 1229 246 l 1,7,-1
 1229 1413 l 2,8,9
 1229 1434 1229 1434 1249 1434 c 2,10,-1
 1393 1434 l 2,11,12
 1413 1434 1413 1434 1413 1413 c 2,13,-1
 1413 20 l 2,14,15
 1413 0 1413 0 1393 0 c 2,16,-1
 1249 0 l 2,17,18
 1188 0 1188 0 1147 61 c 2,19,-1
 389 1188 l 1,20,-1
 389 20 l 2,21,22
 389 0 389 0 369 0 c 2,23,-1
 225 0 l 2,24,25
 205 0 205 0 205 20 c 2,0,-1
752 1526 m 2,26,-1
 885 1792 l 2,27,28
 895 1812 895 1812 915 1812 c 2,29,-1
 1100 1812 l 2,30,31
 1124 1812 1124 1812 1110 1792 c 1,32,-1
 895 1526 l 2,33,34
 879 1505 879 1505 864 1505 c 2,35,-1
 762 1505 l 2,36,37
 741 1505 741 1505 752 1526 c 2,26,-1
EndSplineSet
EndChar

StartChar: nacute
Encoding: 324 324 207
Width: 1393
GlyphClass: 2
Flags: W
LayerCount: 2
Fore
SplineSet
205 20 m 2,0,-1
 205 1075 l 2,1,2
 205 1096 205 1096 225 1096 c 2,3,-1
 338 1096 l 2,4,5
 358 1096 358 1096 360 1075 c 1,6,-1
 379 963 l 1,7,8
 391 980 391 980 431 1014.5 c 128,-1,9
 471 1049 471 1049 509 1070 c 0,10,11
 607 1126 607 1126 737 1126 c 0,12,13
 944 1126 944 1126 1076 998 c 128,-1,14
 1208 870 1208 870 1208 645 c 2,15,-1
 1208 20 l 2,16,17
 1208 0 1208 0 1188 0 c 2,18,-1
 1044 0 l 2,19,20
 1024 0 1024 0 1024 20 c 2,21,-1
 1024 645 l 2,22,23
 1024 807 1024 807 940 895 c 128,-1,24
 856 983 856 983 727 983 c 0,25,26
 668 983 668 983 610.5 960.5 c 128,-1,27
 553 938 553 938 515 907.5 c 128,-1,28
 477 877 477 877 448 845 c 0,29,30
 389 782 389 782 389 768 c 2,31,-1
 389 20 l 2,32,33
 389 0 389 0 369 0 c 2,34,-1
 225 0 l 2,35,36
 205 0 205 0 205 20 c 2,0,-1
649 1239 m 2,37,-1
 782 1505 l 2,38,39
 793 1526 793 1526 813 1526 c 2,40,-1
 997 1526 l 2,41,42
 1022 1526 1022 1526 1008 1505 c 1,43,-1
 793 1239 l 2,44,45
 776 1219 776 1219 762 1219 c 2,46,-1
 659 1219 l 2,47,48
 639 1219 639 1219 649 1239 c 2,37,-1
EndSplineSet
EndChar

